<svg xmlns="http://www.w3.org/2000/svg" width="164.989" height="79.468" viewBox="0 0 164.989 79.468"><defs><style>.a{fill:#b01842;fill-rule:evenodd;}</style></defs><path class="a" d="M165.219,108c-2.067-1.08-2.386-4.131-2.339-11.547l.047-11.367-3.918-.006.88-2.105h3.038V77.594L170.2,74.9l0,7.9,3.334.006-.88,2.333-2.453,0-.012,19.673a4.571,4.571,0,0,0,1.452,3.2h-6.423ZM93.725,59.39c.556,1.523,1.813,3.095.919,4.859a4.967,4.967,0,0,1-3.916,3.529A6.746,6.746,0,0,1,85.7,66.5a12.471,12.471,0,0,1,5.2-12.812l2.828,5.7Z" transform="translate(-12.593 -51.601)"/><path class="a" d="M91.181,74.872C90.251,78,81,75.948,78.1,70.811c3.807.422,8.1-2.95,8.171-6.793Zm3.784-.4a2.389,2.389,0,0,0,1.487-1.517L86.5,51.375a2.3,2.3,0,0,0-1.994.459Zm4.471-4.684c4.23-6.407.665-16.922-8.448-18.4Zm62.975,47.322H2.834v1.221H162.412ZM98.5,83.578a5.252,5.252,0,0,1,5.2-.427,4.449,4.449,0,0,1,1.652,1.306l-2.931,4.558a5.634,5.634,0,0,0-1.12-.666,3.682,3.682,0,0,0-3.865.533v13.3c-.019,2.3.381,4.4,1.572,5.491H92.346a5.717,5.717,0,0,1-1.865-4.265l-.054-17.684a3.9,3.9,0,0,0-.88-2.865l6.9.026c.56.4.586,1.093.878,1.626Zm8.423,4.371c-.054-1.679.32-3.692-.78-5.143h6.4a2.441,2.441,0,0,1,.8,1.359,4.8,4.8,0,0,1,.481,1.625l.054,18.843a6.725,6.725,0,0,0,1.519,3.132l-6.85.014c-2.239-2.165-1.505-5.73-1.679-9.408l.053-10.422Zm10.128.187c.692-1.92,2.852-2.879,4.425-3.918,2.4-.88,5.036-3.065,7.729-1.28a17.805,17.805,0,0,1,5.624,5.384,24.276,24.276,0,0,1,.748,2.8c0,1.252.265,2.186.239,3.438a32.277,32.277,0,0,1,0,3.918,8.156,8.156,0,0,1-2.931,5.863c-2.666,2.371-6.025,5.064-9.649,3.224-3.252-1.519-7.089-4.53-6.85-8.662a43.354,43.354,0,0,1,.134-8.315,6.8,6.8,0,0,1,.532-2.45Zm6.662,13.327c.32,1.171.934,2.611,2.346,2.772.827.026,1.44-.667,1.919-1.252,1.493-2.931,1.28-6.13,1.28-9.463-.481-2.478.107-5.863-2.557-7.382-.934-.347-1.654.294-2.239.879-1.041,1.572-1.159,3.371-1.227,5.371A34.755,34.755,0,0,0,123.715,101.462Zm16.846,6.262c-2.065-1.08-2.385-4.131-2.339-11.547l.047-11.367-3.918-.006.88-2.105h3.038V77.315l7.277-2.691,0,7.9,3.334.006L148,84.857l-2.451,0-.014,19.673a4.578,4.578,0,0,0,1.452,3.2h-6.423Zm-66.525-22a4.4,4.4,0,0,0-.879-2.865l6.9.026c.559.4.586,1.093.879,1.626l1.173-.933a5.249,5.249,0,0,1,5.2-.427,4.441,4.441,0,0,1,1.654,1.306l-2.931,4.558a5.61,5.61,0,0,0-1.12-.666,3.682,3.682,0,0,0-3.865.533v13.3c-.019,2.3.38,4.4,1.573,5.491H75.956a5.385,5.385,0,0,1-1.866-4.265l-.054-17.684Zm-52.213,7L19.3,97.88c-1.713,3.045-4.115,6.78-7.8,7.708-1.427.5-2.687.047-4.067-.048l-4.448,7.279a3.471,3.471,0,0,0,1.261.832c7.827,2.987,10.978-.226,18.685-17.638l7.278,15.509H39.9l-4.579-10.465,2.593-5.412,7.16,15.639,9.277.06L38.117,75.662l-7.478,3.717L36.5,92.694l-2.57,5.233L23.19,74.74l-7.88,4.014,6.513,13.966Zm29.8,6.29a7.77,7.77,0,0,1,4-6.316c2.371-1.466,5.144-2.053,7.6-3.332.427-.347.959-.773.986-1.333a1.432,1.432,0,0,0-.933-1.466c-3.731-.8-6.823,1.546-9.542,3.864a20.655,20.655,0,0,1,1.413-5.17c.4-.427.639-1.012,1.173-1.333a17.79,17.79,0,0,1,8.9-1.466,6.509,6.509,0,0,1,5.491,4.1,10.619,10.619,0,0,1,.48,3.278l.027,14.446a6.155,6.155,0,0,0,1.359,3.438h-6.9a4.874,4.874,0,0,1-1.466-2.852c-1.932,1.707-5.963,4.239-8.369,2.559-2.492-1.119-4.771-4.878-4.211-8.423Zm12.233-5.024c-.053-1-.773-1.106-1.28-1.106a5.8,5.8,0,0,0-3.864,3.038,7.348,7.348,0,0,0-.933,3.438,5.9,5.9,0,0,0,.4,2.985,2.035,2.035,0,0,0,1.413,1.012,3.741,3.741,0,0,0,2.878-.639c1.945-1.094,1.6-3.278,1.626-5.224l-.24-3.5Zm103.066,10.382a1.73,1.73,0,0,1,.52,1.254,1.753,1.753,0,0,1-.522,1.274,1.774,1.774,0,0,1-2.524,0,1.8,1.8,0,0,1-.009-2.532,1.711,1.711,0,0,1,1.271-.539A1.689,1.689,0,0,1,166.921,104.366Zm.269-.276a2.09,2.09,0,0,0-1.531-.634,2.127,2.127,0,0,0-1.489.587,2.063,2.063,0,0,0-.676,1.576,2.164,2.164,0,1,0,3.7-1.529Zm-1.263,1.366a.594.594,0,0,1-.345.088h-.243v-.7h.152a1.068,1.068,0,0,1,.365.05.273.273,0,0,1,.193.273.327.327,0,0,1-.123.285Zm-.587.52h.131l.138.009a.67.67,0,0,1,.215.038.287.287,0,0,1,.176.176,1.109,1.109,0,0,1,.038.295,1.632,1.632,0,0,0,.04.331h.6l-.02-.067a.508.508,0,0,1-.021-.141V106.4a.654.654,0,0,0-.21-.537.812.812,0,0,0-.341-.138.79.79,0,0,0,.415-.162.529.529,0,0,0,.168-.437.6.6,0,0,0-.32-.573,1.177,1.177,0,0,0-.472-.123q-.247-.005-.495-.005l-.668,0v2.4h.629v-.848h0ZM2.983,123.1c.275.022.55.055.825.055s.55-.033.825-.055v2.98c.561.022,1.121.055,1.683.055s1.121-.033,1.683-.055V123.1c.275.022.55.055.825.055s.549-.033.825-.055v7.543c-.275-.02-.55-.055-.825-.055s-.55.034-.825.055v-3.683c-.561-.022-1.122-.055-1.683-.055s-1.122.033-1.683.055v3.683c-.275-.02-.55-.055-.825-.055s-.55.034-.825.055Zm12.89,7.686a3.712,3.712,0,0,1-4.069-3.925c0-2.187,1.594-3.958,4.333-3.958a3.726,3.726,0,0,1,4.069,3.915,4,4,0,0,1-4.333,3.968Zm-2.244-3.607c0,1.43.649,2.947,2.3,2.947,1.693,0,2.452-1.693,2.452-3.519,0-1.417-.66-3.045-2.31-3.045-1.527,0-2.44,1.153-2.44,3.617Zm11.691,3.463c-.275-.02-.55-.055-.825-.055s-.549.034-.825.055v-6.762a14.982,14.982,0,0,0-2.045.155,2.025,2.025,0,0,0,0-.935h5.663a3.3,3.3,0,0,0-.055.461,3.41,3.41,0,0,0,.055.474,16.461,16.461,0,0,0-1.968-.155v6.762Zm8.073-7.542a3.436,3.436,0,0,0-.055.472,3.571,3.571,0,0,0,.055.474,15.489,15.489,0,0,0-2.54-.153v2.363H32a10.068,10.068,0,0,0,1.353-.1,3.439,3.439,0,0,0-.055.472,3.608,3.608,0,0,0,.055.474,10.041,10.041,0,0,0-1.353-.1H30.854V129.8a20.566,20.566,0,0,0,2.54-.155,3.493,3.493,0,0,0-.055.474,3.579,3.579,0,0,0,.055.472H29.2V123.1Zm3.807,6.7a23.431,23.431,0,0,0,2.518-.155,3.494,3.494,0,0,0-.055.474,3.437,3.437,0,0,0,.055.472H35.551V123.1c.275.022.55.055.825.055s.55-.033.825-.055Zm8.074-5.279a1.314,1.314,0,0,0-1.265-.956c-.869,0-1.21.452-1.21,1.079,0,1.483,3.343,1.209,3.343,3.728,0,1.407-1.21,2.418-2.914,2.418a3.348,3.348,0,0,1-1.77-.472,10.19,10.19,0,0,0,.318-1.4h.209a1.482,1.482,0,0,0,1.518,1.209,1.16,1.16,0,0,0,1.287-1.144c0-1.758-3.277-1.121-3.277-3.77a2.284,2.284,0,0,1,2.541-2.31,2.861,2.861,0,0,1,1.737.527c-.132.353-.242.715-.352,1.088h-.166Zm9.847,1.946a1.408,1.408,0,0,1-1.41,1.4,1.4,1.4,0,1,1,0-2.8A1.408,1.408,0,0,1,55.122,126.468Zm5.438-3.364H62.9a4.417,4.417,0,0,1,1.781.219,1.643,1.643,0,0,1,.956,1.574,1.964,1.964,0,0,1-1.715,1.979c.6,1.054,1.287,2.067,1.946,3.09l.429.68c-.33-.02-.66-.055-1-.055s-.66.034-.989.055L63,128.339c-.165-.3-.473-.8-.715-1.221h-.077v3.529c-.275-.02-.55-.055-.825-.055s-.549.034-.825.055V123.1Zm1.65,3.541a1.39,1.39,0,0,0,1.726-1.572,2.8,2.8,0,0,0-.055-.551c-.176-.911-1-.824-1.671-.824v2.947ZM72.326,123.1a3.437,3.437,0,0,0-.055.472,3.573,3.573,0,0,0,.055.474,15.484,15.484,0,0,0-2.54-.153v2.363h1.143a10.058,10.058,0,0,0,1.353-.1,3.44,3.44,0,0,0-.055.472,3.607,3.607,0,0,0,.055.474,10.041,10.041,0,0,0-1.353-.1H69.787V129.8a20.578,20.578,0,0,0,2.54-.155,3.494,3.494,0,0,0-.055.474,3.581,3.581,0,0,0,.055.472H68.137V123.1Zm5.557,1.417a1.314,1.314,0,0,0-1.265-.956c-.869,0-1.21.452-1.21,1.079,0,1.483,3.343,1.209,3.343,3.728,0,1.407-1.21,2.418-2.914,2.418a3.348,3.348,0,0,1-1.77-.472,10.192,10.192,0,0,0,.318-1.4H74.6a1.482,1.482,0,0,0,1.518,1.209,1.159,1.159,0,0,0,1.286-1.144c0-1.758-3.277-1.121-3.277-3.77a2.283,2.283,0,0,1,2.54-2.31,2.859,2.859,0,0,1,1.737.527c-.132.353-.242.715-.352,1.088h-.164Zm6.5,6.268a3.712,3.712,0,0,1-4.069-3.925c0-2.187,1.594-3.958,4.333-3.958a3.725,3.725,0,0,1,4.068,3.915,4,4,0,0,1-4.332,3.968Zm-2.244-3.607c0,1.43.648,2.947,2.3,2.947,1.693,0,2.453-1.693,2.453-3.519,0-1.417-.661-3.045-2.311-3.045C83.053,123.566,82.141,124.72,82.141,127.183Zm8.6-4.079h2.342a4.417,4.417,0,0,1,1.781.219,1.643,1.643,0,0,1,.956,1.574,1.964,1.964,0,0,1-1.715,1.979c.6,1.054,1.287,2.067,1.946,3.09l.429.68c-.329-.02-.66-.055-1-.055s-.66.034-.989.055l-1.309-2.308c-.166-.3-.472-.8-.715-1.221H92.39v3.529c-.274-.02-.549-.055-.824-.055s-.549.034-.825.055V123.1Zm1.648,3.541a1.391,1.391,0,0,0,1.728-1.572,2.939,2.939,0,0,0-.055-.551c-.175-.911-1-.824-1.672-.824v2.947h0Zm8.985,4c-.274-.02-.549-.055-.825-.055s-.549.034-.824.055v-6.762a14.973,14.973,0,0,0-2.046.155,2.025,2.025,0,0,0,0-.935h5.663a2.025,2.025,0,0,0,0,.935,16.446,16.446,0,0,0-1.968-.155Zm7.3-6.125a1.312,1.312,0,0,0-1.265-.956c-.868,0-1.209.452-1.209,1.079,0,1.483,3.343,1.209,3.343,3.728,0,1.407-1.211,2.418-2.915,2.418a3.351,3.351,0,0,1-1.771-.472,10.061,10.061,0,0,0,.318-1.4h.21a1.481,1.481,0,0,0,1.518,1.209,1.159,1.159,0,0,0,1.285-1.144c0-1.758-3.276-1.121-3.276-3.77a2.283,2.283,0,0,1,2.541-2.31,2.858,2.858,0,0,1,1.736.527c-.131.353-.241.715-.351,1.088h-.165Zm9.847,1.946a1.408,1.408,0,0,1-1.411,1.4,1.4,1.4,0,1,1,0-2.8A1.407,1.407,0,0,1,118.526,126.468Zm8.892-1.946a1.314,1.314,0,0,0-1.265-.956c-.87,0-1.211.452-1.211,1.079,0,1.483,3.343,1.209,3.343,3.728,0,1.407-1.209,2.418-2.915,2.418a3.355,3.355,0,0,1-1.771-.472,10.329,10.329,0,0,0,.32-1.4h.208a1.482,1.482,0,0,0,1.518,1.209,1.159,1.159,0,0,0,1.287-1.144c0-1.758-3.278-1.121-3.278-3.77a2.284,2.284,0,0,1,2.541-2.31,2.864,2.864,0,0,1,1.738.527c-.132.353-.243.715-.351,1.088h-.165Zm3.026-1.417c.275.022.549.055.825.055s.549-.033.825-.055v3.123a14.545,14.545,0,0,0,.076,2.077,2.009,2.009,0,0,0,.584,1.266,1.749,1.749,0,0,0,1.252.472,1.842,1.842,0,0,0,1.959-1.33,8.639,8.639,0,0,0,.2-2.277V123.1a2.945,2.945,0,0,0,.878,0v3.915c-.033,1.252-.02,2.4-1.164,3.188a3.551,3.551,0,0,1-2.079.582c-1.33,0-2.772-.417-3.178-1.847a5.136,5.136,0,0,1-.176-1.352V123.1Zm9.4,0c.274.022.549.055.824.055s.551-.033.825-.055v7.543c-.274-.02-.549-.055-.825-.055s-.549.034-.824.055Zm7.4,7.542c-.275-.02-.549-.055-.825-.055s-.549.034-.825.055v-6.762a14.968,14.968,0,0,0-2.044.155,2.025,2.025,0,0,0,0-.935h5.662a3.59,3.59,0,0,0-.054.461,3.413,3.413,0,0,0,.054.474,16.416,16.416,0,0,0-1.967-.155Zm8.073-7.542a2.07,2.07,0,0,0,0,.945,15.51,15.51,0,0,0-2.541-.153v2.363h1.144a10.044,10.044,0,0,0,1.352-.1,2.071,2.071,0,0,0,0,.945,10.041,10.041,0,0,0-1.352-.1H152.78V129.8a20.619,20.619,0,0,0,2.541-.155,3.5,3.5,0,0,0-.055.474,3.441,3.441,0,0,0,.055.472H151.13V123.1Zm5.555,1.417a1.312,1.312,0,0,0-1.265-.956c-.868,0-1.209.452-1.209,1.079,0,1.483,3.343,1.209,3.343,3.728,0,1.407-1.211,2.418-2.915,2.418a3.351,3.351,0,0,1-1.771-.472,10.06,10.06,0,0,0,.318-1.4h.21a1.481,1.481,0,0,0,1.516,1.209,1.16,1.16,0,0,0,1.287-1.144c0-1.758-3.276-1.121-3.276-3.77a2.283,2.283,0,0,1,2.541-2.31,2.858,2.858,0,0,1,1.736.527c-.13.353-.241.715-.351,1.088h-.165Z" transform="translate(-2.834 -51.322)"/></svg>