<svg xmlns="http://www.w3.org/2000/svg" xmlns:xlink="http://www.w3.org/1999/xlink" width="256.066" height="256.066" viewBox="0 0 256.066 256.066"><defs><style>.a,.b,.c,.e{fill:#81e1ba;}.a,.b,.c{fill-rule:evenodd;}.a{opacity:0.15;}.b{opacity:0.4;}.d{fill:#fff;}.f{fill:none;stroke:#fff;stroke-linecap:round;stroke-linejoin:round;stroke-miterlimit:10;stroke-width:2px;}.g{filter:url(#a);}</style><filter id="a" x="59.868" y="57.868" width="136.45" height="136.45" filterUnits="userSpaceOnUse"><feOffset input="SourceAlpha"/><feGaussianBlur stdDeviation="10" result="b"/><feFlood flood-color="#81e1ba" flood-opacity="0.149"/><feComposite operator="in" in2="b"/><feComposite in="SourceGraphic"/></filter></defs><g transform="translate(-42.871 -43.332)"><g transform="translate(0.06 0.52)"><path class="a" d="M492.666,365.093A128.033,128.033,0,1,1,364.633,237.06,127.961,127.961,0,0,1,492.666,365.093ZM274.4,274.858a127.686,127.686,0,1,0,90.235-37.346A126.761,126.761,0,0,0,274.4,274.858Z" transform="translate(-193.788 -194.248)"/><path class="b" d="M618.432,526.536a92.356,92.356,0,1,1-92.356-92.356A92.3,92.3,0,0,1,618.432,526.536Zm-157.357-65a91.978,91.978,0,1,0,65-26.9A91.315,91.315,0,0,0,461.075,461.535Z" transform="translate(-355.231 -355.691)"/><path class="c" d="M723.233,661.067a62.627,62.627,0,1,1-62.627-62.627A62.59,62.59,0,0,1,723.233,661.067Zm-124.8,0a62.174,62.174,0,1,0,62.174-62.174A62.244,62.244,0,0,0,598.432,661.067Z" transform="translate(-489.762 -490.222)"/></g><g transform="translate(117.13 108.32)"><rect class="d" width="118" height="178" transform="translate(-5.166 -27.896)"/><g transform="translate(-100.391 -109.618)"><g class="g" transform="matrix(1, 0, 0, 1, 26.13, 44.63)"><circle class="e" cx="38.225" cy="38.225" r="38.225" transform="translate(89.87 87.87)"/></g><path class="f" d="M43.719,15,24.2,36.959,12,27.2" transform="translate(126.366 143.523)"/></g></g></g></svg>