<svg xmlns="http://www.w3.org/2000/svg" width="18.605" height="18.144" viewBox="0 0 18.605 18.144"><g transform="translate(0 -3.736)"><path d="M9.844,4.971V4.354a.618.618,0,0,0-.618-.618H.618A.618.618,0,0,0,0,4.354v.618a.618.618,0,0,0,.618.618H9.226A.618.618,0,0,0,9.844,4.971Z"/><path d="M8.066,66.736H.618A.618.618,0,0,0,0,67.354v.618a.618.618,0,0,0,.618.618H8.066a.618.618,0,0,0,.618-.618v-.618A.618.618,0,0,0,8.066,66.736Z" transform="translate(0 -59.109)"/><path d="M6.906,129.736H.618a.618.618,0,0,0-.618.618v.618a.618.618,0,0,0,.618.618H6.906a.618.618,0,0,0,.618-.618v-.618A.618.618,0,0,0,6.906,129.736Z" transform="translate(0 -118.217)"/><path d="M5.746,199.736H.618a.618.618,0,0,0-.618.618v.618a.618.618,0,0,0,.618.618H5.746a.618.618,0,0,0,.618-.618v-.618A.618.618,0,0,0,5.746,199.736Z" transform="translate(0 -183.894)"/><path d="M4.586,262.736H.618a.618.618,0,0,0-.618.618v.618a.618.618,0,0,0,.618.618H4.586a.618.618,0,0,0,.618-.618v-.618A.618.618,0,0,0,4.586,262.736Z" transform="translate(0 -243.002)"/><path d="M163.051,21.592l-.437-.437a.618.618,0,0,0-.874,0l-2.124,2.124V9.354A.618.618,0,0,0,159,8.736h-.618a.618.618,0,0,0-.618.618V23.28l-2.124-2.124a.618.618,0,0,0-.874,0l-.437.437a.618.618,0,0,0,0,.874l3.924,3.924a.618.618,0,0,0,.874,0l3.924-3.924A.618.618,0,0,0,163.051,21.592Z" transform="translate(-144.627 -4.691)"/></g></svg>