<svg xmlns="http://www.w3.org/2000/svg" width="21.66" height="19.296" viewBox="0 0 21.66 19.296"><defs><style>.a{fill:#eaeaea;}</style></defs><g transform="translate(0 -20.95)"><g transform="translate(0 20.95)"><path class="a" d="M19.415,22.586h-1.36V21.514a.564.564,0,0,0-1.128,0v1.072H11.4V21.514a.564.564,0,0,0-1.128,0v1.072H4.683V21.514a.564.564,0,1,0-1.128,0v1.072h-1.3A2.283,2.283,0,0,0,0,24.871V37.989a2.251,2.251,0,0,0,2.251,2.257H19.409a2.25,2.25,0,0,0,2.251-2.251V24.871A2.275,2.275,0,0,0,19.415,22.586ZM5.388,36.24H4.4a.564.564,0,1,1,0-1.128h.993a.564.564,0,0,1-.006,1.128Zm0-3.837H4.4a.564.564,0,0,1,0-1.128h.993A.564.564,0,0,1,5.388,32.4ZM9.349,36.24H8.362a.564.564,0,1,1,0-1.128h.987a.564.564,0,1,1,0,1.128Zm0-3.837H8.362a.564.564,0,0,1,0-1.128h.987a.564.564,0,0,1,0,1.128Zm0-3.893H8.362a.564.564,0,0,1,0-1.128h.987a.564.564,0,0,1,0,1.128Zm3.927,7.73h-.987a.564.564,0,1,1,0-1.128h.987a.564.564,0,1,1,0,1.128Zm0-3.837h-.987a.564.564,0,0,1,0-1.128h.987a.564.564,0,0,1,0,1.128Zm0-3.893h-.987a.564.564,0,0,1,0-1.128h.987a.564.564,0,0,1,0,1.128ZM17.237,32.4h-.987a.564.564,0,0,1,0-1.128h.987a.564.564,0,1,1,0,1.128Zm0-3.893h-.987a.564.564,0,0,1,0-1.128h.987a.564.564,0,1,1,0,1.128Z" transform="translate(0 -20.95)"/></g></g></svg>