<svg xmlns="http://www.w3.org/2000/svg" width="16.185" height="26.976" viewBox="0 0 16.185 26.976"><defs><style>.a{opacity:0.4;}</style></defs><path class="a" d="M1,6.058C1,3.265,3.718,1,7.07,1s6.069,2.265,6.069,5.058V21.232c0,1.862-1.812,3.372-4.046,3.372s-4.046-1.509-4.046-3.372V7.744H7.07V21.232a1.878,1.878,0,0,0,2.023,1.686,1.878,1.878,0,0,0,2.023-1.686V6.058C11.116,4.2,9.3,2.686,7.07,2.686S3.023,4.2,3.023,6.058V21.232c0,2.793,2.717,5.058,6.07,5.058s6.07-2.265,6.07-5.058V4.372h2.023v17.7c-.5,3.326-3.966,5.9-8.093,5.9S1.5,25.4,1,22.075Z" transform="translate(-1 -1)"/></svg>