<svg xmlns="http://www.w3.org/2000/svg" width="18.208" height="26.975" viewBox="0 0 18.208 26.975"><defs><style>.a{opacity:0.4;}</style></defs><path class="a" d="M10.76,26.975H7.45a.843.843,0,0,1,0-1.685h.827V23.565a9.356,9.356,0,0,1-5.4-2.4A9.242,9.242,0,0,1,0,16.016H1.656a7.516,7.516,0,0,0,2.678,4.218,7.6,7.6,0,0,0,9.542,0,7.526,7.526,0,0,0,2.677-4.218h1.656a9.251,9.251,0,0,1-2.879,5.152,9.356,9.356,0,0,1-5.4,2.4V25.29h.828a.843.843,0,0,1,0,1.685ZM9.1,20.232a5.855,5.855,0,0,1-5.794-5.9V5.9A5.855,5.855,0,0,1,9.1,0,5.855,5.855,0,0,1,14.9,5.9v8.431A5.855,5.855,0,0,1,9.1,20.232Zm0-18.546A4.182,4.182,0,0,0,4.966,5.9v8.431a4.139,4.139,0,1,0,8.276,0V5.9A4.182,4.182,0,0,0,9.1,1.686Z"/></svg>