<svg xmlns="http://www.w3.org/2000/svg" width="21.66" height="14.891" viewBox="0 0 21.66 14.891"><defs><style>.a{fill:#eaeaea;}</style></defs><g transform="translate(0 -80)"><path class="a" d="M21.66,83.511V82.369A2.369,2.369,0,0,0,19.291,80H2.369A2.369,2.369,0,0,0,0,82.369v1.142a.212.212,0,0,0,.212.212H21.448A.212.212,0,0,0,21.66,83.511Z" transform="translate(0 0)"/><path class="a" d="M0,200.212v7.234a2.369,2.369,0,0,0,2.369,2.369H19.291a2.369,2.369,0,0,0,2.369-2.369v-7.234a.212.212,0,0,0-.212-.212H.212A.212.212,0,0,0,0,200.212Zm5.415,5.542a.677.677,0,0,1-.677.677H4.061a.677.677,0,0,1-.677-.677v-.677a.677.677,0,0,1,.677-.677h.677a.677.677,0,0,1,.677.677Z" transform="translate(0 -114.923)"/></g></svg>