<svg xmlns="http://www.w3.org/2000/svg" width="21.66" height="19.591" viewBox="0 0 21.66 19.591"><defs><style>.a{fill:#eaeaea;}</style></defs><g transform="translate(0 -8)"><g transform="translate(0 8)"><path class="a" d="M19.855,8H1.805A1.807,1.807,0,0,0,0,9.805V21.538a1.807,1.807,0,0,0,1.805,1.805H4.257A7.2,7.2,0,0,1,2.334,15.22H.9V11.61H5.535a7.2,7.2,0,0,1,6.981,0h8.242v3.61H15.716a7.191,7.191,0,0,1-.993,7.13l-.641-.641a6.324,6.324,0,1,0-1.276,1.276l4.605,4.605,1.276-1.276-2.972-2.972h4.139a1.807,1.807,0,0,0,1.805-1.805V9.805A1.807,1.807,0,0,0,19.855,8ZM9.025,22.44a4.513,4.513,0,1,1,4.513-4.513A4.513,4.513,0,0,1,9.025,22.44Z" transform="translate(0 -8)"/><circle class="a" cx="0.868" cy="0.868" r="0.868" transform="translate(8.191 8.8)"/><circle class="a" cx="0.868" cy="0.868" r="0.868" transform="translate(10.794 8.8)"/><circle class="a" cx="0.868" cy="0.868" r="0.868" transform="translate(5.588 8.8)"/></g></g></svg>