<svg xmlns="http://www.w3.org/2000/svg" width="9.878" height="13.173" viewBox="0 0 9.878 13.173"><defs><style>.a{fill:#fff;}</style></defs><g transform="translate(0)"><path class="a" d="M106.135,170.8H98.05a.443.443,0,0,0-.443.443v6.92A2.136,2.136,0,0,0,99.74,180.3h4.7a2.136,2.136,0,0,0,2.133-2.133v-6.92A.443.443,0,0,0,106.135,170.8Zm-5.107,6.828a.544.544,0,0,1-1.089,0v-4.16a.544.544,0,0,1,1.089,0Zm3.218,0a.544.544,0,1,1-1.089,0v-4.16a.544.544,0,0,1,1.089,0Z" transform="translate(-97.154 -167.128)"/><path class="a" d="M85.081.689h-1.93V.522A.522.522,0,0,0,82.63,0H80.336a.522.522,0,0,0-.522.522V.689h-1.93a1.342,1.342,0,0,0-1.34,1.34v.859a.278.278,0,0,0,.278.278h9.321a.278.278,0,0,0,.278-.278V2.029A1.342,1.342,0,0,0,85.081.689Z" transform="translate(-76.544 0)"/></g></svg>