<svg xmlns="http://www.w3.org/2000/svg" xmlns:xlink="http://www.w3.org/1999/xlink" width="28" height="27" viewBox="0 0 28 27"><defs><style>.a{fill:url(#a);}.b{fill:url(#b);}.c{fill:#eb8686;}</style><linearGradient id="a" x1="0.147" y1="0.853" x2="0.853" y2="0.147" gradientUnits="objectBoundingBox"><stop offset="0" stop-color="#f9dea7"/><stop offset="1" stop-color="#fbebca"/></linearGradient><linearGradient id="b" x1="0.147" y1="0.853" x2="0.853" y2="0.147" gradientUnits="objectBoundingBox"><stop offset="0" stop-color="#f6d084"/><stop offset="1" stop-color="#fae4b9"/></linearGradient></defs><g transform="translate(0.112 0.148)"><ellipse class="a" cx="14" cy="13.5" rx="14" ry="13.5" transform="translate(-0.112 -0.148)"/><circle class="b" cx="11" cy="11" r="11" transform="translate(1.888 1.852)"/><path class="c" d="M201.023,106.345h-2.115a1.322,1.322,0,0,1,0-2.644h2.644a.794.794,0,0,1,.793.793.793.793,0,0,0,1.586,0,2.382,2.382,0,0,0-2.38-2.38h-.793v-1.322a.793.793,0,0,0-1.586,0v1.322h-.264a2.908,2.908,0,1,0,0,5.817h2.115a1.322,1.322,0,1,1,0,2.644H198.38a.794.794,0,0,1-.793-.793.793.793,0,0,0-1.586,0,2.382,2.382,0,0,0,2.38,2.38h.793v1.322a.793.793,0,1,0,1.586,0v-1.322h.264a2.908,2.908,0,0,0,0-5.817Z" transform="translate(-186.878 -94.114)"/></g></svg>