<svg xmlns="http://www.w3.org/2000/svg" width="9.532" height="8.826" viewBox="0 0 9.532 8.826"><defs><style>.a{fill:#81e1ba;}</style></defs><g transform="translate(-250.595 -47.6)"><g transform="translate(255.361 47.6)"><g transform="translate(0 0)"><path class="a" d="M122.408,4.171,118.326.1a.342.342,0,1,0-.483.484l3.839,3.828-3.839,3.828a.342.342,0,0,0,.483.484l4.082-4.071a.342.342,0,0,0,0-.484Z" transform="translate(-117.742 0)"/></g></g><g transform="translate(250.595 47.6)"><g transform="translate(0 0)"><path class="a" d="M122.408,4.171,118.326.1a.342.342,0,1,0-.483.484l3.839,3.828-3.839,3.828a.342.342,0,0,0,.483.484l4.082-4.071a.342.342,0,0,0,0-.484Z" transform="translate(-117.742 0)"/></g></g></g></svg>