<svg xmlns="http://www.w3.org/2000/svg" width="43.524" height="43.524" viewBox="0 0 43.524 43.524"><defs><style>.a{fill:#f0f0f0;}.b{fill:#d80027;}.c{fill:#ff9811;}</style></defs><ellipse class="a" cx="21.762" cy="21.762" rx="21.762" ry="21.762" transform="translate(0 0)"/><path class="b" d="M35.575,0A20.963,20.963,0,0,0,15.923,13.667h39.3A20.963,20.963,0,0,0,35.575,0Z" transform="translate(-13.814 0.806)"/><path d="M35.575,358.71a20.963,20.963,0,0,0,19.652-13.667h-39.3A20.963,20.963,0,0,0,35.575,358.71Z" transform="translate(-13.814 -315.993)"/><path class="c" d="M181.533,207.735h-5.467a1.822,1.822,0,1,0-3.644,0h-5.467a1.875,1.875,0,0,0,1.883,1.822h-.061a1.822,1.822,0,0,0,1.822,1.822,1.822,1.822,0,0,0,1.822,1.822h3.644a1.822,1.822,0,0,0,1.822-1.822,1.822,1.822,0,0,0,1.822-1.822h-.061A1.875,1.875,0,0,0,181.533,207.735Z" transform="translate(-152.482 -188.252)"/></svg>