<svg xmlns="http://www.w3.org/2000/svg" width="43.524" height="43.524" viewBox="0 0 43.524 43.524"><defs><style>.a{fill:#c42126;}.b{fill:#e7e7e7;}.c{fill:#dc3027;}.d{fill:#f3f4f5;}.e{fill:#e73625;}.f{fill:#283991;}.g{fill:#efefef;}</style></defs><g transform="translate(0.09)"><rect class="a" width="43.33" height="0.001" transform="translate(0.008 23.798)"/><rect class="a" width="38.814" height="0.001" transform="translate(2.265 11.918)"/><rect class="a" width="41.9" height="0.001" transform="translate(0.722 15.877)"/><path class="a" d="M101.779,431.346h0Z" transform="translate(-92.516 -391.711)"/><path class="a" d="M224.261,0c-.427,0-.852.015-1.272.04h2.545C225.113.015,224.689,0,224.261,0Z" transform="translate(-202.589)"/><rect class="a" width="43.343" height="0.001" transform="translate(0 19.837)"/></g><path class="b" d="M290.337,47.484h10.392a21.871,21.871,0,0,0-4.258-3.959h-7.8A20.685,20.685,0,0,1,290.337,47.484Z" transform="translate(-262.143 -39.526)"/><path class="c" d="M247.556,4.39h7.8A21.642,21.642,0,0,0,244.066.43h-.67C245.37.678,246.277,2.139,247.556,4.39Z" transform="translate(-221.032 -0.39)"/><path class="b" d="M331.439,133.669a21.618,21.618,0,0,0-1.543-3.959H317.94c.242,1.271.433,2.6.575,3.959Z" transform="translate(-288.726 -117.792)"/><path class="c" d="M300.872,90.571H313.5a21.773,21.773,0,0,0-2.583-3.959h-11.03A34.941,34.941,0,0,1,300.872,90.571Z" transform="translate(-272.331 -78.654)"/><path class="b" d="M329.178,219.852h13.179c.063-.67.1-1.348.1-2.034,0-.649-.034-1.29-.09-1.925H329.181C329.224,217.21,329.223,218.536,329.178,219.852Z" transform="translate(-298.931 -196.056)"/><path class="c" d="M332.355,176.761a21.676,21.676,0,0,0-.722-3.959H318.154c.135,1.3.225,2.623.268,3.959Z" transform="translate(-288.92 -156.924)"/><path class="b" d="M315.465,306.034H327.59a21.588,21.588,0,0,0,1.569-3.959H316.051C315.907,303.437,315.711,304.765,315.465,306.034Z" transform="translate(-286.478 -274.319)"/><path class="c" d="M334.821,262.947a21.633,21.633,0,0,0,.745-3.959h-13.59c-.046,1.337-.138,2.663-.277,3.959Z" transform="translate(-292.14 -235.191)"/><path class="b" d="M296.882,392.22a21.891,21.891,0,0,0,4.321-3.959h-10.21a20.231,20.231,0,0,1-1.7,3.959Z" transform="translate(-262.709 -352.585)"/><g transform="translate(20.841 31.716)"><path class="c" d="M303.625,349.126H314.22a21.8,21.8,0,0,0,2.619-3.959H304.624A34.461,34.461,0,0,1,303.625,349.126Z" transform="translate(-296.568 -345.167)"/><path class="c" d="M226.95,473.462l-.132,0Z" transform="translate(-226.818 -461.669)"/><path class="c" d="M236.837,435.248a21.661,21.661,0,0,0,12.409-3.888H241.37C239.972,433.768,239.05,435.248,236.837,435.248Z" transform="translate(-235.916 -423.44)"/></g><path class="a" d="M229.044,473.524c-.264,0-.527-.006-.789-.015C228.52,473.518,228.782,473.524,229.044,473.524Z" transform="translate(-207.282 -430)"/><path class="d" d="M76.053,43.525H58.005a21.874,21.874,0,0,0-4.258,3.959H77.723A20.687,20.687,0,0,0,76.053,43.525Z" transform="translate(-48.809 -39.526)"/><path class="e" d="M100.092,4.39H118.14c-1.279-2.25-2.906-3.711-4.88-3.96h-1.875A21.639,21.639,0,0,0,100.092,4.39Z" transform="translate(-90.895 -0.39)"/><path class="d" d="M8.835,133.669H38.5c-.142-1.36-.333-2.688-.575-3.959H10.378A21.614,21.614,0,0,0,8.835,133.669Z" transform="translate(-8.023 -117.792)"/><path class="e" d="M28.22,86.609a21.789,21.789,0,0,0-2.583,3.959H53.182a34.893,34.893,0,0,0-.986-3.959Z" transform="translate(-23.282 -78.651)"/><path class="d" d="M0,217.821c0,.686.036,1.365.1,2.034H30.743c.045-1.316.046-2.642,0-3.959H.092C.036,216.531,0,217.172,0,217.821Z" transform="translate(-0.002 -196.058)"/><path class="e" d="M.978,176.761H31.632c-.044-1.336-.133-2.662-.268-3.959H1.7A21.648,21.648,0,0,0,.978,176.761Z" transform="translate(-0.888 -156.924)"/><path class="d" d="M38.8,302.072H9.175a21.6,21.6,0,0,0,1.569,3.959H38.21C38.456,304.762,38.652,303.434,38.8,302.072Z" transform="translate(-8.332 -274.316)"/><path class="e" d="M1.813,262.947H31.435c.138-1.3.23-2.622.277-3.959H1.068A21.654,21.654,0,0,0,1.813,262.947Z" transform="translate(-0.97 -235.191)"/><path class="d" d="M59.074,392.22H76.9a20.214,20.214,0,0,0,1.7-3.959H54.753A21.878,21.878,0,0,0,59.074,392.22Z" transform="translate(-49.722 -352.585)"/><g transform="translate(2.412 31.716)"><path class="e" d="M26.254,345.166a21.8,21.8,0,0,0,2.619,3.959H52.722a34.517,34.517,0,0,0,1-3.959Z" transform="translate(-26.254 -345.166)"/><path class="e" d="M113.281,435.227l.132,0c.262.009.524.015.789.015,2.213,0,4.018-1.48,5.416-3.888H101.793A21.648,21.648,0,0,0,113.281,435.227Z" transform="translate(-94.852 -423.439)"/></g><path class="f" d="M22.227.123A21.756,21.756,0,0,0,1.008,19.913h21.22V.123Z" transform="translate(-0.916 -0.112)"/><g transform="translate(0.732 1.508)"><path class="g" d="M33.5,134.187l.332,1.021H34.9l-.869.631.332,1.022-.869-.632-.868.632.331-1.022-.869-.631h1.074Z" transform="translate(-29.875 -123.365)"/><path class="g" d="M33.5,173.438l.332,1.021H34.9l-.869.631.332,1.022-.869-.632-.868.632.331-1.022-.869-.631h1.074Z" transform="translate(-29.875 -159.01)"/><path class="g" d="M72.751,75.3l.332,1.021h1.074l-.869.632.332,1.021-.868-.631-.869.631.332-1.021-.869-.632h1.074Z" transform="translate(-65.522 -69.885)"/><path class="g" d="M72.751,114.554l.332,1.021h1.074l-.869.631.332,1.022-.868-.631-.869.631.332-1.022-.869-.631h1.074Z" transform="translate(-65.522 -105.536)"/><path class="g" d="M72.751,153.812l.332,1.022h1.074l-.869.63.332,1.022-.868-.632-.869.632.332-1.022-.869-.63h1.074Z" transform="translate(-65.522 -141.187)"/><path class="g" d="M8.854,165.842l-.332-1.022.869-.631H8.318l-.024-.075c-.118.365-.224.734-.323,1.107l.015-.011Z" transform="translate(-7.971 -150.543)"/><path class="g" d="M37.194,97.6l.868-.632.869.632L38.6,96.578l.869-.632H38.393l-.332-1.021-.332,1.021h-.4c-.074.111-.145.223-.216.336l.407.3Z" transform="translate(-34.44 -87.712)"/><path class="g" d="M78.055,48.174l.868.631-.332-1.021.868-.632h-.62q-.79.591-1.523,1.25l-.131.4Z" transform="translate(-70.826 -44.328)"/><path class="g" d="M116.452,27.821l.869-.632.868.632-.332-1.022.868-.631h-1.074l-.045-.137c-.364.186-.724.379-1.076.585l.252.183Z" transform="translate(-106.484 -25.147)"/><path class="g" d="M112.01,55.671l.332,1.021h1.074l-.869.632.332,1.022-.868-.632-.869.632.332-1.022-.869-.632h1.074Z" transform="translate(-101.173 -52.064)"/><path class="g" d="M112.01,94.929l.332,1.021h1.074l-.869.632.332,1.022-.868-.632-.869.632.332-1.022-.869-.632h1.074Z" transform="translate(-101.173 -87.715)"/><path class="g" d="M112.01,134.187l.332,1.021h1.074l-.869.631.332,1.022-.868-.632-.869.632.332-1.022-.869-.631h1.074Z" transform="translate(-101.173 -123.365)"/><path class="g" d="M112.01,173.438l.332,1.021h1.074l-.869.631.332,1.022-.868-.632-.869.632.332-1.022-.869-.631h1.074Z" transform="translate(-101.173 -159.01)"/><path class="g" d="M151.268,36.038l.332,1.021h1.074l-.868.632.331,1.021-.868-.631-.869.631.332-1.021-.869-.632h1.074Z" transform="translate(-136.824 -34.235)"/><path class="g" d="M151.268,75.3l.332,1.021h1.074l-.868.632.331,1.021-.868-.631-.869.631.332-1.021-.869-.632h1.074Z" transform="translate(-136.824 -69.885)"/><path class="g" d="M151.268,114.554l.332,1.021h1.074l-.868.631.331,1.022-.868-.631-.869.631.332-1.022-.869-.631h1.074Z" transform="translate(-136.824 -105.536)"/><path class="g" d="M151.268,153.812l.332,1.022h1.074l-.868.63.331,1.022-.868-.632-.869.632.332-1.022-.869-.63h1.074Z" transform="translate(-136.824 -141.187)"/><path class="g" d="M190.526,16.413l.332,1.021h1.074l-.869.631.332,1.022-.868-.632-.869.632.332-1.022-.869-.631h1.074Z" transform="translate(-172.475 -16.413)"/><path class="g" d="M190.526,55.671l.332,1.021h1.074l-.869.632.332,1.022-.868-.632-.869.632.332-1.022-.869-.632h1.074Z" transform="translate(-172.475 -52.064)"/><path class="g" d="M190.526,94.929l.332,1.021h1.074l-.869.632.332,1.022-.868-.632-.869.632.332-1.022-.869-.632h1.074Z" transform="translate(-172.475 -87.715)"/><path class="g" d="M190.526,134.187l.332,1.021h1.074l-.869.631.332,1.022-.868-.632-.869.632.332-1.022-.869-.631h1.074Z" transform="translate(-172.475 -123.365)"/><path class="g" d="M190.526,173.438l.332,1.021h1.074l-.869.631.332,1.022-.868-.632-.869.632.332-1.022-.869-.631h1.074Z" transform="translate(-172.475 -159.01)"/></g></svg>