<svg xmlns="http://www.w3.org/2000/svg" xmlns:xlink="http://www.w3.org/1999/xlink" width="29.806" height="29.806" viewBox="0 0 29.806 29.806"><defs><style>.a{fill:url(#a);}</style><linearGradient id="a" x1="0.875" y1="0.074" x2="0" y2="0.93" gradientUnits="objectBoundingBox"><stop offset="0" stop-color="#7ad0ea"/><stop offset="1" stop-color="#81e1ba"/></linearGradient></defs><path class="a" d="M29.806,16.91V12.9c-2.05-.729-3.346-.934-4-2.507h0c-.654-1.578.124-2.65,1.052-4.6L24.023,2.946C22.084,3.867,21,4.653,19.419,4h0c-1.576-.653-1.782-1.957-2.507-4H12.9c-.723,2.031-.93,3.343-2.507,4h0c-1.578.656-2.648-.122-4.6-1.052L2.946,5.784C3.871,7.731,4.653,8.806,4,10.387S2.031,12.173,0,12.9V16.91c2.027.72,3.343.93,4,2.507s-.142,2.69-1.052,4.6L5.784,26.86c1.94-.923,3.023-1.708,4.6-1.052h0c1.577.653,1.783,1.961,2.507,4H16.91c.723-2.032.931-3.341,2.517-4h0c1.567-.651,2.633.125,4.593,1.057l2.838-2.839c-.924-1.941-1.708-3.022-1.053-4.6s1.972-1.788,4-2.51ZM14.9,19.871A4.968,4.968,0,1,1,19.871,14.9,4.968,4.968,0,0,1,14.9,19.871Z"/></svg>