<svg xmlns="http://www.w3.org/2000/svg" width="35.815" height="35.816" viewBox="0 0 35.815 35.816"><defs><style>.a{fill:#59c36a;}.b{fill:#00a66c;}.c{fill:#ffda2d;}.d{fill:#4086f4;}.e{fill:#4175df;}.f{fill:#ff641a;}.g{fill:#f03800;}</style></defs><path class="a" d="M63.283,306.171A17.709,17.709,0,0,1,36.4,301.617l1.163-5.36,5.154-.957a9.51,9.51,0,0,0,9.045,6.695,9.308,9.308,0,0,0,5.54-1.8l4.953.755Z" transform="translate(-33.854 -274.643)"/><path class="b" d="M267.521,371.181l-1.028-5.225-4.953-.756A9.308,9.308,0,0,1,256,367v8.464A17.881,17.881,0,0,0,267.521,371.181Z" transform="translate(-238.092 -339.654)"/><g transform="translate(0 8.842)"><path class="c" d="M8.464,135.466a9.78,9.78,0,0,0,.4,2.749l-6.317,6.317a17.412,17.412,0,0,1,0-18.132l5.07.873,1.247,5.444A9.778,9.778,0,0,0,8.464,135.466Z" transform="translate(0 -126.4)"/></g><path class="d" d="M259.957,200.2a17.88,17.88,0,0,1-6.387,13.62l-5.981-5.981a9.286,9.286,0,0,0,2.917-3.442h-8.457A1.039,1.039,0,0,1,241,203.345v-6.3A1.039,1.039,0,0,1,242.049,196h16.565a1.037,1.037,0,0,1,1.028.86,17.8,17.8,0,0,1,.315,3.337Z" transform="translate(-224.142 -182.289)"/><path class="e" d="M264.457,204.394a9.287,9.287,0,0,1-2.917,3.442l5.981,5.981a17.736,17.736,0,0,0,6.072-16.956,1.037,1.037,0,0,0-1.028-.86H256v8.394Z" transform="translate(-238.092 -182.289)"/><path class="f" d="M63.576,5a1.059,1.059,0,0,1-.294.776l-4.491,4.47a1.028,1.028,0,0,1-1.364.1,9.387,9.387,0,0,0-5.666-1.889,9.51,9.51,0,0,0-9.045,6.694L36.4,8.842A17.7,17.7,0,0,1,63.2,4.225,1.1,1.1,0,0,1,63.576,5Z" transform="translate(-33.854 0)"/><path class="g" d="M261.666,10.353a1.028,1.028,0,0,0,1.364-.1l4.491-4.47A1.059,1.059,0,0,0,267.815,5a1.1,1.1,0,0,0-.378-.776A17.854,17.854,0,0,0,256,0V8.464A9.386,9.386,0,0,1,261.666,10.353Z" transform="translate(-238.092 0)"/></svg>