<svg xmlns="http://www.w3.org/2000/svg" width="18.49" height="18.49" viewBox="0 0 18.49 18.49"><defs><style>.a{stroke:#fff;stroke-width:0.5px;}</style></defs><path class="a" d="M8.991,0a8.992,8.992,0,0,0-7.8,13.466l-1.158,3.6a.7.7,0,0,0,.884.884l3.6-1.158A8.991,8.991,0,1,0,8.991,0Zm0,16.577a7.564,7.564,0,0,1-4.015-1.149.7.7,0,0,0-.588-.073l-2.6.836.836-2.6a.7.7,0,0,0-.073-.588,7.586,7.586,0,1,1,6.437,3.571Zm.878-7.586a.878.878,0,1,1-.878-.878A.878.878,0,0,1,9.869,8.991Zm3.512,0a.878.878,0,1,1-.878-.878A.878.878,0,0,1,13.381,8.991Zm-7.024,0a.878.878,0,1,1-.878-.878A.878.878,0,0,1,6.357,8.991Zm0,0" transform="translate(0.258 0.25)"/></svg>