<svg xmlns="http://www.w3.org/2000/svg" width="18.13" height="19.239" viewBox="0 0 18.13 19.239"><defs><style>.a{fill:#81e1ba;stroke:#81e1ba;stroke-width:0.2px;}</style></defs><g transform="translate(0.1 0.1)"><path class="a" d="M12.965,4.131a1.107,1.107,0,0,1,.838.376l6.724,7.564a1.12,1.12,0,0,1,.283.745v5.872a2.244,2.244,0,0,1-2.241,2.241H15.207V17.567a2.241,2.241,0,1,0-4.483,0v3.362H7.362a2.244,2.244,0,0,1-2.241-2.241V12.816a1.12,1.12,0,0,1,.283-.745l6.724-7.564a1.107,1.107,0,0,1,.838-.376m0-1.121a2.232,2.232,0,0,0-1.675.752L4.566,11.327A2.241,2.241,0,0,0,4,12.816v5.872A3.362,3.362,0,0,0,7.362,22.05h3.362a1.121,1.121,0,0,0,1.121-1.121V17.567a1.121,1.121,0,0,1,2.241,0v3.362a1.121,1.121,0,0,0,1.121,1.121h3.362a3.362,3.362,0,0,0,3.362-3.362V12.816a2.241,2.241,0,0,0-.566-1.489L14.64,3.763A2.232,2.232,0,0,0,12.965,3.01Z" transform="translate(-4 -3.01)"/></g></svg>