<?xml version="1.0" encoding="utf-8"?>
<!-- Generator: Adobe Illustrator 25.4.1, SVG Export Plug-In . SVG Version: 6.00 Build 0)  -->
<svg version="1.1" id="Layer_1" xmlns="http://www.w3.org/2000/svg" xmlns:xlink="http://www.w3.org/1999/xlink" x="0px" y="0px"
	 width="323px" height="294.2px" viewBox="0 0 323 294.2" style="enable-background:new 0 0 323 294.2;" xml:space="preserve">
<style type="text/css">
	.st0{enable-background:new    ;}
	.st1{fill:#717379;}
	.st2{fill:#D2D2D2;}
	.st3{fill:#62D2A4;}
	.st4{opacity:0.3;fill:#D2D2D2;enable-background:new    ;}
	.st5{opacity:0.58;}
	.st6{opacity:0.4;fill:#62D2A4;enable-background:new    ;}
</style>
<g class="st0">
	<path class="st1" d="M38.4,184.3V98.8h19.3c5.1,0,9.7,1.3,13.8,4c3.5,2.3,6,5.8,7.5,10.6c0.8,2.5,1.2,5.6,1.2,9.1
		c0,5.7-1.5,10.3-4.6,13.8c-1.3,1.5-2.8,2.6-4.5,3.3c2.9,1.1,5.3,3.3,7.3,6.5c1.3,2.2,2.3,5,2.9,8.5c0.3,1.8,0.5,3.8,0.5,5.9
		c0,5.4-1,10-3.1,13.8c-1.6,3-3.8,5.3-6.8,7.1c-3.3,2-6.5,3-9.7,3H38.4z M52.3,133.7h5.4c4,0,6.7-2,8-5.9c0.5-1.5,0.8-3.2,0.8-5.4
		c0-3.5-0.9-6.2-2.6-8c-1.6-1.7-3.7-2.5-6.2-2.5h-5.4V133.7z M52.3,171.5h5.4c4.4,0,7.4-2.2,9.1-6.8c0.6-1.5,0.9-3.3,0.9-5.3
		c0-4.8-0.9-8.2-2.7-10.4c-1.6-2-4-3-7.2-3h-5.4V171.5z"/>
	<path class="st1" d="M115.5,184.3h-12.9V98.9h12.9V184.3z"/>
	<path class="st1" d="M177.1,163.8c0,5.6-2,10.5-5.9,14.5c-4,4-8.7,6-14.3,6h-20.2V98.8h20.2c5.6,0,10.4,2,14.4,6
		c3.9,4,5.9,8.8,5.9,14.4V163.8z M149.5,171.5h7.8c2,0,3.8-0.7,5.2-2.2c1.4-1.5,2.1-3.2,2.1-5.2v-44.7c0-2-0.7-3.8-2.1-5.2
		c-1.4-1.5-3.1-2.2-5.1-2.2h-7.8V171.5z"/>
</g>
<g class="st0">
	<path class="st1" d="M245.8,97.9c5.7,0,10.6,2,14.6,6.1c4,4,6,8.9,6,14.6v47.1c0,5.7-2,10.6-6.1,14.6c-4,4-8.9,6-14.6,6
		c-5.7,0-10.6-2-14.6-6.1c-4-4-6-8.9-6-14.6v-47.1c0-5.7,2-10.6,6.1-14.6C235.3,99.9,240.2,97.9,245.8,97.9z M252.9,118.3
		c0-2.1-0.7-3.8-2.2-5.3c-1.4-1.4-3.2-2.2-5.3-2.2c-2.1,0-3.8,0.7-5.3,2.2c-1.5,1.4-2.2,3.2-2.2,5.3v47.3c0,2.1,0.7,3.8,2.2,5.3
		c1.5,1.4,3.2,2.2,5.3,2.2c2.1,0,3.8-0.7,5.3-2.2c1.4-1.4,2.2-3.2,2.2-5.3V118.3z"/>
</g>
<g class="st0">
	<path class="st2" d="M39.2,211.3v5.1h5.6v1.7h-5.6v5.3h6.2v1.7h-8.2v-15.4h8.2v1.7H39.2z"/>
	<path class="st2" d="M49.7,215.7c0.5-0.9,1.2-1.7,2.1-2.2c0.9-0.5,1.8-0.8,2.9-0.8c1.1,0,2,0.2,2.8,0.7c0.8,0.5,1.4,1,1.7,1.7V213
		h2V225h-2v-2.2c-0.4,0.7-1,1.3-1.8,1.7s-1.7,0.7-2.7,0.7c-1.1,0-2-0.3-2.9-0.8c-0.9-0.5-1.5-1.3-2-2.2c-0.5-1-0.7-2-0.7-3.3
		C49,217.7,49.2,216.6,49.7,215.7z M58.7,216.6c-0.4-0.7-0.9-1.2-1.5-1.6c-0.6-0.4-1.3-0.5-2.1-0.5s-1.4,0.2-2,0.5
		c-0.6,0.4-1.1,0.9-1.5,1.5c-0.4,0.7-0.5,1.5-0.5,2.4c0,0.9,0.2,1.7,0.5,2.4c0.4,0.7,0.9,1.2,1.5,1.6c0.6,0.4,1.3,0.5,2,0.5
		s1.4-0.2,2.1-0.5c0.6-0.4,1.1-0.9,1.5-1.6c0.4-0.7,0.5-1.5,0.5-2.4S59,217.3,58.7,216.6z"/>
	<path class="st2" d="M67.7,224.7c-0.7-0.3-1.3-0.8-1.7-1.3s-0.7-1.2-0.7-1.9h2.1c0.1,0.6,0.3,1.1,0.8,1.5c0.5,0.4,1.2,0.6,2,0.6
		c0.8,0,1.4-0.2,1.8-0.5c0.4-0.3,0.7-0.8,0.7-1.3c0-0.5-0.2-0.9-0.7-1.2c-0.5-0.3-1.2-0.5-2.2-0.8c-0.9-0.2-1.6-0.5-2.2-0.7
		c-0.6-0.2-1-0.6-1.5-1.1s-0.6-1.1-0.6-1.9c0-0.6,0.2-1.2,0.6-1.7c0.4-0.5,0.9-0.9,1.6-1.2c0.7-0.3,1.4-0.5,2.3-0.5
		c1.3,0,2.4,0.3,3.2,1c0.8,0.7,1.3,1.6,1.3,2.8h-2c0-0.6-0.3-1.1-0.8-1.5c-0.5-0.4-1.1-0.6-1.9-0.6c-0.7,0-1.3,0.2-1.7,0.5
		c-0.4,0.3-0.6,0.7-0.6,1.2c0,0.4,0.1,0.7,0.4,1c0.3,0.3,0.6,0.5,1,0.6s0.9,0.3,1.6,0.5c0.9,0.2,1.6,0.5,2.1,0.7s1,0.6,1.4,1
		c0.4,0.5,0.6,1,0.6,1.8c0,0.7-0.2,1.3-0.5,1.8c-0.4,0.5-0.9,0.9-1.6,1.2c-0.7,0.3-1.4,0.5-2.3,0.5
		C69.3,225.2,68.4,225.1,67.7,224.7z"/>
	<path class="st2" d="M89.1,213l-7.3,17.7h-2.1l2.4-5.8L77.3,213h2.2l3.8,9.8L87,213H89.1z"/>
	<path class="st2" d="M108.7,210.6c1.2,0.6,2.2,1.5,2.8,2.7c0.7,1.2,1,2.5,1,4.1s-0.3,2.9-1,4.1c-0.7,1.2-1.6,2-2.8,2.6
		s-2.7,0.9-4.3,0.9h-4.8v-15.3h4.8C106,209.7,107.4,210,108.7,210.6z M108.9,221.8c1-1,1.6-2.5,1.6-4.4c0-1.9-0.5-3.4-1.6-4.5
		c-1-1.1-2.6-1.6-4.5-1.6h-2.8v12.1h2.8C106.3,223.4,107.8,222.8,108.9,221.8z"/>
	<path class="st2" d="M127.3,219.7h-9.6c0.1,1.2,0.5,2.1,1.2,2.8c0.7,0.7,1.6,1,2.7,1c0.9,0,1.6-0.2,2.2-0.6c0.6-0.4,1-0.9,1.2-1.6
		h2.2c-0.3,1.2-1,2.1-1.9,2.8c-1,0.7-2.2,1.1-3.6,1.1c-1.1,0-2.2-0.3-3.1-0.8c-0.9-0.5-1.6-1.2-2.1-2.2c-0.5-0.9-0.8-2-0.8-3.3
		s0.2-2.3,0.7-3.3s1.2-1.7,2.1-2.2s1.9-0.8,3.1-0.8c1.1,0,2.2,0.2,3,0.7c0.9,0.5,1.6,1.2,2,2.1c0.5,0.9,0.7,1.9,0.7,3
		C127.4,218.9,127.4,219.3,127.3,219.7z M124.8,216.1c-0.3-0.5-0.8-1-1.4-1.3c-0.6-0.3-1.2-0.4-1.9-0.4c-1,0-1.9,0.3-2.6,1
		s-1.1,1.5-1.2,2.7h7.6C125.3,217.3,125.2,216.7,124.8,216.1z"/>
	<path class="st2" d="M131.3,215.7c0.5-0.9,1.2-1.7,2.1-2.2c0.9-0.5,1.8-0.8,2.9-0.8c1.1,0,2,0.2,2.8,0.7c0.8,0.5,1.4,1,1.7,1.7V213
		h2V225h-2v-2.2c-0.4,0.7-1,1.3-1.8,1.7s-1.7,0.7-2.7,0.7c-1.1,0-2-0.3-2.9-0.8c-0.9-0.5-1.5-1.3-2-2.2c-0.5-1-0.7-2-0.7-3.3
		C130.6,217.7,130.8,216.6,131.3,215.7z M140.3,216.6c-0.4-0.7-0.9-1.2-1.5-1.6c-0.6-0.4-1.3-0.5-2.1-0.5s-1.4,0.2-2,0.5
		c-0.6,0.4-1.1,0.9-1.5,1.5c-0.4,0.7-0.5,1.5-0.5,2.4c0,0.9,0.2,1.7,0.5,2.4c0.4,0.7,0.9,1.2,1.5,1.6c0.6,0.4,1.3,0.5,2,0.5
		s1.4-0.2,2.1-0.5c0.6-0.4,1.1-0.9,1.5-1.6c0.4-0.7,0.5-1.5,0.5-2.4S140.6,217.3,140.3,216.6z"/>
	<path class="st2" d="M149.5,208.7V225h-2v-16.3H149.5z"/>
	<path class="st2" d="M156,224.7c-0.7-0.3-1.3-0.8-1.7-1.3s-0.7-1.2-0.7-1.9h2.1c0.1,0.6,0.3,1.1,0.8,1.5c0.5,0.4,1.2,0.6,2,0.6
		c0.8,0,1.4-0.2,1.8-0.5c0.4-0.3,0.7-0.8,0.7-1.3c0-0.5-0.2-0.9-0.7-1.2c-0.5-0.3-1.2-0.5-2.2-0.8c-0.9-0.2-1.6-0.5-2.2-0.7
		c-0.6-0.2-1-0.6-1.5-1.1s-0.6-1.1-0.6-1.9c0-0.6,0.2-1.2,0.6-1.7c0.4-0.5,0.9-0.9,1.6-1.2c0.7-0.3,1.4-0.5,2.3-0.5
		c1.3,0,2.4,0.3,3.2,1c0.8,0.7,1.3,1.6,1.3,2.8h-2c0-0.6-0.3-1.1-0.8-1.5c-0.5-0.4-1.1-0.6-1.9-0.6c-0.7,0-1.3,0.2-1.7,0.5
		c-0.4,0.3-0.6,0.7-0.6,1.2c0,0.4,0.1,0.7,0.4,1c0.3,0.3,0.6,0.5,1,0.6s0.9,0.3,1.6,0.5c0.9,0.2,1.6,0.5,2.1,0.7s1,0.6,1.4,1
		c0.4,0.5,0.6,1,0.6,1.8c0,0.7-0.2,1.3-0.5,1.8c-0.4,0.5-0.9,0.9-1.6,1.2c-0.7,0.3-1.4,0.5-2.3,0.5
		C157.6,225.2,156.7,225.1,156,224.7z"/>
</g>
<rect id="Rectangle_17016" x="191.9" y="65.3" class="st3" width="18" height="162.4"/>
<rect id="Rectangle_17018" x="172.6" y="62.9" class="st3" width="56.5" height="20.5"/>
<path id="Rectangle_17019" class="st3" d="M168.4,56.9h10.2l0,0v33.7l0,0h-10.2c-1.7,0-3-1.3-3-3V59.9
	C165.4,58.2,166.7,56.9,168.4,56.9z"/>
<path id="Rectangle_17020" class="st3" d="M223.1,56.9h12.6c1.7,0,3,1.3,3,3v27.7c0,1.7-1.3,3-3,3h-12.6l0,0V56.9L223.1,56.9z"/>
<rect id="Rectangle_17272" x="223.1" y="213.2" class="st4" width="45.7" height="14.4"/>
<g class="st5">
	<path class="st6" d="M135.2,274.9c-1.3-3.6-5.3-5.5-9-4.2l-7.2,2.6c-3.6,1.3-5.5,5.3-4.2,9l2.6,7.2c1.3,3.6,5.3,5.5,9,4.2l7.2-2.6
		c3.6-1.3,5.5-5.3,4.2-9L135.2,274.9z"/>
	<path class="st6" d="M304.8,247.3c-1.3-3.6-5.3-5.5-9-4.2l-7.2,2.6c-3.6,1.3-5.5,5.3-4.2,9l2.6,7.2c1.3,3.6,5.3,5.5,9,4.2l7.2-2.6
		c3.6-1.3,5.5-5.3,4.2-9L304.8,247.3z"/>
	<path class="st6" d="M262.2,11c-0.5-2.7-3-4.5-5.8-4l-6.7,1.2c-2.7,0.5-4.5,3-4.1,5.8l1.2,6.7c0.5,2.7,3,4.5,5.8,4.1l6.7-1.2
		c2.7-0.5,4.5-3,4-5.8L262.2,11z"/>
	<path class="st6" d="M147.4,3l-7.2-2.6c-3.6-1.3-7.6,0.6-9,4.2l-2.6,7.2c-1.3,3.6,0.6,7.6,4.2,9l7.2,2.6c3.6,1.3,7.6-0.6,9-4.2
		l2.6-7.2C152.9,8.4,151,4.4,147.4,3z"/>
	<path class="st6" d="M15.3,86.1l3.4-5.9c1.4-2.4,0.6-5.4-1.8-6.8L10.9,70c-2.4-1.4-5.4-0.6-6.8,1.8l-3.4,5.9
		c-1.4,2.4-0.6,5.4,1.8,6.8L8.4,88C10.8,89.3,13.9,88.5,15.3,86.1z"/>
	<path class="st6" d="M26,164.4l-3.6-1.3l1.3-3.6c0.2-0.6-0.1-1.2-0.7-1.4c-0.6-0.2-1.2,0.1-1.4,0.7l-1.3,3.6l-3.6-1.3
		c-0.6-0.2-1.2,0.1-1.4,0.7c-0.2,0.6,0.1,1.2,0.7,1.4l3.6,1.3l-1.3,3.6c-0.2,0.6,0.1,1.2,0.7,1.4c0.6,0.2,1.2-0.1,1.4-0.7l1.3-3.6
		l3.6,1.3c0.6,0.2,1.2-0.1,1.4-0.7C26.9,165.2,26.6,164.6,26,164.4z"/>
	<path class="st6" d="M321.1,127.6h-6.5V121c0-1-0.8-1.9-1.9-1.9s-1.9,0.8-1.9,1.9v6.5h-6.5c-1,0-1.9,0.8-1.9,1.9
		c0,1,0.8,1.9,1.9,1.9h6.5v6.5c0,1,0.8,1.9,1.9,1.9s1.9-0.8,1.9-1.9v-6.5h6.5c1,0,1.9-0.8,1.9-1.9
		C323,128.4,322.2,127.6,321.1,127.6z"/>
	<path class="st6" d="M24.4,253.1h-5v-5c0,0,0-0.1,0-0.1c0-0.8-0.7-1.4-1.5-1.4s-1.4,0.7-1.4,1.5v5h-5l0,0c0,0-0.1,0-0.1,0
		c-0.8,0-1.4,0.7-1.4,1.5c0,0.8,0.7,1.4,1.5,1.4h5v5c0,0,0,0.1,0,0.1c0,0.8,0.7,1.4,1.5,1.4s1.4-0.7,1.4-1.5v-5h5c0,0,0.1,0,0.1,0
		c0.8,0,1.4-0.7,1.4-1.5S25.2,253.1,24.4,253.1z"/>
	<path class="st6" d="M61.3,24.1h-6.5v-6.5c0-1-0.8-1.9-1.9-1.9c-1,0-1.9,0.8-1.9,1.9v6.5h-6.5c-1,0-1.9,0.8-1.9,1.9
		c0,1,0.8,1.9,1.9,1.9h6.5v6.5c0,1,0.8,1.9,1.9,1.9c1,0,1.9-0.8,1.9-1.9v-6.5h6.5c1,0,1.9-0.8,1.9-1.9
		C63.1,24.9,62.3,24.1,61.3,24.1z"/>
</g>
</svg>
