<svg xmlns="http://www.w3.org/2000/svg" width="24.91" height="24.908" viewBox="0 0 24.91 24.908"><defs><style>.a{fill:#575f64;}.b{fill:#f7f0eb;}.c{fill:#e1d3ce;}.d{fill:#ffe06a;}.e{fill:#ff6c6c;}.f{fill:#d0004f;}</style></defs><g transform="translate(0)"><path class="a" d="M134.065,384.533l-3.036-3.036-3.045,3.148,2.985,2.984a.73.73,0,0,0,1.032,0l2.064-2.064A.73.73,0,0,0,134.065,384.533Z" transform="translate(-121.757 -362.936)"/><path class="b" d="M88.915,78.881,85.75,75.716l-4.339-4.339L79.67,71.1a20.007,20.007,0,0,1-4.985,9.465l.892,2.352L77.065,84.4l1.3,1.3L80.9,86.781A20.006,20.006,0,0,1,90.369,81.8Z" transform="translate(-71.051 -67.638)"/><path class="c" d="M127.436,177.106a20.006,20.006,0,0,1,9.465-4.985l-1.454-2.914-3.165-3.165-8.685,8.685,1.3,1.3Z" transform="translate(-117.582 -157.963)"/><g transform="translate(14.644)"><path class="d" d="M301.686,4.457a.729.729,0,0,1-.73-.73V.759a.73.73,0,0,1,1.46,0V3.727A.729.729,0,0,1,301.686,4.457Z" transform="translate(-300.956 -0.029)"/><path class="d" d="M361.354,5.845a.73.73,0,0,1-.327-.979l1.46-2.919a.73.73,0,0,1,1.169-.19l.743.743L365.455.438a.73.73,0,1,1,1.306.653l-1.508,2.968a.731.731,0,0,1-.536.394.724.724,0,0,1-.633-.2l-.743-.743-1.007,2.014a.73.73,0,0,1-.979.326Z" transform="translate(-358.031 -0.035)"/><path class="d" d="M394.044,123.04l-.948-1.145-.893.893a.73.73,0,0,1-1.032-1.032l1.46-1.46a.744.744,0,0,1,.55-.213.732.732,0,0,1,.528.264l.9,1.083.946-1.132a.73.73,0,1,1,1.125.931l-1.508,1.811A.73.73,0,0,1,394.044,123.04Z" transform="translate(-386.577 -114.195)"/></g><path class="e" d="M190.235,29.094l-5.677-5.677-5.677-5.677a.73.73,0,0,0-1.224.339c-.123.493-.427,1.706-.513,2.053l5.35,5.35,5.35,5.35,2.053-.513A.73.73,0,0,0,190.235,29.094Z" transform="translate(-168.525 -16.674)"/><path class="f" d="M294.49,145.513a.73.73,0,0,0,.339-1.224l-5.677-5.677-2.064,2.064,5.349,5.349Z" transform="translate(-273.119 -131.869)"/><path class="e" d="M6.743,268.731l-3.11-3.11c-.127.134-.246.273-.377.4l-2.19,2.19a3.654,3.654,0,0,0,0,5.161l.516.516.516.516a3.646,3.646,0,0,0,5.16,0l2.191-2.19c.13-.13.269-.25.4-.377l-3.11-3.11Z" transform="translate(0 -252.698)"/><path class="f" d="M38.21,335.208l2.191-2.19c.13-.13.269-.25.4-.377l-3.11-3.11-5.161,5.161.516.516A3.646,3.646,0,0,0,38.21,335.208Z" transform="translate(-30.951 -313.498)"/></g></svg>