<?xml version="1.0" encoding="utf-8"?>
<!-- Generator: Adobe Illustrator 25.4.1, SVG Export Plug-In . SVG Version: 6.00 Build 0)  -->
<svg version="1.1" id="Layer_1" xmlns="http://www.w3.org/2000/svg" xmlns:xlink="http://www.w3.org/1999/xlink" x="0px" y="0px"
	 width="21.2px" height="23.3px" viewBox="0 0 21.2 23.3" style="enable-background:new 0 0 21.2 23.3;" xml:space="preserve">
<style type="text/css">
	.st0{fill:#FE9F00;}
	.st1{fill:#FEC007;}
</style>
<g>
	<path class="st0" d="M6.4,19.4c0-0.4,0-0.4,0.4-0.4c2.7,0,5.3,0,8,0c0,0.9-0.3,1.7-0.8,2.4c-1,1.4-2.7,2.1-4.3,1.7
		c-1.7-0.4-3-1.7-3.3-3.4C6.4,19.6,6.4,19.5,6.4,19.4z"/>
	<path class="st1" d="M21.2,17.2c0-0.6-0.2-1-0.6-1.5c-1.4-1.2-2.2-2.6-2.4-4.4c-0.1-0.4-0.1-0.8-0.1-1.2c0-1.1,0-2.1,0-3.2
		C18,5.4,17.5,4,16.5,2.8c-1.1-1.4-2.6-2.3-4.3-2.7C11.6,0,11.1,0,10.6,0c-0.5,0-1,0-1.6,0.1C7.3,0.5,5.8,1.4,4.7,2.8
		C3.7,4,3.2,5.4,3.1,6.9c0,1.1,0,2.1,0,3.2c0,0.4,0,0.8-0.1,1.2c-0.2,1.8-1,3.2-2.4,4.4C0.2,16.2,0,16.6,0,17.2c0,0.2,0,0.4,0.1,0.6
		C0.4,18.5,1,19,1.8,19c0,0,0.1,0,0.2,0c1.3,0,15.2,0,17.3,0c0.1,0,0.1,0,0.2,0c0.8,0,1.4-0.5,1.7-1.2
		C21.2,17.6,21.2,17.4,21.2,17.2z"/>
</g>
</svg>
