<svg xmlns="http://www.w3.org/2000/svg" width="17.975" height="25.165" viewBox="0 0 17.975 25.165"><defs><style>.a{fill:#fab400;}.b{fill:#dc9600;}.c{fill:#60daa8;}.d{fill:#41b686;}.e{fill:#f0c8a0;}.f{fill:#d2aa82;}.g{fill:#fff;}</style></defs><path class="a" d="M12.9,34h5.393a.9.9,0,0,1,.9.9V45.684H12V34.9A.9.9,0,0,1,12.9,34Z" transform="translate(-12 -20.518)"/><path class="b" d="M25.8,43.586l-1.666,1.666a.449.449,0,0,0,.318.767H25.8Z" transform="translate(-18.608 -25.797)"/><path class="c" d="M36.133,16H26.247a.449.449,0,0,0-.449.449v11.5l-1.666,1.666a.449.449,0,0,0,.318.767H36.133a.449.449,0,0,0,.449-.449V16.449A.449.449,0,0,0,36.133,16Z" transform="translate(-18.608 -10.607)"/><path class="d" d="M28,16.449v5.779a1.794,1.794,0,0,0,1.348-1.734V17.8a.9.9,0,0,0-.9-.9V16A.449.449,0,0,0,28,16.449Z" transform="translate(-20.81 -10.607)"/><path class="e" d="M14,28h5.393v2.725H14Z" transform="translate(-13.101 -17.215)"/><path class="f" d="M12,20h7.19v3.6a.9.9,0,0,1-.9.9H13.8A1.8,1.8,0,0,1,12,22.7Z" transform="translate(-12 -12.81)"/><g transform="translate(0 0)"><rect class="e" width="1.996" height="2.995" rx="0.998" transform="translate(0 5.2)"/><rect class="e" width="1.996" height="3.993" rx="0.998" transform="translate(1.996 4.201)"/><rect class="e" width="0.998" height="3.993" rx="0.499" transform="translate(3.993 4.201)"/><path class="e" d="M25.8,10.291V4.9a.9.9,0,0,0-1.8,0v5.393Z" transform="translate(-18.607 -4)"/></g><path class="f" d="M12.449,17.247V15.9a.9.9,0,0,1,.674-.87A.9.9,0,0,0,12,15.9v1.348a.9.9,0,0,0,1.123.87.9.9,0,0,1-.674-.87Z" transform="translate(-12 -10.056)"/><path class="f" d="M16.449,16.7V14.9a.9.9,0,0,1,.674-.87A.9.9,0,0,0,16,14.9v1.8a.9.9,0,0,0,1.123.87.9.9,0,0,1-.674-.87Z" transform="translate(-14.202 -9.506)"/><path class="f" d="M20.449,16.145V13.9a.9.9,0,0,1,.674-.87A.9.9,0,0,0,20,13.9v2.247a.9.9,0,0,0,1.123.87.9.9,0,0,1-.674-.87Z" transform="translate(-16.405 -8.955)"/><path class="f" d="M24.449,10.291V4.9a.9.9,0,0,1,.674-.87A.9.9,0,0,0,24,4.9v5.393Z" transform="translate(-18.607 -3.999)"/><path class="e" d="M24.7,18H22.449a.453.453,0,0,0-.449.46A1.348,1.348,0,0,0,23.348,19.8H23.8A1.8,1.8,0,0,0,22,21.6v1.8h1.8a1.8,1.8,0,0,0,1.8-1.8V18.9A.9.9,0,0,0,24.7,18Z" transform="translate(-17.506 -11.708)"/><path class="f" d="M23.8,19.348A1.348,1.348,0,0,1,22.449,18a.449.449,0,0,0-.449.449A1.348,1.348,0,0,0,23.348,19.8H24.7v-.449Z" transform="translate(-17.506 -11.708)"/><rect class="g" width="1.855" height="7.42" rx="0.928" transform="translate(12.049 7.586)"/><ellipse class="g" cx="0.928" cy="0.928" rx="0.928" ry="0.928" transform="translate(12.049 15.934)"/></svg>