<svg xmlns="http://www.w3.org/2000/svg" width="19.846" height="19.847" viewBox="0 0 19.846 19.847"><defs><style>.a{fill:#88b337;}.b{fill:#dadddf;}.c{fill:#cfd2d4;}.d{fill:#b6b8ba;}.e{fill:#6b962a;}</style></defs><path class="a" d="M300.665,295.652l-4.073-4.073-.171.171a.724.724,0,0,1-1.024-1.024l.171-.171-1.024-1.024-3.414,3.414,1.024,1.024.171-.171a.724.724,0,0,1,1.024,1.024l-.171.171,4.073,4.073a2.41,2.41,0,0,0,.407.325l3.332-3.332A2.453,2.453,0,0,0,300.665,295.652Zm0,0" transform="translate(-281.526 -279.97)"/><path class="b" d="M492.137,487.207l-3.332,3.332a2.411,2.411,0,0,0,3.332-3.332Zm0,0" transform="translate(-472.674 -471.117)"/><path class="c" d="M5.745,2.782,5.4,1.416,3.014.051,1.648,1.416l1.366,2.39,1.366.341L12.233,12,13.6,10.635Zm0,0" transform="translate(-1.605 -0.049)"/><path class="b" d="M20.069,2.848,17.794,5.123,15.746,4.44l-.683-2.049L17.337.117a3.74,3.74,0,0,0-4.548,4.548L5.045,12.409A3.777,3.777,0,1,0,7.777,15.14L15.52,7.4a3.742,3.742,0,0,0,4.548-4.548ZM5.162,17.755H3.113L2.089,16.048l1.024-1.707H5.162l1.024,1.707Zm0,0" transform="translate(-0.338 0)"/><path class="d" d="M180.41,186.339l7.511-7.511.483.483-7.511,7.511Zm0,0" transform="translate(-174.463 -172.922)"/><path class="e" d="M407.867,406.768l.483-.483,3.414,3.414-.483.483Zm0,0" transform="translate(-394.409 -392.868)"/><path class="c" d="M561.3,488.507a2.409,2.409,0,0,0-.382-1.3l-.983.983v2.489A2.413,2.413,0,0,0,561.3,488.507Zm0,0" transform="translate(-541.454 -471.117)"/></svg>