<svg xmlns="http://www.w3.org/2000/svg" width="17.999" height="23.389" viewBox="0 0 17.999 23.389"><defs><style>.a{fill:#dbdbdb;}</style></defs><g transform="translate(-59)"><g transform="translate(59 14.161)"><path class="a" d="M76.085,319.228a.914.914,0,0,1-.914-.914,6.494,6.494,0,0,0-6.487-6.487h-1.37a6.494,6.494,0,0,0-6.487,6.487.914.914,0,0,1-1.827,0A8.323,8.323,0,0,1,67.314,310h1.37A8.323,8.323,0,0,1,77,318.314.914.914,0,0,1,76.085,319.228Z" transform="translate(-59 -310)"/></g><g transform="translate(61.741)"><path class="a" d="M125.167,12.334a6.167,6.167,0,1,1,6.167-6.167A6.174,6.174,0,0,1,125.167,12.334Zm0-10.507a4.34,4.34,0,1,0,4.34,4.34A4.345,4.345,0,0,0,125.167,1.827Z" transform="translate(-119)"/></g></g></svg>