<svg xmlns="http://www.w3.org/2000/svg" width="24.293" height="18.22" viewBox="0 0 24.293 18.22"><defs><style>.a{fill:#dadada;}</style></defs><g transform="translate(0 -68.887)"><path class="a" d="M12.147,68.887A12.9,12.9,0,0,0,.041,77.752a.762.762,0,0,0,0,.491,12.9,12.9,0,0,0,12.106,8.865,12.9,12.9,0,0,0,12.106-8.865.762.762,0,0,0,0-.491,12.9,12.9,0,0,0-12.106-8.865Zm0,16.7A11.371,11.371,0,0,1,1.564,78a11.371,11.371,0,0,1,10.582-7.592A11.371,11.371,0,0,1,22.729,78,11.371,11.371,0,0,1,12.147,85.589Z" transform="translate(0 0)"/><path class="a" d="M176.779,172.224a4.555,4.555,0,1,0,4.555,4.555A4.56,4.56,0,0,0,176.779,172.224Zm0,7.592a3.037,3.037,0,1,1,3.037-3.037A3.04,3.04,0,0,1,176.779,179.816Z" transform="translate(-164.632 -98.782)"/></g></svg>