<?xml version="1.0" encoding="utf-8"?>
<!-- Generator: Adobe Illustrator 25.4.1, SVG Export Plug-In . SVG Version: 6.00 Build 0)  -->
<svg version="1.1" id="Layer_1" xmlns="http://www.w3.org/2000/svg" xmlns:xlink="http://www.w3.org/1999/xlink" x="0px" y="0px"
	 width="123.7px" height="123.7px" viewBox="0 0 123.7 123.7" style="enable-background:new 0 0 123.7 123.7;" xml:space="preserve"
	>
<style type="text/css">
	.st0{fill-rule:evenodd;clip-rule:evenodd;fill:#F2F2F2;}
</style>
<path id="rating_star_gray" class="st0" d="M123.4,47.4c-0.8-2.5-3-4.3-5.7-4.5L82,39.6L67.9,6.5c-1.4-3.3-5.3-4.9-8.6-3.5
	c-1.6,0.7-2.8,1.9-3.5,3.5L41.7,39.6L6,42.8C2.3,43.2-0.3,46.4,0,50c0.2,1.7,0.9,3.2,2.2,4.3l27,23.7l-7.9,35.1
	c-0.8,3.5,1.4,7.1,4.9,7.9c1.7,0.4,3.4,0.1,4.9-0.8l30.8-18.4l30.8,18.4c3.1,1.9,7.2,0.9,9-2.3c0.9-1.5,1.1-3.2,0.8-4.8l-8-35.1
	l27-23.7C123.5,52.6,124.2,49.9,123.4,47.4L123.4,47.4L123.4,47.4z"/>
</svg>
