<svg xmlns="http://www.w3.org/2000/svg" xmlns:xlink="http://www.w3.org/1999/xlink" width="82" height="83" viewBox="0 0 82 83"><defs><style>.a{fill:url(#a);}.b{fill:#fff;}</style><linearGradient id="a" x1="0.018" x2="1.562" y2="1.567" gradientUnits="objectBoundingBox"><stop offset="0" stop-color="#b81ca1"/><stop offset="0.488" stop-color="#f36768"/><stop offset="0.615" stop-color="#f8d00f"/><stop offset="1" stop-color="#8f1cba"/></linearGradient></defs><g transform="translate(-0.459 -0.276)"><rect class="a" width="82" height="83" rx="12" transform="translate(0.459 0.276)"/><g transform="translate(19.211 19.446)"><path class="b" d="M87.891-161.336a2.592,2.592,0,0,0-2.592,2.592,2.593,2.593,0,0,0,2.592,2.595,2.593,2.593,0,0,0,2.592-2.595,2.592,2.592,0,0,0-2.592-2.592" transform="translate(-54.076 169.231)"/><path class="b" d="M85.941-141.75a6.985,6.985,0,0,1-6.975-6.977,6.983,6.983,0,0,1,6.975-6.974,6.982,6.982,0,0,1,6.975,6.974A6.984,6.984,0,0,1,85.941-141.75Zm0-17.866a10.9,10.9,0,0,0-10.889,10.89,10.9,10.9,0,0,0,10.889,10.89,10.9,10.9,0,0,0,10.889-10.89,10.9,10.9,0,0,0-10.889-10.89" transform="translate(-63.651 170.837)"/><path class="b" d="M82.44-161.257a9.131,9.131,0,0,0-9.122,9.123v17.655a9.131,9.131,0,0,0,9.122,9.12h17.654a9.131,9.131,0,0,0,9.122-9.12v-17.655a9.132,9.132,0,0,0-9.122-9.123ZM100.094-121.2H82.44a13.3,13.3,0,0,1-13.282-13.281v-17.655A13.3,13.3,0,0,1,82.44-165.417h17.654a13.3,13.3,0,0,1,13.282,13.283v17.655A13.3,13.3,0,0,1,100.094-121.2" transform="translate(-69.158 165.417)"/></g></g></svg>