<svg xmlns="http://www.w3.org/2000/svg" xmlns:xlink="http://www.w3.org/1999/xlink" width="82" height="83" viewBox="0 0 82 83"><defs><style>.a{fill:url(#a);}.b{fill:#fff;}</style><linearGradient id="a" x1="0.018" x2="1" y2="1" gradientUnits="objectBoundingBox"><stop offset="0" stop-color="#ffdd0d"/><stop offset="1" stop-color="#e3cb51"/></linearGradient></defs><g transform="translate(-0.459 0.47)"><rect class="a" width="82" height="83" rx="12" transform="translate(0.459 -0.47)"/><path class="b" d="M11.41-76.387v-.686a1.813,1.813,0,0,1,1.035-.693c3.6-.714,6.007-3.008,7.823-6.021,1.527-2.532,1.282-3.111-1.532-4.108l-.484-.168a6.024,6.024,0,0,1-1.712-.953c-1.26-1.095-.515-2.673.971-3.031,1.086-.262,2.032.438,3.086.568.7.088.986-.149.9-.9a36.023,36.023,0,0,1-.126-5.815,9.843,9.843,0,0,1,5.075-8.345,12.81,12.81,0,0,1,13.738-.041,9.8,9.8,0,0,1,5.053,7.541,33.612,33.612,0,0,1-.018,6.582c-.074.953.121,1.128,1.062.907,1.169-.274,2.15-.877,3.365-.343a1.85,1.85,0,0,1,1.2,1.611,1.781,1.781,0,0,1-.662,1.254,6.845,6.845,0,0,1-1.975,1.037c-.528.214-1.078.38-1.593.621-1.062.5-1.369,1.156-.871,2.207,1.722,3.641,4.253,6.4,8.345,7.363a1.96,1.96,0,0,1,1.2.726v.686a3.165,3.165,0,0,1-1.87,1.536,8.6,8.6,0,0,1-2.464.7,1.875,1.875,0,0,0-1.991,1.829c-.173,1.174-.526,1.34-1.724,1.245-.284-.024-.566-.075-.846-.124a7.614,7.614,0,0,0-6.477,1.377,13.648,13.648,0,0,1-1.2.822,8.985,8.985,0,0,1-10.085.377c-.935-.546-1.823-1.177-2.731-1.768a6.008,6.008,0,0,0-2.461-.9,15.792,15.792,0,0,0-4.171.257c-.712.078-1.4-.125-1.44-.861-.1-1.776-1.184-2.208-2.676-2.373a7.582,7.582,0,0,1-2.037-.632,2.991,2.991,0,0,1-1.707-1.479" transform="translate(7.652 129.136)"/></g></svg>