<svg xmlns="http://www.w3.org/2000/svg" width="85" height="83" viewBox="0 0 85 83"><defs><style>.a{fill:#e51a46;}.b{fill:#fff;fill-rule:evenodd;}</style></defs><g transform="translate(-0.237 -0.276)"><rect class="a" width="85" height="83" rx="12" transform="translate(0.237 0.276)"/><path class="b" d="M199.664-133.777l-.108.371c-1.767,6.92-1.962,8.46-3.779,11.675a36.148,36.148,0,0,1-2.919,4.359l-.48.312c-.266-.06-.287-.3-.317-.51a37.287,37.287,0,0,1-.379-6.337c.092-2.768.434-3.716,4-18.711l-.081-.623a10.549,10.549,0,0,1-.276-7.01c1.613-5.115,7.411-5.505,8.427-1.285.623,2.61-1.03,6.026-2.3,11.073-1.049,4.166,3.855,7.129,8.045,4.088,3.865-2.8,5.367-9.525,5.08-14.288-.561-9.5-10.975-11.55-17.584-8.492-7.573,3.5-9.295,12.892-5.877,17.183.434.545.77.878.626,1.431-.22.862-.415,1.727-.653,2.581a.911.911,0,0,1-1.35.6,7.721,7.721,0,0,1-3.163-2.369c-2.906-3.594-3.735-10.71.1-16.73,4.256-6.674,12.168-9.373,19.394-8.555,8.628.981,14.084,6.879,15.1,13.567.466,3.047.133,10.563-4.145,15.873-4.923,6.1-12.9,6.505-16.578,2.759a12.251,12.251,0,0,1-.789-.965" transform="translate(-160.106 182.981)"/></g></svg>