<svg xmlns="http://www.w3.org/2000/svg" xmlns:xlink="http://www.w3.org/1999/xlink" width="85" height="83" viewBox="0 0 85 83"><defs><style>.a{fill:url(#a);}.b{fill:#fff;fill-rule:evenodd;}</style><linearGradient id="a" x1="0.018" x2="1" y2="1" gradientUnits="objectBoundingBox"><stop offset="0" stop-color="#4860c9"/><stop offset="1" stop-color="#5d73d2"/></linearGradient></defs><g transform="translate(0.064 -0.276)"><rect class="a" width="85" height="83" rx="12" transform="translate(-0.064 0.276)"/><path class="b" d="M22.393-144.251v19.72a.515.515,0,0,0,.513.515H30.23a.515.515,0,0,0,.514-.515V-144.57h5.309a.513.513,0,0,0,.511-.473l.51-6.037a.514.514,0,0,0-.511-.557H30.744v-4.283a1.816,1.816,0,0,1,1.818-1.817h4.092a.515.515,0,0,0,.513-.515v-6.037a.515.515,0,0,0-.513-.515H29.74a7.347,7.347,0,0,0-7.346,7.346v5.821H18.731a.515.515,0,0,0-.513.515v6.037a.515.515,0,0,0,.513.515h3.662v.319" transform="translate(14.877 186.284)"/></g></svg>