<svg xmlns="http://www.w3.org/2000/svg" width="82" height="83" viewBox="0 0 82 83"><defs><style>.a{fill:#7798f3;}.b{fill:#fff;}</style></defs><g transform="translate(-0.347 -0.276)"><rect class="a" width="82" height="83" rx="12" transform="translate(0.347 0.276)"/><path class="b" d="M169.224-158.472a17.849,17.849,0,0,1-4.372,1.247c.7-.119,1.735-1.393,2.149-1.906a8.033,8.033,0,0,0,1.453-2.648l-.011-.228-.233.022A22.345,22.345,0,0,1,163.028-160l-.358-.095-.453-.461a9.111,9.111,0,0,0-2.51-1.54,8.737,8.737,0,0,0-3.849-.621,9.22,9.22,0,0,0-3.654,1.033,9.379,9.379,0,0,0-2.946,2.407,9.057,9.057,0,0,0-1.762,3.524,9.557,9.557,0,0,0-.092,3.722l-.179.209c-7.119-1.06-13.019-3.608-17.81-9.064-.208-.236-.321-.236-.491.019-2.1,3.142-1.079,8.189,1.539,10.669.349.331.707.661,1.095.965a9.1,9.1,0,0,1-3.437-.965l-.33.179a5.46,5.46,0,0,0,.056,1.022,9.137,9.137,0,0,0,5.629,7.281,5.36,5.36,0,0,0,1.141.347,10.135,10.135,0,0,1-3.37.106c-.246-.049-.34.076-.246.312,1.482,4.042,4.684,5.245,7.081,5.931.321.054.643.054.963.13l-.056.057c-.8,1.212-3.552,2.114-4.837,2.564a17.356,17.356,0,0,1-7.345.941c-.395-.06-.478-.054-.584,0l.112.263c.5.331,1.011.623,1.53.905a24.165,24.165,0,0,0,4.91,1.965c8.824,2.437,18.764.648,25.389-5.936,5.2-5.169,7.026-12.3,7.026-19.438,0-.279.331-.431.526-.58a17.05,17.05,0,0,0,3.456-3.594,1.083,1.083,0,0,0,.23-.686v-.038h-.179" transform="translate(-105.31 186.505)"/></g></svg>