<svg xmlns="http://www.w3.org/2000/svg" width="82" height="83" viewBox="0 0 82 83"><defs><style>.a{fill:#264c9e;}.b{fill:#fff;}</style></defs><g transform="translate(-0.42 0.47)"><rect class="a" width="82" height="83" rx="12" transform="translate(0.42 -0.47)"/><g transform="translate(25.501 22.931)"><path class="b" d="M18.766-50.3a3.905,3.905,0,0,1,3.9,3.9,3.907,3.907,0,0,1-3.9,3.905A3.908,3.908,0,0,1,14.857-46.4a3.906,3.906,0,0,1,3.909-3.9M15.393-39.533h6.744V-17.87H15.393V-39.533" transform="translate(-14.857 50.3)"/><path class="b" d="M21.3-44.035h6.46v2.962h.088a7.079,7.079,0,0,1,6.376-3.5c6.818,0,8.075,4.485,8.075,10.319v11.883H35.569V-32.9c0-2.514-.049-5.744-3.5-5.744-3.506,0-4.04,2.737-4.04,5.561v10.716H21.3V-44.035" transform="translate(-9.794 54.801)"/></g></g></svg>