<svg xmlns="http://www.w3.org/2000/svg" xmlns:xlink="http://www.w3.org/1999/xlink" width="82" height="83" viewBox="0 0 82 83"><defs><style>.a{fill:url(#a);}.b{fill:#fff;}</style><linearGradient id="a" x1="0.018" x2="1" y2="1" gradientUnits="objectBoundingBox"><stop offset="0" stop-color="#fe5555"/><stop offset="1" stop-color="#e15026"/></linearGradient></defs><g transform="translate(-0.347 0.47)"><rect class="a" width="82" height="83" rx="12" transform="translate(0.347 -0.47)"/><path class="b" d="M93.585-89.642l-9.209,5.116c-.362.22-1.588-.074-1.588-.535v-10.5c0-.467,1.237-.76,1.6-.529L93.2-90.705C93.571-90.47,93.959-89.869,93.585-89.642Zm12.078-6.17c0-4.981-3.6-9.019-8.032-9.019H77.095c-4.436,0-8.031,4.038-8.031,9.019v10.733c0,4.981,3.6,9.019,8.031,9.019H97.631c4.437,0,8.032-4.038,8.032-9.019V-95.812" transform="translate(-45.558 131.421)"/></g></svg>