<svg xmlns="http://www.w3.org/2000/svg" width="134.268" height="79.469" viewBox="0 0 134.268 79.469"><defs><style>.a,.b{fill-rule:evenodd;}.b{fill:#b7007c;}</style></defs><path class="a" d="M24.916,119.691H23.637v-3.223H20.785v3.223H19.508v-7.022h1.277v2.967h2.852v-2.967h1.278ZM30.79,117.1c0,1.716-.808,2.706-2.436,2.706-1.68,0-2.437-.989-2.437-2.716,0-1.988,1.025-2.719,2.437-2.719s2.436.731,2.436,2.719Zm-2.425,1.983c.7,0,1.2-.636,1.2-1.992,0-1.478-.584-2-1.215-2s-1.216.531-1.216,2c0,1.435.52,1.992,1.216,1.992ZM32,113.332h1.193v1.159h1.27v.728h-1.27v2.565c0,.872.279,1.271.74,1.271a1.346,1.346,0,0,0,.746-.267l.235.72a2.908,2.908,0,0,1-1.232.3c-1.028,0-1.683-.458-1.683-1.762v-2.828h-.7v-.728H32Zm4.589,3.968c.07,1.392.618,1.842,1.241,1.842a1.163,1.163,0,0,0,1.111-.819l1.26.071a2.22,2.22,0,0,1-.751.955,2.7,2.7,0,0,1-1.627.459,2.456,2.456,0,0,1-1.788-.621,2.863,2.863,0,0,1-.684-2.132,2.8,2.8,0,0,1,.713-2.073,2.436,2.436,0,0,1,1.744-.608,2.257,2.257,0,0,1,1.664.632,3.252,3.252,0,0,1,.732,2.3H36.591Zm2.371-.586c-.1-1.1-.567-1.675-1.16-1.675s-1.134.413-1.212,1.675Zm2.284,2.976v-7.106h1.238v7.106Zm15.407-5.575a1.166,1.166,0,0,0-1.166-.748,1.506,1.506,0,0,0-.9.277.73.73,0,0,0-.277.594.92.92,0,0,0,.49.8,7.193,7.193,0,0,0,1.318.617,5.936,5.936,0,0,1,1.409.754,1.716,1.716,0,0,1,.626,1.332,1.794,1.794,0,0,1-.647,1.388,3.1,3.1,0,0,1-2.071.7c-1.61,0-2.386-.681-2.623-1.585l1.3-.09a1.345,1.345,0,0,0,1.334.838,1.552,1.552,0,0,0,1.06-.383.961.961,0,0,0,.3-.705.941.941,0,0,0-.422-.8,10.213,10.213,0,0,0-1.267-.624,5.474,5.474,0,0,1-1.468-.8,1.684,1.684,0,0,1-.658-1.353,1.491,1.491,0,0,1,.6-1.241,3.034,3.034,0,0,1,1.939-.556,2.164,2.164,0,0,1,2.385,1.525l-1.267.061Zm2.782-.784h1.193v1.159H61.9v.728h-1.27v2.565c0,.872.279,1.271.74,1.271a1.346,1.346,0,0,0,.746-.267l.235.72a2.908,2.908,0,0,1-1.232.3c-1.028,0-1.683-.458-1.683-1.762v-2.828h-.7v-.728h.7v-1.158Zm4.7,1.159V117.7a1.832,1.832,0,0,0,.175.988.68.68,0,0,0,.579.245,1.6,1.6,0,0,0,.7-.183,2.342,2.342,0,0,0,.646-.528v-3.728h1.191v5.2h-1.19l.015-.649H66.2a3.842,3.842,0,0,1-.675.5,2.346,2.346,0,0,1-1.076.263,1.483,1.483,0,0,1-1.151-.416,1.974,1.974,0,0,1-.36-1.32v-3.582Zm4.717-1.159h1.193v1.159h1.27v.728h-1.27v2.565c0,.872.279,1.271.74,1.271a1.346,1.346,0,0,0,.746-.267l.235.72a2.9,2.9,0,0,1-1.231.3c-1.029,0-1.683-.458-1.683-1.762v-2.828h-.7v-.728h.7v-1.158h0Zm3.889,0h1.193v1.159H75.2v.728h-1.27v2.565c0,.872.278,1.271.74,1.271a1.346,1.346,0,0,0,.746-.267l.235.72a2.9,2.9,0,0,1-1.232.3c-1.029,0-1.683-.458-1.683-1.762v-2.828h-.7v-.728h.7v-1.159h0Zm6.993,1.159h1.2v4.947a3.177,3.177,0,0,1-.568,2.161,2.3,2.3,0,0,1-1.776.646,2.792,2.792,0,0,1-1.465-.364,2.188,2.188,0,0,1-.908-1.1l1.24-.1a1,1,0,0,0,.392.623,1.153,1.153,0,0,0,.727.208,1.071,1.071,0,0,0,.856-.4,2.844,2.844,0,0,0,.3-1.542v-.239h-.019a2.027,2.027,0,0,1-1.367.475c-1.442,0-2.246-.972-2.246-2.721,0-1.721.771-2.714,2.283-2.714a1.887,1.887,0,0,1,1.339.5h.024l-.014-.383Zm-2.4,2.63c0,1.156.471,1.856,1.257,1.856a1.515,1.515,0,0,0,1.142-.551v-2.674a1.392,1.392,0,0,0-1.115-.546c-.955,0-1.283.742-1.283,1.9v.011h0Zm7.95,2.57a.663.663,0,0,1-.131-.365h-.022a2.324,2.324,0,0,1-1.458.482c-1.258,0-1.828-.542-1.828-1.454,0-1.034.778-1.708,3.259-2.016v-.179c0-.7-.216-1.12-.873-1.12a.951.951,0,0,0-.919.859l-1.221-.094a1.938,1.938,0,0,1,2.17-1.43c1.309,0,2.054.426,2.054,2v2.508c0,.431.03.636.185.75v.06H85.285Zm-.177-2.741c-1.459.206-2.025.678-2.025,1.331a.737.737,0,0,0,.847.814,1.8,1.8,0,0,0,1.177-.474ZM88.67,115a2.281,2.281,0,0,1,.485-.443,1.155,1.155,0,0,1,.609-.179,1.238,1.238,0,0,1,.36.05.983.983,0,0,1,.257.119l-.113.9a.787.787,0,0,0-.215-.145.827.827,0,0,0-.335-.067.894.894,0,0,0-.543.215,2.64,2.64,0,0,0-.52.559v3.682H87.488v-5.2h1.167l-.015.505h.031Zm3.3-1.664h1.193v1.159h1.27v.728h-1.27v2.565c0,.872.279,1.271.74,1.271a1.348,1.348,0,0,0,.746-.267l.236.72a2.9,2.9,0,0,1-1.231.3c-1.03,0-1.683-.458-1.683-1.762v-2.828h-.7v-.728h.7v-1.158h0Zm5.182,3.408v.964h-1.9v-.964Zm2.347,1-.531,1.954h-1.4l2.261-7.022h1.753l2.264,7.022h-1.4l-.54-1.954Zm1.689-2.582c-.154-.56-.306-1.1-.452-1.743h-.07c-.142.643-.3,1.2-.442,1.745l-.473,1.737h1.905l-.468-1.739Zm3.507-1.727v-.9h1.237v.9Zm1.237,6.262h-1.237v-5.2h1.237ZM108.3,115a2.281,2.281,0,0,1,.485-.443,1.157,1.157,0,0,1,.609-.179,1.231,1.231,0,0,1,.36.05.982.982,0,0,1,.257.119l-.113.9a.786.786,0,0,0-.215-.145.827.827,0,0,0-.335-.067.889.889,0,0,0-.542.215,2.663,2.663,0,0,0-.521.559v3.682h-1.167v-5.2h1.167l-.014.505h.029Zm2.374-.505h1.2l-.014.445h.027a2.388,2.388,0,0,1,.584-.4,2.081,2.081,0,0,1,.813-.16,1.8,1.8,0,0,1,1.437.617,3.2,3.2,0,0,1,.589,2.1,3.274,3.274,0,0,1-.565,2.093,1.852,1.852,0,0,1-1.483.63,1.99,1.99,0,0,1-.752-.133,2.292,2.292,0,0,1-.617-.371h-.019v2.811h-1.2Zm1.2,3.882a1.555,1.555,0,0,0,.512.461,1.209,1.209,0,0,0,.609.161.958.958,0,0,0,.794-.4,2.677,2.677,0,0,0,.3-1.492,2.916,2.916,0,0,0-.3-1.491.924.924,0,0,0-.8-.427,1.278,1.278,0,0,0-.582.14,1.6,1.6,0,0,0-.534.486Zm8.972-1.271c0,1.716-.809,2.706-2.436,2.706-1.68,0-2.438-.989-2.438-2.716,0-1.988,1.025-2.719,2.438-2.719s2.436.731,2.436,2.719Zm-2.425,1.983c.7,0,1.2-.636,1.2-1.992,0-1.478-.584-2-1.215-2s-1.218.531-1.218,2c0,1.435.521,1.992,1.218,1.992Zm4.416-4.09a2.282,2.282,0,0,1,.485-.443,1.157,1.157,0,0,1,.609-.179,1.231,1.231,0,0,1,.36.05.992.992,0,0,1,.258.119l-.115.9a.787.787,0,0,0-.215-.145.827.827,0,0,0-.335-.067.889.889,0,0,0-.542.215,2.663,2.663,0,0,0-.521.559v3.682h-1.167v-5.2h1.167l-.014.505h.029Zm3.3-1.664h1.193v1.159h1.27v.728h-1.27v2.565c0,.872.279,1.271.739,1.271a1.349,1.349,0,0,0,.748-.267l.235.72a2.9,2.9,0,0,1-1.231.3c-1.028,0-1.683-.458-1.683-1.762v-2.828h-.7v-.728h.7v-1.158Z" transform="translate(-12.188 -61.975)"/><path class="b" d="M86.279,71.733c0,.329-.133.723.131.919-.919,1.971-3.282,1.248-4.661,2.692l-.2-.2q-2.8,2.1-5.382,4.465c2.429,0,4.66-.854,6.827.72,1.707.591,3.546,2.429,3.613,4.333-.263,1.97-2.036,3.219-3.021,4.86h-.394c-4,4.465-9,6.566-13.986,8.6-2.429-.46-4.727.329-6.7-1.246a109.47,109.47,0,0,1,10.44-6.829c2.89-2.1,6.5-4.334,8.8-7.157-3.151-1.05-6.9,2.3-9.521-1.248.395-5.712,6.631-9.717,11.161-11.557A5.851,5.851,0,0,1,86.279,71.733Z" transform="translate(-22.337 -51.959)"/><path class="a" d="M20.895,49.4c.054.6,1.05,3.808-1.248,4.859l-.94.718a5.406,5.406,0,0,1-3.009.876c-1.84-.066-4.585.243-5.44-2.121a6.459,6.459,0,0,1,.592-5.383c1.115-1.183,1.838-2.166,3.545-1.97,2.3.723,5.121.461,6.5,3.021ZM57,47.828c-1.311.971-1.838,2.491-3.609,3.214l-.329.332c-1.577.394-2.365,1.706-3.94,1.969a15.759,15.759,0,0,0-2.517.6l-.175.123c-2.692.329-7.813.163-9.52.918-2.123.109-3.283,1.052-4.857,1.643-1.838,1.444-4.771,2.4-6.675,1.749-1.117,0-2.123.679-3.238.418-.723-.656-1.446-1.445-.921-2.364,1.7-1.884,1.7-1.611,1.7-1.611,3.174-3.885,8.482-6.949,14.52-5.414C43.742,51.044,51.424,50.519,57,47.828Z" transform="translate(-9.926 -46.357)"/><path class="b" d="M155.339,51.762c.066,1.38-1.245,2.167-1.575,3.415,2.692-.394,5.845-1.9,8.93-2.365,3.742-.854,7.878-2.035,11.357-1.772a51.8,51.8,0,0,0-8.272,3.742c-3.478,1.312-6.17,3.216-9.519,4.727-2.1,1.115-4.53,1.379-6.633,2.494-1.837,4.268-3.872,8.667-3.806,13.461,5.841-.066,10.9-3.611,15.821-6.106l2.692-1.248-.526.526.2.2c-1.246,1.314-3.413,2.5-4.728,4.136-2.494,1.052-4.4,3.611-6.958,4.466-1.315,1.838-3.806,1.772-5.584,1.444-3.214-1.969-5.251-5.317-4.527-8.994a31.39,31.39,0,0,1,2.364-6.434c-2.3-.263-5.055,1.181-7.223.131a2.017,2.017,0,0,1-.853-2.1,25.144,25.144,0,0,1,4.335-1.84,69.686,69.686,0,0,0,7.155-2.3c2.037-2.56,3.086-5.712,5.582-7.944,1.445-.067,1.38,1.379,1.771,2.362Z" transform="translate(-39.783 -47.075)"/><path class="b" d="M110.745,68.148c-1.445-1.772-3.35-2.3-5.45-2.559-3.908.6-6.5,2.4-9.324,5.031l-.723.943c-2.034,3.151-5.711,4.53-8.468,7.157-2.1,1.248-4.269,2.757-6.63,2.888.393-3.021,3.413-5.121,5.251-7.353,1.774-.723,3.349-3.676,5.382-2.167.264-.327.133-.853.133-1.248-.853-1.377-2.232-3.215-4.136-2.692-4.071,2.562-8.272,6.369-9.849,11.162-.655,2.364.921,4.466,2.692,5.909,5.318,1.773,9.717-2.5,13.131-6.105.985,1.444,1.577,3.151,3.217,4.136,2.3.985,4.335-.919,6.3-1.838,4.594-2.889,9.059-7.485,8.469-13.264Zm-4,4.465c-2.562,3.676-5.639,6.378-9.908,6.912-.941.122,2.161-7.789,5.706-9.891l.9-.534c.122,0,1-.294,1.855-.425l.526-.009c.327.024,1.476-.386,1.968.763a3.317,3.317,0,0,1-1.05,3.184ZM77.982,57.907s.3.052.04.184c.276.054-.566.341-.37.341a17.861,17.861,0,0,0-4.661,3.216c-.987.435-.527.863-1.314,1.257l-.545.328c-.572.741-.222.711-1.533,1.423A9.956,9.956,0,0,1,67.213,66.7a.748.748,0,0,0-.4.578l-.658.382c-.821.437-.711.712-1.7,1.26a17.763,17.763,0,0,1-3.021,2.245c-3.151,2.692-7.155,4.2-10.766,6.3-.131,10.57-.2,23.571-1.97,34.338a17.531,17.531,0,0,1-2.692,7.221c.131.918-1.052.984-.922,1.969,0-.328.134-.721-.131-.918a8.984,8.984,0,0,1-1.969,4.136c.526.985-.919,1.312-.919,2.166-.329.2-.066,1.444-.919,1.772l.2.2-.394.2c-.2-.329.46-1.116.2-1.84.2.066.261-.065.394-.132-.723-.326-.133-.72,0-1.115a12.9,12.9,0,0,0,.329-3.02,9.7,9.7,0,0,0,.917-4h.2c.788-2.627.526-5.713,1.577-8.272-.2-.722-.395-1.248.2-1.97-.329-.131-.131-.46-.2-.721h.2c.2-.657-.394-1.445.525-1.969-.065-.2-.329-.2-.525-.2.2-2.1.326-3.546.525-5.714l.525-.393c-.853-1.708.264-3.087-.131-4.858.919-.986-.329-2.824.329-3.94.131-1.706-.329-4.4.394-5.712A19.292,19.292,0,0,1,46.2,82l-.2-2.036C41.869,82,37.8,83.97,33.6,85.744c-1.772.722-3.939-.329-5.187-1.641.329-.329-.395-1.118.329-1.381a13.888,13.888,0,0,0,4.136-2.559H33.4a66.656,66.656,0,0,1,9.388-5.385l.723-.72c.459.065,1.052-.723,1.772-.723.919-1.575-.2-3.742-.329-5.58-.261-1.313-.72-3.087-2.363-3.414-2.757,3.217-6.893,5.842-9.323,9.389h0v.329c0-.2-.153.183-.219.117-.131-.047-.372.144-.175.408-1.181.787-1.772,1.97-2.888,3.087a.808.808,0,0,0-.384.718c-.788.065-.34,1.447-1.39,1.447l.2.132c-.2-.132-.437.609-.5.281l-.415.44c-2.036,3.218-5.452,5.187-6.83,8.864l-1.64,1.378c0-.131-.274.448-.471.316-.721.526-.218.834-.908,1-.59.591-.372.969-1.005,1.518a9.96,9.96,0,0,1-1.358,1.9c-.591-2.3.2-4.6.722-7.023a14.2,14.2,0,0,0,.525-1.493l.2-.15c.723-2.1,1.9-3.48,2.692-5.58.12.1.5-.726,1.05-1.6l.657-.821a111.512,111.512,0,0,1,7.287-9.265h.329A50.237,50.237,0,0,1,40.623,60.6l-.2-.2a2.834,2.834,0,0,1,3.084.919c-.395,1.312,1.248,1.05,1.444,1.97,2.429,1.642,3.744,4.727,4.661,7.549,4.53-2.1,9-4.53,13.265-6.829a1.193,1.193,0,0,0,.809-.287l.493-.218.338-.018c4.4-2.232,9.29-4.687,13.461-5.581Z" transform="translate(-11.14 -49.083)"/></svg>