<svg xmlns="http://www.w3.org/2000/svg" width="122.196" height="79.469" viewBox="0 0 122.196 79.469"><defs><style>.a{fill:#2f489a;fill-rule:evenodd;}</style></defs><path class="a" d="M109.611,70.361a7.645,7.645,0,0,1-1.523,4.646h3.2V51.629h-10.24v9.553C106.584,62.805,109.611,66.159,109.611,70.361Z" transform="translate(-36.703 -41.709)"/><path class="a" d="M63.712,56a24.885,24.885,0,0,1,6.107.925c-3.488-.58-8.889.255-11.675,2.339v11.4h10.24V57.691a13.469,13.469,0,0,1,4.92,1.883V70.66h2.223a11.409,11.409,0,0,1-9.391,3.1v.468C75.876,74.951,80,70.587,80,65.675c0-5.783-5.743-9.17-11.617-9.856V47.281H58.142v8.632C51.508,57.172,45.019,60.9,45.019,67.068c0,9.494,14.033,15.374,26.263,15.374,18.564,0,32.853-8.48,32.853-20.384,0-14.416-20.635-24.7-36.837-24.7-18.562,0-32.232,11.148-32.232,23.057,0,6.164,3.662,11.332,8.283,14.931l.348-.217a17.008,17.008,0,0,1-6.955-13.5C37.706,48.6,54.7,41.261,69.823,41.261c10.693,0,29.914,2.332,29.914,19.231,0,8.82-9.966,20.289-30.907,20.289-10.72,0-19.045-5.432-19.045-13.23C49.784,60.8,55.377,56,63.712,56ZM24.047,116.358v-1.331h3.589v-11.5H18.047v11.5h3.682v1.331H8.5v-1.331h3.364V91.582H8.5V90.249H21.728v1.333H18.047v10.394h9.589V91.582H24.047V90.249H37.135v1.333h-3.36v23.445h3.36v1.331ZM42.209,90.249H48.2v3.1H42.209Zm-2.954,26.109v-1.331h3.226V98.963H39.255V97.64h9.181v17.387h3v1.331Zm13.473,0v-1.331h3.317V88.144H52.727V86.816h9.316v28.211h3.136v1.331Zm21.79,0c-3.276,0-5.044-1.585-5.044-4.036V98.963H66.247V97.64h3.225V90.205c1.817,0,3.726.044,5.591,0V97.64H79.7v1.323H75.064v16.064h4.725v1.331Zm27.762-5.623c-.679,1.755-3.5,6.094-10.36,6.094-7.634,0-11.543-4.939-11.543-9.961,0-6.957,6.543-9.834,11.408-9.834,4.316,0,10.587,2.445,11.085,9.532A9.39,9.39,0,0,1,102.279,110.735Zm-6.5-10.1a4.115,4.115,0,0,0-4.045-2.365c-4.681,0-4.77,4.561-4.77,8.511,0,5.318.5,6.271.858,6.913a4.278,4.278,0,0,0,3.96,2.061c4.679,0,4.679-4.77,4.635-9.147-.05-4.771-.362-5.372-.637-5.973Zm23.1,15.72v-1.331h2.633V103.989c0-2.488,0-4.935-2.909-4.935a5.741,5.741,0,0,0-4.951,4.075,14.426,14.426,0,0,0-.182,3.655v8.243h3v1.331H104.3v-1.331h3.225V98.963H104.3V97.64h9.179v2.828a7.881,7.881,0,0,1,3.773-2.79,9.677,9.677,0,0,1,3.586-.69,10.229,10.229,0,0,1,2.728.349c3.821,1.069,4,3.819,4,5.792v11.9H130.7v1.331H118.886ZM98.922,78.136h-.969v-.343h2.4v.343h-.975V81.45h-.459Zm4.165,2.646h.019l1.192-2.988h.614V81.45h-.464V78.7h-.023l-1.134,2.748h-.425L101.7,78.7h-.019V81.45h-.466V77.793h.651Z" transform="translate(-8.504 -37.361)"/></svg>