<svg xmlns="http://www.w3.org/2000/svg" width="141.09" height="86.6" viewBox="0 0 141.09 86.6"><defs><style>.a{fill:#6f0024;}.a,.b,.c{fill-rule:evenodd;}.b{fill:#cea84d;}</style></defs><path class="a" d="M110.011,58.939a50.617,50.617,0,0,0-6.018-4.763V60.56a49.571,49.571,0,0,1,6.027,3.957c-.01-.93-.01-1.858-.01-2.791Zm-7.635-5.788q-3.76-1.953-7.681-3.568c0,1.2,0,2.4,0,3.6s.01,2.4.01,3.6q3.894,1.306,7.672,2.926V53.15Zm-9.488-4.227q-4.3-1.4-8.694-2.487v7.879c2.9.557,5.792,1.187,8.694,1.947V48.924ZM82.07,45.946c-3.271-.629-6.552-1.212-9.814-1.663v8.546c3.262.291,6.542.685,9.814,1.136V45.946ZM69.716,43.932c-3.686-.371-7.392-.731-11.07-.967v9.247c3.678.063,7.383.219,11.07.413V43.932Zm-14.034-1.14q-6.26-.264-12.525-.351V52.47q6.262-.228,12.525-.279v-9.4ZM39.624,42.45c-4.717.026-9.435.152-14.133.283V53.627c4.7-.368,9.416-.718,14.133-.984V42.45ZM110.021,67a50.857,50.857,0,0,0-6.027-3.6q0,1.6.01,3.193c0,1.064,0,2.128,0,3.193a54.745,54.745,0,0,1,6.018,2.787V67Zm-7.645-4.374q-3.781-1.474-7.672-2.64V67.18c2.558.57,5.1,1.233,7.672,2.006V62.625Zm-9.488-3.1c-2.9-.671-5.794-1.216-8.694-1.7v3.931c0,1.317.01,2.631.01,3.94,2.9.316,5.792.671,8.685,1.157v-7.33ZM82.07,57.529q-4.9-.557-9.814-.9v8.543c3.271.051,6.552.173,9.823.368,0-1.338-.009-2.673-.009-4.008ZM69.716,56.49q-5.533-.175-11.07-.161v4.628c0,1.541-.009,3.083-.009,4.628,3.678-.2,7.383-.334,11.079-.4V56.49Zm-14.034-.11q-6.263.183-12.525.552c0,1.672,0,3.344,0,5.013s-.01,3.34-.01,5.017q6.253-.688,12.525-1.183c0-1.567.009-3.137.009-4.7Zm-16.068.807c-4.716.368-9.425.824-14.124,1.3v10.9q7.05-1.082,14.125-2v-10.2Zm70.406,17.642A55.479,55.479,0,0,0,104,72.363v6.384c2,.443,4.011,1.021,6.018,1.659V74.828Zm-7.636-2.994q-3.809-1-7.681-1.74v7.191c2.558.291,5.1.654,7.681,1.106V71.835Zm-9.5-2.018c-2.893-.413-5.784-.684-8.685-.933v7.879c2.9.076,5.792.156,8.685.376V69.816ZM82.079,68.786q-4.909-.178-9.823-.152v8.543c3.271-.177,6.552-.329,9.823-.381v-8.01Zm-12.362-.08c-3.7.139-7.4.351-11.079.621v9.243c3.678-.447,7.383-.865,11.079-1.183V68.705Zm-14.043.882q-6.273.623-12.525,1.427V81.036q6.247-1.119,12.525-2.052v-9.4ZM39.614,71.514q-7.075,1.06-14.124,2.281V84.667q7.043-1.553,14.116-2.969V76.615c0-1.7.009-3.4.009-5.1Zm76.244-4.049a43.257,43.257,0,0,0-4.411-6.972c0,.878,0,1.761,0,2.644s.01,1.765.01,2.647a38.91,38.91,0,0,1,4.4,5.663V67.464Zm0,5.747a38.423,38.423,0,0,0-4.4-5.071v5.286a41.842,41.842,0,0,1,4.4,3.771V73.212Zm0,5.594a49.857,49.857,0,0,0-4.4-3.238v5.3c1.464.641,2.92,1.284,4.4,1.93V78.805Z" transform="translate(-13.349 -42.441)"/><path class="b" d="M122.15,51.88a15.162,15.162,0,1,1-7.931,28.074V68.49a46.955,46.955,0,0,0-5.679-8.124A15.194,15.194,0,0,1,122.15,51.88Zm29.091,37.287c-10.8,5.567-21.863,4.305-36.577-1.7-30.324-12.379-71.41-2.931-104.11,7.647-.264.088-.235.389,0,.3,31.292-9.132,67.5-14.029,97.7-1.675,19.75,8.077,32,2.962,42.984-4.246.327-.193.242-.459,0-.323Z" transform="translate(-10.367 -44.302)"/><path class="b" d="M44.021,100.264l1.061,3.382,3.544-.036-2.888,2.054,1.13,3.361-2.847-2.112-2.846,2.112,1.13-3.361-2.889-2.054,3.544.036Zm12.465,0,1.061,3.382,3.545-.036L58.2,105.664l1.13,3.361-2.847-2.112-2.847,2.112,1.13-3.361L51.88,103.61l3.544.036Zm12.465,0,1.061,3.382,3.544-.036-2.888,2.054,1.13,3.361-2.847-2.112L66.1,109.024l1.13-3.361-2.888-2.054,3.544.036Zm12.465,0,1.061,3.382,3.545-.036-2.889,2.054,1.13,3.361-2.847-2.112-2.847,2.112,1.13-3.361L76.81,103.61l3.544.036Zm12.465,0,1.061,3.382,3.545-.036-2.89,2.054,1.131,3.361-2.848-2.112-2.846,2.112,1.129-3.361-2.888-2.054,3.544.036Z" transform="translate(-16.095 -53.844)"/><path class="c" d="M64.234,131.8a6.467,6.467,0,0,1-4.669-1.635,5.879,5.879,0,0,1-1.71-4.47,8.062,8.062,0,0,1,.66-3.181,9.254,9.254,0,0,1,1.885-2.836,9.61,9.61,0,0,1,3.06-2.111,9.026,9.026,0,0,1,3.571-.742,6.506,6.506,0,0,1,4.663,1.626,5.81,5.81,0,0,1,1.72,4.422,8.312,8.312,0,0,1-.659,3.239,8.915,8.915,0,0,1-1.871,2.836,9.249,9.249,0,0,1-3.055,2.1,8.973,8.973,0,0,1-3.6.75Zm.082-.462a5.648,5.648,0,0,0,4.762-2.606,11.244,11.244,0,0,0,1.87-6.707,5.416,5.416,0,0,0-1.01-3.564,3.746,3.746,0,0,0-3.016-1.191,5.676,5.676,0,0,0-4.755,2.6,10.972,10.972,0,0,0-1.885,6.62,5.607,5.607,0,0,0,1,3.649,3.726,3.726,0,0,0,3.033,1.2ZM20.345,116.67a2,2,0,0,0-.468-.9,2.978,2.978,0,0,0-1.132-.563c-.029-.011-.077-.018-.139-.036-.552-.165-.822-.339-.822-.519a.229.229,0,0,1,.1-.215.644.644,0,0,1,.35-.067c.02,0,.284.031.787.084a11.444,11.444,0,0,0,1.482.1c.345,0,.691-.008,1.037-.028s.7-.044,1.048-.072l3.377,12.528,7.647-12.528.088,0c.853.066,1.462.1,1.83.1a10.514,10.514,0,0,0,1.419-.1c.476-.053.727-.084.749-.084a.657.657,0,0,1,.346.08.209.209,0,0,1,.125.181c0,.252-.693.51-2.086.755-.22.033-.395.064-.515.091q-.3,1.147-.526,2.313-.2,1-.323,2.012l-1,8.236c-.009.1-.029.279-.063.538q-.16,1.271-.255,2.548a7.917,7.917,0,0,1,1.529-.383l.236-.038q1.5-1.886,3.328-4.611,2.018-3.039,3.888-6.173l1.028-1.7c.169-.3.37-.64.578-1.044s.378-.613.474-.613a.132.132,0,0,1,.117.074.5.5,0,0,1,.043.205v.283l.017.773q0,.55.153,2.4t.41,4.006l.768,6.4c.11.017.259.046.454.075.932.16,1.439.328,1.534.5a.664.664,0,0,1,.4-.243,13.391,13.391,0,0,1,1.743-.329c.207-.691.4-1.334.564-1.93s.308-1.124.419-1.584l.571-2.367L48.6,117.9c-.2-.055-.465-.116-.776-.188-.585-.128-.881-.279-.881-.446a.173.173,0,0,1,.073-.163.364.364,0,0,1,.226-.05c.045,0,.159.013.333.038a19.109,19.109,0,0,0,2.594.176,17.035,17.035,0,0,0,2.41-.176c.2-.025.331-.038.385-.038a.443.443,0,0,1,.234.051.164.164,0,0,1,.09.146q0,.226-.5.367a12.629,12.629,0,0,1-1.8.283l2.642,6.4a33.544,33.544,0,0,0,2.694-3.344,19.559,19.559,0,0,0,1.8-3.059,10.145,10.145,0,0,1-1.578-.276c-.258-.084-.384-.207-.384-.357a.186.186,0,0,1,.063-.163.312.312,0,0,1,.2-.05,3.255,3.255,0,0,1,.328.038,12.431,12.431,0,0,0,4.16,0c.167-.025.265-.038.3-.038a.355.355,0,0,1,.214.051.169.169,0,0,1,.075.146c0,.177-.348.352-1.046.53-.2.05-.366.086-.483.119q-.968.948-2.6,2.8-1.816,2.087-3.548,4.246l-.582,2.526a4.023,4.023,0,0,0-.1.436q-.309,1.394-.592,2.794c.067.011.153.023.265.038,1.318.189,1.975.387,1.975.592v.006H41.359c.018-.138.17-.25.452-.331a12.421,12.421,0,0,1,1.834-.306q-.032-.954-.095-1.907c-.043-.649-.1-1.314-.15-1.994H38.766q-.63,1.028-1.1,2a13.578,13.578,0,0,0-.771,1.9,14.424,14.424,0,0,1,1.881.314c.253.08.381.182.381.317v.006H33.382c-.022.3-.035.585-.044.853.23.056.543.119.94.21.927.186,1.394.392,1.394.619a.311.311,0,0,1,0,.049H27.544v-.028c0-.181.2-.329.605-.454a15.809,15.809,0,0,1,2.191-.395q.22-1.021.392-2.051c.125-.742.246-1.587.369-2.534l1.221-9.813-7.416,12.26a2.39,2.39,0,0,1-.273.39c-.083.089-.156.141-.208.141a.257.257,0,0,1-.193-.133,1.113,1.113,0,0,1-.14-.377l-3.118-11.249-1.9,6.112q-.621,2.013-1.1,4.065a29.471,29.471,0,0,0-.585,3.186,16.554,16.554,0,0,1,2.277.36c.37.11.555.27.555.469a.139.139,0,0,1-.006.049H12.836l-.117,0c-.18,0,.158-.331.476-.447a12.213,12.213,0,0,1,1.972-.43q1.146-2.368,2.149-4.8.858-2.074,1.549-4.211L20.6,117.7Zm18.693,9.617h4.3q-.1-1.438-.261-2.871-.172-1.556-.38-3.108c-.285.459-.7,1.138-1.264,2.045q-1.207,1.961-2.395,3.934Zm70.105,1.734c-.007-.022-.013-.044-.018-.066a7.07,7.07,0,0,1-.312-2.131,8.494,8.494,0,0,1,.773-3.558,9.422,9.422,0,0,1,5.121-4.834,9.441,9.441,0,0,1,3.422-.609,13.856,13.856,0,0,1,2.454.221,18.138,18.138,0,0,1,2.542.668l.444-.908a4.471,4.471,0,0,1,.337-.622c.072-.1.138-.148.2-.148a.169.169,0,0,1,.105.058.142.142,0,0,1,.043.107c0,.02-.148.425-.456,1.211s-.58,1.6-.812,2.423c-.127.433-.248.939-.365,1.51q-.17.8-.348.8a.152.152,0,0,1-.136-.072.322.322,0,0,1-.047-.194,1.848,1.848,0,0,1,.022-.221c.018-.108.038-.227.064-.36l.235-1.657a7.1,7.1,0,0,0-2.241-1.667,5.913,5.913,0,0,0-2.545-.592,5.172,5.172,0,0,0-2.349.543,5.885,5.885,0,0,0-1.935,1.635,9.082,9.082,0,0,0-1.513,2.91,11.265,11.265,0,0,0-.548,3.476,5.332,5.332,0,0,0,1.314,3.747,4.249,4.249,0,0,0,1.737,1.173,2.76,2.76,0,0,1-.949.773l0,.006a5.7,5.7,0,0,1-2.876-1.463,5.147,5.147,0,0,1-.919-1.168,9.288,9.288,0,0,1-.442-.989Zm7.27,3.1a3.356,3.356,0,0,0,2.612-1.226q.94-1.246,1.364-4.975a13.372,13.372,0,0,1-1.838-.276c-.295-.086-.444-.205-.444-.359a.18.18,0,0,1,.066-.165.373.373,0,0,1,.222-.051c.036,0,.141.011.312.031a17.466,17.466,0,0,0,2.371.169,17.668,17.668,0,0,0,2.308-.158c.191-.027.311-.043.352-.043a.44.44,0,0,1,.226.051,8.562,8.562,0,0,1,.5-1.6,9.273,9.273,0,0,1,1.887-2.836,9.642,9.642,0,0,1,3.064-2.111,9.009,9.009,0,0,1,3.567-.742,6.5,6.5,0,0,1,4.665,1.626,5.8,5.8,0,0,1,1.719,4.422,8.339,8.339,0,0,1-.657,3.239,9.029,9.029,0,0,1-1.867,2.836,9.28,9.28,0,0,1-3.06,2.1,8.945,8.945,0,0,1-3.593.75,6.482,6.482,0,0,1-4.672-1.635,5.9,5.9,0,0,1-1.709-4.47,7.462,7.462,0,0,1,.1-1.27,4.747,4.747,0,0,1-1.207.441l-.179.05c-.3,1.033-.536,1.923-.7,2.67a8.868,8.868,0,0,0-.246,1.691c0,.13,0,.23.006.3s0,.14.013.207a8.942,8.942,0,0,0-2.525.936c-.237.117-.414.2-.525.257a8.607,8.607,0,0,1-1.757.64q-.308.071-.622.115a1.881,1.881,0,0,0,.241-.612Zm13.858.221a5.656,5.656,0,0,0,4.765-2.606,11.221,11.221,0,0,0,1.866-6.707,5.411,5.411,0,0,0-1.01-3.564,3.743,3.743,0,0,0-3.015-1.191,5.678,5.678,0,0,0-4.753,2.6,10.978,10.978,0,0,0-1.887,6.62,5.612,5.612,0,0,0,1,3.649,3.725,3.725,0,0,0,3.033,1.2Zm-22.979-13.419q-.638-.029-1.276-.046c-.393-.013-.739-.016-1.044-.016a20.678,20.678,0,0,0-3.12.21,11.27,11.27,0,0,0-2.453.638l-.69,1.775a.918.918,0,0,1-.169.311.275.275,0,0,1-.215.116.111.111,0,0,1-.086-.051.2.2,0,0,1-.036-.117,8.524,8.524,0,0,1,.328-1,15.373,15.373,0,0,0,.52-1.765c.08-.336.151-.74.219-1.209.077-.5.176-.753.288-.753a.167.167,0,0,1,.155.108.864.864,0,0,1,.049.336c0,.094,0,.166,0,.215s-.013.112-.014.171c.814.14,1.693.24,2.632.315,2.609.2,5.209.127,7.857.127a.355.355,0,0,1,.017.119.242.242,0,0,1-.041.1.965.965,0,0,1-.108.146l-9.731,11.761c2.412-.3,4.373.745,6.552,1.852,2.266,1.151,6.2,2.65,8.084,0a4.131,4.131,0,0,0,.189-3.119c-.36-1.217.375-.735.556.2a4.172,4.172,0,0,1-.767,3.715,5.255,5.255,0,0,1-4.061,1.469,20.029,20.029,0,0,1-6.324-1.281c-2.385-.82-3.7-1.413-5.963-.979a2.917,2.917,0,0,1-2.195.072H91.207c.022-.138.173-.25.454-.331a12.41,12.41,0,0,1,1.834-.306q-.03-.954-.1-1.907c-.046-.649-.092-1.314-.151-1.994H88.617q-.627,1.028-1.1,2a14.492,14.492,0,0,0-.768,1.9,14.265,14.265,0,0,1,1.879.314c.252.08.385.182.385.317v.006H83.936q.8,1.207,1.352,1.207a1.6,1.6,0,0,0,.306-.041,1.121,1.121,0,0,1,.215-.036.177.177,0,0,1,.136.055.2.2,0,0,1,.051.138c0,.152-.189.309-.569.48a3.119,3.119,0,0,1-1.256.252,2.388,2.388,0,0,1-1.408-.423,3.639,3.639,0,0,1-1.069-1.316l-3.216-6.026a.222.222,0,0,0-.021-.03,1.175,1.175,0,0,1-.149-.478c0-.12.252-.209.763-.252.466-.049.858-.1,1.182-.151a5.347,5.347,0,0,0,3.045-1.35,3.808,3.808,0,0,0,.991-2.772,2.9,2.9,0,0,0-.784-2.229,3.508,3.508,0,0,0-2.443-.718,5.151,5.151,0,0,0-.769.058c-.276.036-.606.1-.987.185q-.321,1.032-.62,2.071-.211.727-.394,1.461l-1.454,6.047q-.368,1.61-.689,3.23a16.4,16.4,0,0,1,2.025.3c.281.083.424.194.424.331v.008H71.544q.033-.167.361-.281a13.223,13.223,0,0,1,1.8-.356q.3-.961.575-1.93c.17-.6.307-1.124.417-1.584l1.472-6.06c.056-.207.129-.531.222-.983s.25-1.2.461-2.253c-.054-.008-.144-.018-.267-.041-1.314-.188-1.976-.385-1.976-.592a.17.17,0,0,1,.081-.163.51.51,0,0,1,.268-.053c.011,0,.335.038.967.108a16.737,16.737,0,0,0,1.864.108c.6,0,1.392-.038,2.383-.108s1.685-.108,2.086-.108a4.7,4.7,0,0,1,3.092.9,3.179,3.179,0,0,1,1.081,2.591,3.66,3.66,0,0,1-1.459,3.042,9.563,9.563,0,0,1-4.46,1.587l2.595,4.754.008.008c.207.392.4.74.586,1.044.284-.075.637-.153,1.073-.232l.235-.038q1.505-1.886,3.328-4.611,2.018-3.039,3.889-6.173l1.027-1.7c.173-.3.37-.64.579-1.044s.377-.613.474-.613a.134.134,0,0,1,.117.074.454.454,0,0,1,.043.206v.283l.022.773c0,.367.047,1.165.149,2.4s.24,2.565.413,4.006l.77,6.4c.107.017.254.046.453.075l.39.074,10.635-12.94Zm-18.4,8.368h4.3q-.1-1.438-.263-2.871-.17-1.556-.383-3.108c-.279.459-.7,1.138-1.262,2.045q-1.205,1.961-2.392,3.934Z" transform="translate(-10.821 -56.626)"/><path class="b" d="M33.192,145.86a1.19,1.19,0,0,0,.064.418.757.757,0,0,0,.206.293H32.181a.715.715,0,0,0,.207-.293,1.215,1.215,0,0,0,.063-.418v-4.072a1.215,1.215,0,0,0-.063-.42.712.712,0,0,0-.207-.293h.071c.112,0,.245-.01.4-.025s.328-.039.527-.069v2.3a2.1,2.1,0,0,1,.592-.459,1.4,1.4,0,0,1,.634-.148,1.42,1.42,0,0,1,1.032.385,1.343,1.343,0,0,1,.4,1.008v1.792a1.211,1.211,0,0,0,.063.418.72.72,0,0,0,.207.293H34.809a.752.752,0,0,0,.21-.293,1.175,1.175,0,0,0,.064-.418v-1.366a1.474,1.474,0,0,0-.225-.911.855.855,0,0,0-.715-.287.912.912,0,0,0-.731.262,1.371,1.371,0,0,0-.221.878v1.423Zm5.262-1.309a1.74,1.74,0,0,0,.367,1.154,1.183,1.183,0,0,0,.954.441,1.152,1.152,0,0,0,.9-.393,1.472,1.472,0,0,0,.351-1.018,1.629,1.629,0,0,0-.374-1.1,1.194,1.194,0,0,0-.95-.436,1.164,1.164,0,0,0-.9.387A1.37,1.37,0,0,0,38.454,144.551Zm-.843.161a2.021,2.021,0,0,1,.639-1.487,2.185,2.185,0,0,1,.7-.439,2.312,2.312,0,0,1,.838-.157,2.172,2.172,0,0,1,.815.146,1.934,1.934,0,0,1,.659.442,2.083,2.083,0,0,1,.443.652,2.058,2.058,0,0,1-.008,1.571,1.969,1.969,0,0,1-.474.674,2.161,2.161,0,0,1-.7.431,2.312,2.312,0,0,1-.838.155,2.228,2.228,0,0,1-.819-.141,1.909,1.909,0,0,1-.659-.439,2.074,2.074,0,0,1-.445-.655A1.931,1.931,0,0,1,37.611,144.712Zm6.137-1.4h-.521v-.283a.963.963,0,0,0,.739-.433,1.959,1.959,0,0,0,.287-1.06h.231v1.219h1.133v.714a.576.576,0,0,0-.229-.119,1.379,1.379,0,0,0-.356-.038h-.548v1.854a1.3,1.3,0,0,0,.169.748.6.6,0,0,0,.528.24,1.515,1.515,0,0,0,.352-.055l-.384.56h-.018q-.114.014-.228.017a1.174,1.174,0,0,1-.867-.291,1.158,1.158,0,0,1-.29-.857v-2.216h0Zm4.269.723h2.037a.948.948,0,0,0-.979-.917,1.059,1.059,0,0,0-.721.245,1.019,1.019,0,0,0-.337.672Zm-.055.536a1.617,1.617,0,0,0,.452,1.134,1.509,1.509,0,0,0,1.111.421,2.316,2.316,0,0,0,.645-.1,4.083,4.083,0,0,0,.735-.307l-.424.737a4.36,4.36,0,0,1-.634.188,2.719,2.719,0,0,1-.552.063,2.207,2.207,0,0,1-1.568-.576,1.915,1.915,0,0,1-.616-1.463,2.049,2.049,0,0,1,.566-1.491,1.938,1.938,0,0,1,1.448-.582,1.651,1.651,0,0,1,1.289.531,2.127,2.127,0,0,1,.49,1.444H47.961Zm5.527,1.286a1.17,1.17,0,0,0,.065.418.764.764,0,0,0,.206.293H52.485a.724.724,0,0,0,.208-.293,1.235,1.235,0,0,0,.063-.418v-4.073a1.232,1.232,0,0,0-.063-.418.714.714,0,0,0-.208-.293h.085c.084,0,.188-.006.307-.018s.326-.036.61-.075Zm2.294-.837.446-.641,1.359.008h.04a2.26,2.26,0,0,0,.536-.07l-.435.674H56.342a.4.4,0,0,1-.072-.006c-.029,0-.047-.006-.058-.006-.036,0-.1.006-.2.017S55.835,145.019,55.783,145.023Zm4.757,1.471-.313-.87a4.248,4.248,0,0,0,.818.444,2.017,2.017,0,0,0,.715.145,1.225,1.225,0,0,0,.671-.163.494.494,0,0,0,.253-.433q0-.336-.859-.678-.162-.061-.32-.133a2.02,2.02,0,0,1-.735-.47.893.893,0,0,1-.229-.612.947.947,0,0,1,.4-.8,1.778,1.778,0,0,1,1.094-.3,3.774,3.774,0,0,1,.489.035c.178.022.364.053.56.1v.682a3.218,3.218,0,0,0-.58-.227,2.065,2.065,0,0,0-.544-.079.8.8,0,0,0-.474.127.4.4,0,0,0-.177.339c0,.2.238.389.714.561.2.072.365.135.485.186a2.175,2.175,0,0,1,.748.475.854.854,0,0,1,.239.6,1.1,1.1,0,0,1-.506.944,2.326,2.326,0,0,1-1.361.356,2.888,2.888,0,0,1-.575-.055,2.39,2.39,0,0,1-.514-.168Zm4.5,1.748a.714.714,0,0,0,.207-.295,1.207,1.207,0,0,0,.063-.418v-4.044a1.225,1.225,0,0,0-.064-.426.763.763,0,0,0-.206-.3h.1a4.536,4.536,0,0,0,.867-.084l.035.607a2.023,2.023,0,0,1,.645-.482,1.865,1.865,0,0,1,2.084.4,1.9,1.9,0,0,1,.543,1.378,2.26,2.26,0,0,1-.21.982,1.914,1.914,0,0,1-.6.734,1.866,1.866,0,0,1-1.171.389,2.9,2.9,0,0,1-.6-.075l-.474-.688a2.779,2.779,0,0,0,.45.161,1.557,1.557,0,0,0,.392.053,1.332,1.332,0,0,0,1.008-.377,1.448,1.448,0,0,0,.362-1.049,1.562,1.562,0,0,0-.36-1.063,1.16,1.16,0,0,0-.914-.416,1.212,1.212,0,0,0-.826.322.845.845,0,0,0-.242.393,3.18,3.18,0,0,0-.071.8v2.786a1.184,1.184,0,0,0,.064.418.762.762,0,0,0,.206.295H65.04Zm9.621-2.2-.329.515a1.283,1.283,0,0,1-.829-.21.868.868,0,0,1-.249-.7v-1.127q-.1.023-.193.05c-.97.263-1.454.552-1.454.862a.579.579,0,0,0,.243.482,1.041,1.041,0,0,0,.642.184,1.751,1.751,0,0,0,.251-.02c.094-.016.2-.036.317-.064l-.435.584a2.124,2.124,0,0,1-.5.066,1.379,1.379,0,0,1-.961-.34,1.106,1.106,0,0,1-.379-.857,1,1,0,0,1,.274-.69,2.3,2.3,0,0,1,1.046-.423c.111-.023.2-.043.255-.058a2.659,2.659,0,0,0,.709-.232.345.345,0,0,0,.173-.3.453.453,0,0,0-.235-.4,1.172,1.172,0,0,0-.63-.148,1.631,1.631,0,0,0-.463.074,3.412,3.412,0,0,0-.556.222l.512-.819c.134-.018.259-.031.379-.043s.229-.017.328-.017a1.93,1.93,0,0,1,.532.069,1.318,1.318,0,0,1,.424.206.967.967,0,0,1,.339.439,2.458,2.458,0,0,1,.1.816v.919a1.348,1.348,0,0,0,.138.784.845.845,0,0,0,.548.178ZM98.9,145.023l.446-.641,1.359.008h.041a2.26,2.26,0,0,0,.536-.07l-.436.674H99.456a.4.4,0,0,1-.072-.006c-.028,0-.047-.006-.058-.006-.036,0-.1.006-.2.017s-.173.022-.226.025Zm7.393-1.46a2.748,2.748,0,0,0-.548-.27,1.429,1.429,0,0,0-.483-.089,1.194,1.194,0,0,0-.919.37,1.367,1.367,0,0,0-.347.977,1.471,1.471,0,0,0,.438,1.091,1.487,1.487,0,0,0,1.094.433,2.106,2.106,0,0,0,.58-.088,4.064,4.064,0,0,0,.682-.273l-.42.721a1.718,1.718,0,0,1-.464.207,1.88,1.88,0,0,1-.516.067,2.38,2.38,0,0,1-1.634-.566,1.83,1.83,0,0,1-.643-1.431,1.974,1.974,0,0,1,.632-1.487,2.166,2.166,0,0,1,1.56-.6,3.659,3.659,0,0,1,.392.027c.165.017.362.041.594.072v.842h0Zm5.687,2.479-.328.515a1.282,1.282,0,0,1-.829-.21.869.869,0,0,1-.25-.7v-1.127l-.193.05c-.969.263-1.454.552-1.454.862a.579.579,0,0,0,.243.482,1.036,1.036,0,0,0,.643.184,1.75,1.75,0,0,0,.25-.02q.16-.027.317-.064l-.434.584a2.123,2.123,0,0,1-.5.066,1.382,1.382,0,0,1-.963-.34,1.108,1.108,0,0,1-.378-.857,1,1,0,0,1,.275-.69,2.307,2.307,0,0,1,1.046-.423c.112-.023.194-.043.255-.058a2.68,2.68,0,0,0,.709-.232.348.348,0,0,0,.173-.3.454.454,0,0,0-.235-.4,1.172,1.172,0,0,0-.63-.148,1.617,1.617,0,0,0-.462.074,3.4,3.4,0,0,0-.556.222l.513-.819c.133-.018.258-.031.378-.043s.229-.017.328-.017a1.931,1.931,0,0,1,.533.069,1.321,1.321,0,0,1,.423.206.962.962,0,0,1,.339.439,2.437,2.437,0,0,1,.1.816v.919a1.348,1.348,0,0,0,.138.784.835.835,0,0,0,.546.178Zm1.545.452-.314-.87a4.277,4.277,0,0,0,.819.444,2.017,2.017,0,0,0,.715.145,1.223,1.223,0,0,0,.671-.163.491.491,0,0,0,.252-.433q0-.336-.857-.678-.163-.061-.321-.133a2.02,2.02,0,0,1-.735-.47.9.9,0,0,1-.229-.612.947.947,0,0,1,.4-.8,1.782,1.782,0,0,1,1.094-.3,3.774,3.774,0,0,1,.489.035c.177.022.364.053.56.1v.682a3.22,3.22,0,0,0-.58-.227,2.064,2.064,0,0,0-.544-.079.8.8,0,0,0-.475.127.4.4,0,0,0-.176.339c0,.2.237.389.714.561.2.072.365.135.486.186a2.166,2.166,0,0,1,.747.475.855.855,0,0,1,.24.6,1.1,1.1,0,0,1-.5.944,2.325,2.325,0,0,1-1.361.356,2.9,2.9,0,0,1-.576-.055,2.4,2.4,0,0,1-.512-.168Zm4.66-4.754a.482.482,0,0,1,.482-.482.439.439,0,0,1,.332.143.463.463,0,0,1,.138.339.475.475,0,0,1-.135.344.444.444,0,0,1-.336.14.456.456,0,0,1-.342-.141A.468.468,0,0,1,118.182,141.739Zm.881,4.121a1.19,1.19,0,0,0,.064.418.751.751,0,0,0,.21.293h-1.278a.747.747,0,0,0,.21-.293,1.157,1.157,0,0,0,.064-.418v-2.376a1.186,1.186,0,0,0-.066-.426.761.761,0,0,0-.209-.3c.226,0,.418-.014.582-.028s.3-.035.421-.056Zm2.874,0a1.193,1.193,0,0,0,.063.418.776.776,0,0,0,.207.293h-1.281a.739.739,0,0,0,.207-.293,1.235,1.235,0,0,0,.063-.418v-2.374a1.235,1.235,0,0,0-.064-.428.771.771,0,0,0-.206-.3h.084c.128,0,.263-.006.408-.02s.3-.036.467-.064l.035.607a2.107,2.107,0,0,1,.592-.459,1.4,1.4,0,0,1,.635-.148,1.422,1.422,0,0,1,1.032.385,1.344,1.344,0,0,1,.4,1.008v1.792a1.192,1.192,0,0,0,.063.418.7.7,0,0,0,.207.293h-1.293a.762.762,0,0,0,.21-.293,1.193,1.193,0,0,0,.064-.418v-1.366a1.462,1.462,0,0,0-.226-.906.863.863,0,0,0-.715-.284.912.912,0,0,0-.731.262,1.361,1.361,0,0,0-.219.872Zm5.261-1.309a1.744,1.744,0,0,0,.367,1.154,1.181,1.181,0,0,0,.955.441,1.151,1.151,0,0,0,.9-.393,1.477,1.477,0,0,0,.352-1.018,1.629,1.629,0,0,0-.375-1.1,1.2,1.2,0,0,0-.951-.436,1.166,1.166,0,0,0-.9.387A1.384,1.384,0,0,0,127.2,144.551Zm-.842.161a2.015,2.015,0,0,1,.64-1.487,2.188,2.188,0,0,1,.7-.439,2.321,2.321,0,0,1,.839-.157,2.18,2.18,0,0,1,.816.146,1.931,1.931,0,0,1,.658.442,2.085,2.085,0,0,1,.444.652,1.969,1.969,0,0,1,.152.759,2.031,2.031,0,0,1-.161.812,1.939,1.939,0,0,1-.475.674,2.153,2.153,0,0,1-.7.431,2.319,2.319,0,0,1-.839.155,2.222,2.222,0,0,1-.819-.141,1.905,1.905,0,0,1-.66-.439,2.071,2.071,0,0,1-.444-.655A1.931,1.931,0,0,1,126.355,144.712Zm-49.86.311.447-.641,1.359.008h.04a2.261,2.261,0,0,0,.536-.07l-.435.674H77.057a.4.4,0,0,1-.072-.006c-.028,0-.047-.006-.058-.006-.035,0-.1.006-.2.017S76.548,145.019,76.5,145.023Zm7.239-.93a.9.9,0,0,0-.291-.682,1.02,1.02,0,0,0-.728-.275.927.927,0,0,0-.65.224.779.779,0,0,0-.243.594.92.92,0,0,0,.3.7,1.021,1.021,0,0,0,.729.283.883.883,0,0,0,.634-.24.791.791,0,0,0,.251-.6Zm1.441-1.508-.243.61a.716.716,0,0,1-.075.008c-.026,0-.072,0-.136,0-.112,0-.243-.006-.39-.017q-.254-.021-.507-.055a1.607,1.607,0,0,1,.544.446.946.946,0,0,1,.177.563,1.038,1.038,0,0,1-.224.655,1.5,1.5,0,0,1-.645.453,2.74,2.74,0,0,1-.733.181.263.263,0,0,1-.043,0l-.024,0q-.426.059-.426.232a.13.13,0,0,0,.064.122.466.466,0,0,0,.218.038c.083,0,.191,0,.324-.011s.221-.01.267-.01a2.416,2.416,0,0,1,1.331.329.974.974,0,0,1,.507.842,1.242,1.242,0,0,1-.657,1.074,3.1,3.1,0,0,1-1.7.418,3.255,3.255,0,0,1-1.566-.334.969.969,0,0,1-.617-.829.59.59,0,0,1,.219-.469.818.818,0,0,1,.552-.189.9.9,0,0,1,.177.022c.067.016.146.038.237.069a.382.382,0,0,0-.255.13.438.438,0,0,0-.087.29.722.722,0,0,0,.425.6,1.989,1.989,0,0,0,1.044.254,1.8,1.8,0,0,0,1.031-.279.8.8,0,0,0,.414-.676.632.632,0,0,0-.356-.58,2.169,2.169,0,0,0-1.034-.2l-.313.008c-.173,0-.327.008-.462.008a.874.874,0,0,1-.482-.112.363.363,0,0,1-.169-.319.424.424,0,0,1,.164-.334,1.088,1.088,0,0,1,.478-.212,1.526,1.526,0,0,1-.851-.466,1.263,1.263,0,0,1,.2-1.846,2.3,2.3,0,0,1,1.4-.38c.149,0,.365.008.649.022s.492.022.629.022c.116,0,.25-.008.4-.022s.337-.036.547-.067Zm1.96,1.967A1.745,1.745,0,0,0,87.5,145.7a1.181,1.181,0,0,0,.954.441,1.152,1.152,0,0,0,.9-.393,1.476,1.476,0,0,0,.35-1.018,1.628,1.628,0,0,0-.373-1.1,1.2,1.2,0,0,0-.951-.436,1.164,1.164,0,0,0-.9.387,1.37,1.37,0,0,0-.355.969Zm-.842.161a2.015,2.015,0,0,1,.64-1.487,2.188,2.188,0,0,1,.7-.439,2.321,2.321,0,0,1,.839-.157,2.165,2.165,0,0,1,.814.146,1.922,1.922,0,0,1,.66.442,2.081,2.081,0,0,1,.442.652,1.942,1.942,0,0,1,.153.759,2.058,2.058,0,0,1-.161.812,1.961,1.961,0,0,1-.475.674,2.153,2.153,0,0,1-.7.431,2.32,2.32,0,0,1-.839.155,2.229,2.229,0,0,1-.82-.141,1.922,1.922,0,0,1-.658-.439,2.071,2.071,0,0,1-.444-.655A1.9,1.9,0,0,1,86.294,144.712Zm6.8,1.148a1.19,1.19,0,0,0,.064.418.773.773,0,0,0,.206.293H92.086a.727.727,0,0,0,.209-.293,1.234,1.234,0,0,0,.063-.418v-4.073a1.231,1.231,0,0,0-.063-.418.716.716,0,0,0-.209-.293h.086c.084,0,.186-.006.307-.018s.326-.036.61-.075v4.879Zm2.953,0a1.231,1.231,0,0,0,.063.418.728.728,0,0,0,.207.293H95.027a.781.781,0,0,0,.21-.293,1.2,1.2,0,0,0,.063-.418v-2.545h-.429l.429-.556c0-.02,0-.051,0-.092s0-.06,0-.091a1.59,1.59,0,0,1,.421-1.209,1.814,1.814,0,0,1,1.28-.4c.069,0,.141,0,.218.008l.226.018-.439.558q-.113-.023-.227-.039a1.345,1.345,0,0,0-.185-.014.479.479,0,0,0-.42.174,1.049,1.049,0,0,0-.124.594v.489H97v.556h-.959v2.546Z" transform="translate(-14.668 -61.871)"/></svg>