<svg xmlns="http://www.w3.org/2000/svg" width="128.329" height="60.209" viewBox="0 0 128.329 60.209"><defs><style>.a{fill:#bfd34b;}.a,.b{fill-rule:evenodd;}.b{fill:#0c0e0f;}</style></defs><path class="a" d="M28.134,105.408a1.828,1.828,0,0,1,1.4-.864s35.093-11.9,81.816-9.57c0,0,2.659-.067,1.928,1.063-.4.731-1.2.731-2.725.8a10.676,10.676,0,0,1-2.46.066s4.786,1.861-14.09,1.463c0,0,1.661,1.727-5.25,1.195,0,0-19.341-.863-58.421,6.248,0,0-3.058.665-2.194-.4Z" transform="translate(-10.731 -65.737)"/><path class="b" d="M78.136,66.771c-1.129-2.459-1.928-.4-1.928-.4-.8,2.127-5.583,7.577-6.579,8.508-3.988,3.522-2.592,1.329-2.925-.266,0,0,.133-2.791.931-3.456,0,0,.465.2.8-1.529a1.86,1.86,0,0,0-1.661-2.659s-1.794-1.2-2.592,2.194c0,0-1.529,6.514.6,9.438,0,0,1.064,1.994,6.514-3.323,1.861-1.861,4.786-5.251,4.786-5.251,2.991,5.583-1.661,7.045-1.661,7.045-1.729,1.13.067,1.4.067,1.4,7.177.2,7.708-4.12,7.708-4.12.2-3.124-4.055-7.576-4.055-7.576ZM60.257,53.677s-2.326-2.925-1.927.4a96.658,96.658,0,0,1-.864,15.819,3.179,3.179,0,0,0-.532-1.063s-1.994-2.658-4.32-1.927c0,0-2.858.93-4.52,5.317a12.466,12.466,0,0,0-.864,5.25s-.133,5.981,7.178,1.794a10.984,10.984,0,0,0,1.661-1.4,9.769,9.769,0,0,0-.532,1.994s-.2,1.595.465,1.994c.332.133.6-.067,1.263-1.6,0,0,5.184-13.293,5.45-18.742C62.716,61.52,64.511,58.8,60.257,53.677ZM51.218,77.538s-.532-.4-.465-1.994a9,9,0,0,1,2.061-4.985,3.013,3.013,0,0,1,.93-.8c.133,0,.4.2.465,1.063.067.2-.532.266-.332.93,0,0,1,2.526,3.124,1.4-.067.532-.2,1.063-.266,1.595-1.13,1.53-3.456,4.122-5.516,2.793ZM71.955,60.124A1.94,1.94,0,0,0,70.426,58a1.8,1.8,0,0,0-1.794,1.661,4.066,4.066,0,0,0-.134,1.263c-.066.4-.6,1.927-.132,2.061a7.038,7.038,0,0,0,2.659-1.329A2.259,2.259,0,0,0,71.955,60.124ZM101.6,65.907s-4.918,7.377-4.918,9.836a2.05,2.05,0,0,0,2.393,2.194,8.992,8.992,0,0,0,4.453-1.729,6.068,6.068,0,0,1,1.861-1.329s1.729.2,1.13-2.061a14.185,14.185,0,0,0-1.2-3.522s-.532-1.13-1.263-.665c0,0-.665.265-.4,1.462,0,0-.066.067.267,1.063,0,0,.8,2.459.332,2.526a.628.628,0,0,0-.465.266c-.2.133-.466.465-.8.665,0,0-2.259,1.529-1.794-.6,0,0,.332-1.263.665-2.127a25.965,25.965,0,0,1,2.658-5.383s1.33-1.662-.332-1.529a1.084,1.084,0,0,1-.465,0s-.864-.731-2.127.931ZM91.228,69.164c-.864-.6-1.861-2.592-1.064-3.589.333-.4,1-.8.931-1.4-.265-1.329-2.526,0-2.99,1.6A8.847,8.847,0,0,1,84.649,69.7a2.656,2.656,0,0,0-.532,1.329c-.067,1.794,1.064.532,1.064.532,1.594-1.263,2.79-2.127,2.79-2.127,2.991,5.583-1.661,7.045-1.661,7.045-.6.266-.731.532-.731.864,0,.532.8.532.8.532,7.178.2,7.71-4.12,7.71-4.12C94.42,71.822,92.425,69.961,91.228,69.164ZM45.17,77.737l-.133-.133c-.2-.133-1.13.266-2.06.864l-.4.2c-.332.266-.665.465-.8.6,0,0-.6.465-.532-.6V78.6c0-.266.067-.532.067-.864,0,0,.8-3.323,1.2-4.253,0,0,.2-.864.466-1.861,0,0,1.4-1.462-1.2-1.927,0,0-1.2-3.057-2.526,1.729a2.481,2.481,0,0,0-1.263-1.529,1.323,1.323,0,0,0-.6-.133c-.133-.067-.2,0-.4-.067,0,0-1.263-.4-2.592,1.263-1.4,1.529-5.516,6.514-4.586,10.634,0,0,.532,2.127,2.393,2.127a7.174,7.174,0,0,0,4.453-1.8,7.271,7.271,0,0,0,1.2-1.263,4.622,4.622,0,0,0,.132.864v.133a1.684,1.684,0,0,0,.466.864,1.776,1.776,0,0,0,1.529.332.244.244,0,0,0,.2-.067s2.725-.6,2.658-1.728c-.067-.6.133-.665.133-.665a.309.309,0,0,0,.132-.332s2.128-1.4,2.061-2.326Zm-7.71,1.6a2.944,2.944,0,0,1-1,1.13s-2.924,1.794-2.791-.731a10.971,10.971,0,0,1,.532-2.725,18.7,18.7,0,0,1,3.456-5.384c.2-.2.332-.2.466-.067.265.4.332.864.532,1.2.067.133.133.2.2.332a43.83,43.83,0,0,0-1,5.516,3.936,3.936,0,0,1-.4.733ZM17.123,65.508c-.2-.332-.6-.132-1.661,1.529,0,0-8.84,14.888-10.634,21.933,0,0-1.927,4.852.665,6.646A2.976,2.976,0,0,0,6.821,96.68c.2,1.063.6,2.061,1.329,1.729.2-.134.266-1,.266-1.861a5.059,5.059,0,0,1,.133-1.8c.067-.2.067-.4.133-.665a2.12,2.12,0,0,0,.133-.4c0-.132.067-.132.067-.132H8.816c.864-3.19,4.852-18.809,8.108-25.389,0,0,.73-1.662.2-2.659Z" transform="translate(-3.243 -52.488)"/><path class="b" d="M30.139,93.235S22.495,81.8,21.764,79.411a5.452,5.452,0,0,0-.8-1.462c.466,0,1-.067,1.661-.067,0,0,3.988-.067,5.716-3.19.465-.864,1.4-3.788-2.127-7.444,0,0-4.387-5.184-14.356-5.849,0,0-2.725-1.329-7.843,2.925,0,0-1.927,1.529-.864,1.927a2.272,2.272,0,0,0,1.329,0s8.308-2.792,18.676,3.124c0,0,4.12,2.592,1.529,5.184a6.083,6.083,0,0,1-3.522,1.529s-.665.067-1.861.2c0,0-.6.067-1.4.133,0,0-1.063,0-1.2.266,0,.2.133.265.731.532-1.063.133-1.462.266-1.728.6a.607.607,0,0,0-.133.532A41.247,41.247,0,0,0,27.081,94.3s4.253,3.323,5.184,2.458c.332-.2-.732-1.595-2.127-3.523Zm93.447-14.289c-1.2-.731-4.453-7.377-4.453-7.377-.8-1.13-2.126.265-2.126.265a15.294,15.294,0,0,0-2.725,4.121c-.8,1.4-.6-.465-.6-.465a2.043,2.043,0,0,1,.731-1.661s.465.332.931-1.329a1.966,1.966,0,0,0-1.33-2.792s-1.661-1.4-2.79,1.927c0,0-1.529,4.852-.931,7.843,0,0,.267,3.589,3.257.8a6.335,6.335,0,0,0,1-1.2,14.648,14.648,0,0,0,1.2-2.259A13.7,13.7,0,0,1,118,73.3c-.2,1.994,2.126,7.311,2.126,7.311.864,2.725,2.128,2.592,2.128,2.592C129.035,83.465,123.585,78.946,123.585,78.946Zm1.064-7.245a1.278,1.278,0,0,1,1.329,1.263,1.333,1.333,0,0,1-1.329,1.329,1.278,1.278,0,0,1-1.263-1.329A1.223,1.223,0,0,1,124.649,71.7Zm0,2.858a1.618,1.618,0,0,0,1.6-1.6,1.561,1.561,0,0,0-1.6-1.529,1.5,1.5,0,0,0-1.529,1.529A1.561,1.561,0,0,0,124.649,74.559Zm.265-1.463c.267-.067.466-.132.466-.531,0-.332-.267-.466-.6-.466h-.731v1.794h.267v-.8h.332l.4.8h.332l-.466-.8Zm-.2-.731c.265,0,.4.067.4.266s-.265.2-.532.2h-.265v-.465h.4Z" transform="translate(-2.834 -55.225)"/><path class="a" d="M156.179,95.592c1.4.067,2.991.067,5.25.265,1.13.133,2.925.133,3.191.864.2.731-.665,1.4-2.193,1.729a11.042,11.042,0,0,1-1.995.265c-.864-.066-2.658,0-2.725-.929,0-.6-1.2-.6-1.993-.665-1.529-.067-1.4-.466-1.064-1,.2-.333.665-.6,1.529-.532Z" transform="translate(-50.448 -66.023)"/><path class="b" d="M6.467,128.907a2.279,2.279,0,0,0-1.529-.665c-.6,0-1.063.332-1.063.8,0,1.2,2.858,1.2,2.858,3.257a1.763,1.763,0,0,1-1.861,1.794,2.921,2.921,0,0,1-1.794-.6v-1.2a2.181,2.181,0,0,0,1.729.929c.731,0,1.063-.465,1.063-.8,0-1.329-2.858-1.529-2.858-3.257A1.8,1.8,0,0,1,5,127.378a3.146,3.146,0,0,1,1.462.465v1.064h0Zm4.121,4.254h2.924v.864H9.657v-6.514h.931Zm8.108-4.254,1.063,2.326H17.7Zm.332-1.462h-.665l-2.792,6.581h.93l.864-1.928h2.725l.864,1.928h1Zm7.112,6.58h-.2l-2.858-6.514h.93l1.995,4.519,1.927-4.519h.931Zm6.314.066c0,1.2-.465,2.128-1.794,2.128-.132,0-.2-.067-.266-.067l-.2-.864h.265c1,0,1.063-.465,1.063-1.462v-6.314h.93v6.579h0Zm5.782-5.184,1.064,2.326H37.24l1-2.326Zm.333-1.462H37.9l-2.791,6.581h1l.8-1.928H39.7l.864,1.928h.93l-2.923-6.581Zm11.631,6.58h-.8l-4.386-5.052v5.052h-.864v-6.514h.731l4.387,4.985v-4.985h.93Zm6.447-5.118a2.281,2.281,0,0,0-1.529-.665c-.6,0-1.063.332-1.063.8,0,1.2,2.858,1.2,2.858,3.257a1.763,1.763,0,0,1-1.861,1.794,2.921,2.921,0,0,1-1.794-.6v-1.2a2.183,2.183,0,0,0,1.729.929c.731,0,1.063-.465,1.063-.8,0-1.329-2.858-1.529-2.858-3.257a1.8,1.8,0,0,1,1.994-1.794,3.146,3.146,0,0,1,1.462.465v1.064h0Zm8.706,5.118H64.09l-3.323-3.257v3.257h-.93v-6.514h.93v2.925l2.725-2.925h1.2l-2.858,3.057Zm5.118-5.118,1,2.326H69.474l1-2.326Zm.333-1.462h-.665l-2.792,6.581h.931l.8-1.928h2.792l.864,1.928h1Zm8.44.067h1.131l-2.46,3.057v3.456h-.93v-3.456l-2.393-3.057h1.13l1.728,2.194Zm5.119,1.4,1.063,2.326H83.364l1-2.326Zm.333-1.462h-.666l-2.79,6.581h.929l.864-1.928h2.725l.864,1.928h1Zm15.685,6.58h-.932v-2.859H95.794v2.859h-.931v-6.514h.931V130.3h3.655v-2.792h.932Zm4.054-3.257a2.527,2.527,0,1,1,2.526,2.458A2.444,2.444,0,0,1,104.434,130.768Zm-1,0a3.525,3.525,0,1,0,3.522-3.389A3.34,3.34,0,0,0,103.437,130.768Zm14.355-2.46h-2.259v5.717H114.6v-5.717h-2.26v-.8h5.45Zm6.514,0h-2.725v2h2.659v.862h-2.659v2h2.792v.864h-3.788v-6.514h3.722Zm3.921,4.853h2.991v.864H127.3v-6.514h.93Z" transform="translate(-2.889 -76.009)"/></svg>