<svg xmlns="http://www.w3.org/2000/svg" width="123.053" height="79.468" viewBox="0 0 123.053 79.468"><defs><style>.a{fill:#6b7379;}.a,.b{fill-rule:evenodd;}.b{fill:#debf2e;}</style></defs><path class="a" d="M27.86,145.141v-.35h-.573v-5.724h.573v-.35H25.212v.367h.58v2.537h-2.46v-2.554h.581v-.35H21.265v.35h.572v5.724h-.572v.35H23.9v-.35h-.564v-2.811h2.46v2.811h-.58v.35Zm7.651-3.16a3.026,3.026,0,0,0-3.153-3.427c-1.461,0-3.144.787-3.238,3.392a3.2,3.2,0,1,0,6.391.035ZM33.94,142c0,1.8-.436,2.982-1.58,2.982-1.213,0-1.632-1.537-1.632-2.982,0-1.495.316-3.262,1.632-3.262C33.632,138.735,33.94,140.579,33.94,142Zm8.492-.838v-2.442H36.75v2.442h.172c0-1.913,1.255-2.092,1.692-2.092h.145v5.724h-.581v.35h2.649v-.35h-.572v-5.724h.171a1.853,1.853,0,0,1,1.837,2.092Zm7.078,3.981v-2.263h-.2a1.854,1.854,0,0,1-1.726,1.913H45.734v-2.784h.76c.658.034,1.085.291,1.085,1.383h.2V140.4h-.2a1.24,1.24,0,0,1-1.085,1.306h-.76v-2.639h1.418c1.5,0,1.794.376,2.051,1.982h.162v-2.332h-5.7v.35h.573v5.724h-.573v.35h5.843Zm6.386,0v-2.554h-.188c-.179.983-.5,2.2-2.169,2.2h-.726v-5.724h.58v-.35H50.744v.35h.573v5.724h-.573v.35Zm6.741-2.059a2.17,2.17,0,0,0-2.315-2.2c-1.333-.051-2.349-.051-2.349-1,0-.879.888-1.042,1.58-1.042a2.541,2.541,0,0,1,2.418,1.974h.247v-2.1H61.97c-.009.2,0,.469-.239.469a6.022,6.022,0,0,0-2.264-.631,2.078,2.078,0,1,0-.06,4.143c1.247.017,2.375.086,2.375,1.095,0,.914-.982,1.153-1.88,1.17a2.5,2.5,0,0,1-2.537-2.136h-.239v2.314h.239s.051-.47.333-.47c.521,0,.743.633,2.238.633,1.769,0,2.7-1.033,2.7-2.22Zm9.775.325h-.23c0,.307-.017.838-.427.838s-.854-.641-.854-.641a3.912,3.912,0,0,0,.436-1.982,2.872,2.872,0,0,0-.068-.547l-.35.069a3.9,3.9,0,0,1-.273,2.246l-2.059-2.084c.307-.2,1.128-.6,1.128-1.444a1.275,1.275,0,0,0-1.426-1.307,1.8,1.8,0,0,0-1.9,1.675c0,.623.256.931.735,1.537-.35.161-1.537.743-1.537,1.9,0,.675.5,1.64,2.136,1.64a3.185,3.185,0,0,0,2.247-.582,1.323,1.323,0,0,0,1.008.385c1.239,0,1.384-.847,1.418-1.136A3.794,3.794,0,0,0,72.412,143.407Zm-3.34-3.545a1.343,1.343,0,0,1-.727,1.2s-.88-.777-.88-1.451a.826.826,0,0,1,.82-.828C68.781,138.786,69.072,139.332,69.072,139.862Zm.674,4.639a2.571,2.571,0,0,1-1.239.4,1.624,1.624,0,0,1-1.529-1.717,1.41,1.41,0,0,1,.453-1.093Zm12.343-.889h-.213c0,.418-.128,1.077-.452,1.077-.4,0-.316-.4-.385-1.3a1.4,1.4,0,0,0-1.28-1.461,1.545,1.545,0,0,0,1.461-1.554c0-.914-.385-1.657-2.009-1.657H75.376v.35h.572v5.724h-.572v.35h2.647v-.35h-.58v-2.717h1c.991,0,.991.436.991,1.64,0,1.266.692,1.59,1.35,1.59C81.8,145.3,82.089,144.646,82.089,143.612Zm-2.366-3.143a1.117,1.117,0,0,1-1.282,1.255h-1v-2.657h1.093C79.407,139.068,79.723,139.7,79.723,140.469Zm9.449,4.672v-2.263h-.2a1.854,1.854,0,0,1-1.726,1.913H85.4v-2.784h.76c.658.034,1.085.291,1.085,1.383h.2V140.4h-.2a1.24,1.24,0,0,1-1.085,1.306H85.4v-2.639h1.418c1.5,0,1.794.376,2.051,1.982h.161v-2.332h-5.7v.35H83.9v5.724h-.572v.35h5.844Zm6.746-2.059a2.17,2.17,0,0,0-2.316-2.2c-1.332-.051-2.349-.051-2.349-1,0-.879.889-1.042,1.581-1.042a2.543,2.543,0,0,1,2.418,1.974H95.5v-2.1h-.247c-.01.2,0,.469-.24.469a6.026,6.026,0,0,0-2.263-.631,2.078,2.078,0,1,0-.061,4.143c1.248.017,2.375.086,2.375,1.095,0,.914-.982,1.153-1.88,1.17a2.5,2.5,0,0,1-2.537-2.136h-.24v2.314h.24s.051-.47.332-.47c.521,0,.743.633,2.239.633C94.985,145.3,95.918,144.27,95.918,143.082Zm7.617-1.1a3.026,3.026,0,0,0-3.152-3.427c-1.461,0-3.144.787-3.238,3.392a3.2,3.2,0,1,0,6.39.035Zm-1.572.017c0,1.8-.436,2.982-1.581,2.982-1.213,0-1.632-1.537-1.632-2.982,0-1.495.316-3.262,1.632-3.262C101.655,138.735,101.963,140.579,101.963,142Zm9.525,1.615h-.213c0,.418-.128,1.077-.452,1.077-.4,0-.316-.4-.385-1.3a1.4,1.4,0,0,0-1.282-1.461,1.545,1.545,0,0,0,1.461-1.554c0-.914-.384-1.657-2.007-1.657h-3.834v.35h.572v5.724h-.572v.35h2.647v-.35h-.581v-2.717h1c.991,0,.991.436.991,1.64,0,1.266.692,1.59,1.35,1.59C111.2,145.3,111.488,144.646,111.488,143.612Zm-2.366-3.143a1.117,1.117,0,0,1-1.282,1.255h-1v-2.657h1.093c.871,0,1.188.632,1.188,1.4Zm9.287.691v-2.442h-5.682v2.442h.171c0-1.913,1.256-2.092,1.691-2.092h.145v5.724h-.58v.35H116.8v-.35h-.572v-5.724h.171a1.853,1.853,0,0,1,1.836,2.092Zm6.744,1.923a2.17,2.17,0,0,0-2.316-2.2c-1.332-.051-2.348-.051-2.348-1,0-.879.887-1.042,1.579-1.042a2.541,2.541,0,0,1,2.418,1.974h.247v-2.1h-.247c-.008.2,0,.469-.24.469a6.017,6.017,0,0,0-2.263-.631,2.078,2.078,0,1,0-.059,4.143c1.247.017,2.374.086,2.374,1.095,0,.914-.982,1.153-1.879,1.17a2.5,2.5,0,0,1-2.538-2.136h-.24v2.314h.24s.051-.47.334-.47c.521,0,.743.633,2.238.633,1.768,0,2.7-1.033,2.7-2.22Z" transform="translate(-11.519 -65.837)"/><path class="b" d="M87.592,90.34a10.135,10.135,0,0,0-2.914.67,3.547,3.547,0,0,1-2.311,0c-.168-.067-.7-.1-.068.6a3.009,3.009,0,0,0,.9.6c2.144,1.038,4.053.6,6.364-.435.569-.268,1.508-.234,1.508-.536-.033-.3-.5-.5-.838-.971a10.53,10.53,0,0,0-4.756-4.02c-1.005-.4-1.474-.1-1.173.168.737.7,1.105,2.01,2.077,3.115a2.738,2.738,0,0,0,1.206.8Zm3.283-.971c0-.7,1.072-1.775,1.273-2.411.234.636,1.273,1.708,1.273,2.411a1.273,1.273,0,0,1-2.545,0Zm0,3.484c0,.7,1.072,1.809,1.273,2.445.234-.637,1.273-1.742,1.273-2.445a1.273,1.273,0,0,0-2.545,0Z" transform="translate(-30.384 -49.531)"/><path class="b" d="M78.508,86.209a10.23,10.23,0,0,0-2.914-.368,3.707,3.707,0,0,1-2.076-.737c-.134-.134-.6-.369-.268.536a3.072,3.072,0,0,0,.6.8c1.641,1.674,3.517,1.909,5.929,1.708.636-.033,1.675.2,1.741-.1.068-.267-.436-.536-.6-1.038a10.265,10.265,0,0,0-2.981-5.259c-.771-.67-1.339-.536-1.139-.2.436.871.335,2.177.871,3.517A3.047,3.047,0,0,0,78.508,86.209Z" transform="translate(-27.63 -48.045)"/><path class="b" d="M71.286,79.342A8.412,8.412,0,0,0,68.74,78.2a3.43,3.43,0,0,1-1.708-1.273c-.1-.168-.469-.5-.435.4a4.7,4.7,0,0,0,.368.971c1.005,1.943,2.68,2.713,4.957,3.182.569.168,1.474.636,1.608.4.168-.2-.268-.6-.234-1.138a9.886,9.886,0,0,0-1.306-5.627c-.469-.871-1.038-.9-.938-.5.134.9-.3,2.077-.2,3.45a2.9,2.9,0,0,0,.436,1.272Z" transform="translate(-25.6 -45.901)"/><path class="b" d="M67.173,71.262A9.2,9.2,0,0,0,65.2,69.453a2.916,2.916,0,0,1-1.173-1.674c-.067-.168-.3-.569-.536.268a6.047,6.047,0,0,0,.067.971c.335,2.111,1.641,3.283,3.55,4.388.5.335,1.172,1.005,1.373.871.2-.168-.067-.636.1-1.106a9.459,9.459,0,0,0,.5-5.56c-.2-.938-.7-1.106-.7-.737-.167.871-.9,1.809-1.206,3.115a2.734,2.734,0,0,0,0,1.272Z" transform="translate(-24.635 -43.516)"/><path class="b" d="M66.143,61.959A9.214,9.214,0,0,0,65,59.716a3.032,3.032,0,0,1-.435-1.876c0-.134-.067-.6-.536.067a4.212,4.212,0,0,0-.3.871c-.4,1.942.368,3.417,1.641,5.057.335.435.67,1.306.871,1.206.234-.067.2-.569.5-.9a8.958,8.958,0,0,0,2.244-4.722c.134-.871-.234-1.24-.335-.9-.435.736-1.439,1.306-2.076,2.344a1.892,1.892,0,0,0-.436,1.106Z" transform="translate(-24.677 -40.677)"/><path class="b" d="M67.624,53.127a8.539,8.539,0,0,0-.5-2.345,2.824,2.824,0,0,1,.068-1.809c.033-.168.067-.6-.536-.1-.1.134-.268.4-.469.737-.837,1.674-.5,3.249.269,5.058.2.469.3,1.339.5,1.306.234,0,.335-.469.67-.737a8.678,8.678,0,0,0,3.249-3.751c.334-.77.066-1.206-.1-.938-.569.569-1.608.837-2.478,1.674a1.656,1.656,0,0,0-.671.9Z" transform="translate(-25.32 -37.907)"/><path class="b" d="M71.252,45.316a8.18,8.18,0,0,0,.2-2.412,2.708,2.708,0,0,1,.536-1.741c.1-.1.234-.5-.435-.2a2.209,2.209,0,0,0-.67.569c-1.306,1.373-1.407,2.981-1.173,4.924.067.536-.067,1.373.134,1.407.234.067.436-.369.871-.536a8.455,8.455,0,0,0,4.12-2.68c.536-.67.436-1.139.168-.938-.7.368-1.775.368-2.847.9A1.858,1.858,0,0,0,71.252,45.316Z" transform="translate(-26.537 -35.488)"/><path class="b" d="M76.489,39.534a6.439,6.439,0,0,0,.9-1.943A2.431,2.431,0,0,1,78.4,36.386c.134-.1.368-.4-.3-.335a2.5,2.5,0,0,0-.736.235c-1.474.737-2.077,2.01-2.512,3.684-.1.436-.469,1.106-.3,1.206s.469-.168.837-.168a7.352,7.352,0,0,0,4.254-.938c.636-.369.7-.771.435-.7-.7.1-1.574-.234-2.613-.168a1.7,1.7,0,0,0-.971.334Z" transform="translate(-28.056 -33.994)"/><path class="b" d="M82.6,35.765a6.488,6.488,0,0,0,1.138-1.474,2.117,2.117,0,0,1,1.072-.871c.134-.033.368-.268-.2-.335a1.757,1.757,0,0,0-.67.067A4.3,4.3,0,0,0,81.091,35.9c-.167.334-.637.871-.469.971.1.1.435-.1.77,0a6.186,6.186,0,0,0,3.818-.034c.6-.2.737-.536.5-.5-.637-.068-1.307-.5-2.245-.636A1.532,1.532,0,0,0,82.6,35.765Z" transform="translate(-29.946 -33.072)"/><path class="b" d="M89.1,33.576a2.865,2.865,0,0,1-1.876,1.339,2.712,2.712,0,0,1-2.244-.167,2.9,2.9,0,0,1,1.842-1.34A2.934,2.934,0,0,1,89.1,33.576Zm9.445,9.546a1.248,1.248,0,0,0,1.641-.67,1.415,1.415,0,0,0,.2-.7h.971V49.62h-.7c-1.206-3.283-4.22-6.464-7.738-7.235-3.483-.536-7.536-.469-9.545,2.579a2.441,2.441,0,0,0,.8,3.148c3.584,2.177,7.5,1.173,12.26,1.842a7.55,7.55,0,0,1,6.129,4.388,8.05,8.05,0,0,1-.2,6.966c-2.444,4.187-7,4.588-9.914,4.588-3.048,0-6.1-1.407-8.507-2.278a1.248,1.248,0,0,0-1.641.67,1.51,1.51,0,0,0-.2.7h-.971V56.685c.268,0,.569,0,.971.034a10.54,10.54,0,0,0,6.967,7.5c3.483,1.039,6.967.871,9.68-1.038a3.462,3.462,0,0,0,1.072-3.751c-.6-2.11-3.852-2.68-6.2-2.713-5.025-.134-11.12-.067-12.929-5.594a7.863,7.863,0,0,1,1.641-7.536c3.148-3.081,8.441-3.181,12.46-1.943,1.439.3,2.411,1.074,3.751,1.475ZM96.2,73.936a10.673,10.673,0,0,1,2.947.67,3.448,3.448,0,0,0,2.278,0c.167-.067.7-.1.068.6a3.009,3.009,0,0,1-.9.6c-2.143,1.038-4.053.6-6.33-.435-.6-.268-1.541-.234-1.508-.536,0-.3.469-.5.8-.971a10.524,10.524,0,0,1,4.757-4.02c1-.4,1.473-.1,1.171.168-.736.7-1.072,2.01-2.076,3.115A2.726,2.726,0,0,1,96.2,73.936Z" transform="translate(-29.88 -33.127)"/><path class="b" d="M111.151,86.209a10.23,10.23,0,0,1,2.914-.368,3.628,3.628,0,0,0,2.076-.737c.134-.134.6-.369.27.536a3.07,3.07,0,0,1-.6.8c-1.641,1.674-3.517,1.909-5.93,1.708-.636-.033-1.64.2-1.741-.1-.068-.267.436-.536.6-1.038a10.26,10.26,0,0,1,2.981-5.259c.77-.67,1.339-.536,1.137-.2-.435.871-.334,2.177-.87,3.517A3.077,3.077,0,0,1,111.151,86.209Z" transform="translate(-38.502 -48.045)"/><path class="b" d="M119.019,79.342a8.414,8.414,0,0,1,2.544-1.139,3.3,3.3,0,0,0,1.709-1.273c.1-.168.469-.5.435.4a4.652,4.652,0,0,1-.367.971c-1.006,1.943-2.68,2.713-4.957,3.182-.569.168-1.475.636-1.608.4-.134-.2.268-.6.234-1.138a9.88,9.88,0,0,1,1.306-5.627c.5-.871,1.038-.9.938-.5-.134.9.3,2.077.2,3.45A2.9,2.9,0,0,1,119.019,79.342Z" transform="translate(-41.179 -45.901)"/><path class="b" d="M123.65,71.262a8.552,8.552,0,0,1,2.01-1.809,3.256,3.256,0,0,0,1.171-1.674c.034-.168.268-.569.5.268a5.139,5.139,0,0,1-.034.971c-.334,2.111-1.674,3.283-3.583,4.388-.5.335-1.173,1.005-1.339.871-.2-.168.032-.636-.134-1.106a9.751,9.751,0,0,1-.5-5.56c.234-.938.7-1.106.7-.737.167.871.937,1.809,1.205,3.115a2.045,2.045,0,0,1,0,1.272Z" transform="translate(-42.662 -43.516)"/><path class="b" d="M124.868,61.959a10.631,10.631,0,0,1,1.139-2.244,3.037,3.037,0,0,0,.435-1.876c0-.134.1-.6.569.067a4.625,4.625,0,0,1,.268.871c.4,1.942-.369,3.417-1.608,5.057-.367.435-.7,1.306-.9,1.206-.234-.067-.167-.569-.469-.9a9.03,9.03,0,0,1-2.278-4.722c-.133-.871.236-1.24.335-.9.436.736,1.441,1.306,2.078,2.344a1.705,1.705,0,0,1,.435,1.106Z" transform="translate(-42.807 -40.677)"/><path class="b" d="M123.454,53.127a7.564,7.564,0,0,1,.469-2.345,2.771,2.771,0,0,0-.034-1.809c-.066-.168-.1-.6.5-.1a4.712,4.712,0,0,1,.47.737c.871,1.674.5,3.249-.234,5.058-.2.469-.335,1.339-.537,1.306-.233,0-.3-.469-.669-.737a8.9,8.9,0,0,1-3.249-3.751c-.3-.77-.066-1.206.134-.938.536.569,1.608.837,2.478,1.674a1.849,1.849,0,0,1,.67.9Z" transform="translate(-42.197 -37.907)"/><path class="b" d="M119.669,45.316A7.016,7.016,0,0,1,119.5,42.9a3.013,3.013,0,0,0-.569-1.741c-.068-.1-.234-.5.469-.2a2.744,2.744,0,0,1,.637.569c1.306,1.373,1.406,2.981,1.171,4.924-.066.536.068,1.373-.133,1.407-.234.067-.435-.369-.838-.536a8.4,8.4,0,0,1-4.153-2.68c-.536-.67-.4-1.139-.167-.938.7.368,1.774.368,2.848.9a1.857,1.857,0,0,1,.9.7Z" transform="translate(-40.857 -35.488)"/><path class="b" d="M114.481,39.486a7.128,7.128,0,0,1-.871-1.942,2.641,2.641,0,0,0-1-1.206c-.134-.1-.369-.4.3-.334a2.856,2.856,0,0,1,.738.234c1.473.737,2.076,2.01,2.479,3.685.1.469.5,1.106.334,1.206-.167.134-.469-.168-.871-.168a7.283,7.283,0,0,1-4.22-.9c-.671-.4-.7-.8-.469-.737.736.1,1.608-.234,2.646-.168a1.6,1.6,0,0,1,.939.334Z" transform="translate(-39.32 -33.979)"/><path class="b" d="M108.533,35.765a5.953,5.953,0,0,1-1.137-1.508,2.3,2.3,0,0,0-1.072-.871c-.134-.034-.369-.234.2-.3a1.712,1.712,0,0,1,.669.067,4.325,4.325,0,0,1,2.848,2.713c.167.368.636.871.469.971-.1.134-.435-.068-.77.034a6.323,6.323,0,0,1-3.785-.034c-.637-.2-.77-.569-.536-.536.637-.068,1.306-.5,2.245-.636A1.529,1.529,0,0,1,108.533,35.765Z" transform="translate(-37.626 -33.072)"/><path class="b" d="M100.414,33.576a2.864,2.864,0,0,0,1.876,1.339,2.713,2.713,0,0,0,2.245-.167,3.317,3.317,0,0,0-4.12-1.173Z" transform="translate(-36.105 -33.127)"/><path class="a" d="M23.459,115.888c0-3.8-2.684-6.355-6.862-6.506-3.949-.152-6.963-.152-6.963-2.964,0-2.608,2.633-3.088,4.684-3.088,5.368,0,6.938,4.963,7.166,5.849h.734v-6.229h-.734c-.026.583,0,1.393-.709,1.393-.936,0-2.709-1.873-6.71-1.873-3.9,0-6.71,2.633-6.71,6.254,0,3.215,2.658,5.976,6.533,6.025,3.7.051,7.039.253,7.039,3.241,0,2.711-2.912,3.419-5.57,3.47-4.608.05-6.659-3.039-7.52-6.331H7.128v6.863h.709s.152-1.393.988-1.393c1.544,0,2.2,1.874,6.634,1.874,5.241,0,8-3.064,8-6.584Zm18.434,6.1v-.911H40.273v-8.23c0-2.43-1.95-4.759-5.317-4.759a6.27,6.27,0,0,0-4.912,2.1v-7.241h-6v.911h1.544v17.219H23.916v.911h7.7v-.911h-1.57v-7.8c0-1.9,1.063-3.9,3.241-3.9a2.516,2.516,0,0,1,2.329,2.607v9.091H33.943v.911h7.951Zm14.212-6.863v-.987c0-3.088-2.2-6.28-6.861-6.28-4.229,0-7.368,2.558-7.368,7.419,0,4.811,3.469,7.192,7.647,7.192,2.684,0,6.051-1.191,6.482-5.343H55.4a4.733,4.733,0,0,1-4.634,4.152c-3.949,0-4.456-2.962-4.456-6.153Zm-4.152-.886H46.307s-.152-5.57,2.886-5.57C52.485,108.672,51.953,114.242,51.953,114.242Zm17.84-3.115a2.9,2.9,0,0,0-2.76-3.088,5.333,5.333,0,0,0-4.1,2.278v-1.974h-5.95v.886h1.342v11.85H56.651v.911H64.4v-.911H62.779v-5.951c0-3.037,1.722-6.229,4.152-6.229a1.117,1.117,0,0,1,.988.482,2.058,2.058,0,0,0-2.329,2.1,2.157,2.157,0,0,0,2.152,2.026A2.312,2.312,0,0,0,69.793,111.128Zm16.939,7.52v-1.037h-.709c0,.708,0,3.239-1.088,3.239a.991.991,0,0,1-1.064-1.088v-4.431c0-2.533.633-7.47-6.507-7.47-4.2,0-6.33,1.671-6.33,3.621a2.006,2.006,0,0,0,2.126,2.127,2.228,2.228,0,0,0,2-2.1,2.4,2.4,0,0,0-1.368-2.076,4.606,4.606,0,0,1,2.228-.583c1.722,0,3.292,1.014,3.292,2.76,0,4.66-9.09.962-9.09,7.014,0,1.6.911,3.849,4.457,3.849,3.494,0,4.152-1.393,4.811-2.38.809,1.368,1.444,2.329,3.342,2.329,2.861,0,3.9-1.341,3.9-3.772Zm-7.571-.279a3.187,3.187,0,0,1-2.43,2.811c-1.242,0-2.051-1.342-2.051-2.659,0-3.14,2.684-2.911,4.481-4.431Zm17.052.152v-.809h-.684c0,.987,0,3.088-1.646,3.088a1.592,1.592,0,0,1-1.544-1.8v-9.774H94.87v-.886H92.338v-4.735H91.68c-.431,2.2-1.9,4.735-4.988,4.735v.886h1.671V119a3.576,3.576,0,0,0,3.9,3.468,3.756,3.756,0,0,0,3.95-3.95Zm15.8-3.241c0-3.8-2.051-7.419-7.773-7.419-4.861,0-7.368,3.241-7.368,7.419,0,4.659,2.988,7.192,7.621,7.192C108.466,122.471,112.01,120.218,112.01,115.28Zm-4.3-.227c0,2.659-.506,6.456-3.369,6.456-3.012,0-3.29-4.71-3.29-6.128,0-2.3.481-6.658,3.519-6.658C107.149,108.723,107.706,112.191,107.706,115.053Zm22.475,6.938v-.911h-1.519V112.8c0-2.557-1.8-4.861-5.368-4.861a5.888,5.888,0,0,0-4.961,2.3v-1.9h-6v.886h1.544v11.85H112.2v.911h7.747v-.911h-1.62v-7.52c0-1.9,1.139-4.128,3.19-4.128a2.28,2.28,0,0,1,2.43,2.28v9.369h-1.671v.911Z" transform="translate(-7.128 -54.628)"/></svg>