<?xml version="1.0" encoding="utf-8"?>
<!-- Generator: Adobe Illustrator 25.4.1, SVG Export Plug-In . SVG Version: 6.00 Build 0)  -->
<svg version="1.1" id="Layer_1" xmlns="http://www.w3.org/2000/svg" xmlns:xlink="http://www.w3.org/1999/xlink" x="0px" y="0px"
	 width="109.6px" height="32px" viewBox="0 0 109.6 32" style="enable-background:new 0 0 109.6 32;" xml:space="preserve">
<style type="text/css">
	.st0{enable-background:new    ;}
	.st1{fill:#717379;}
	.st2{fill:#62D2A4;}
</style>
<g>
	<g class="st0">
		<path class="st1" d="M28.5,29.8V10.1H33c1.2,0,2.2,0.3,3.2,0.9c0.8,0.5,1.4,1.3,1.7,2.4c0.2,0.6,0.3,1.3,0.3,2.1
			c0,1.3-0.3,2.4-1.1,3.2c-0.3,0.3-0.6,0.6-1,0.8c0.7,0.3,1.2,0.8,1.7,1.5c0.3,0.5,0.5,1.2,0.7,2c0.1,0.4,0.1,0.9,0.1,1.4
			c0,1.2-0.2,2.3-0.7,3.2c-0.4,0.7-0.9,1.2-1.6,1.6c-0.8,0.5-1.5,0.7-2.2,0.7L28.5,29.8L28.5,29.8z M31.7,18.1H33
			c0.9,0,1.5-0.5,1.8-1.4c0.1-0.3,0.2-0.7,0.2-1.2c0-0.8-0.2-1.4-0.6-1.8c-0.4-0.4-0.9-0.6-1.4-0.6h-1.2V18.1z M31.7,26.8H33
			c1,0,1.7-0.5,2.1-1.6c0.1-0.3,0.2-0.8,0.2-1.2c0-1.1-0.2-1.9-0.6-2.4c-0.4-0.5-0.9-0.7-1.7-0.7h-1.2L31.7,26.8
			C31.8,26.8,31.7,26.8,31.7,26.8z"/>
		<path class="st1" d="M46.3,29.8h-3V10.1h3V29.8z"/>
		<path class="st1" d="M60.5,25c0,1.3-0.5,2.4-1.4,3.3c-0.9,0.9-2,1.4-3.3,1.4h-4.7V10.1h4.7c1.3,0,2.4,0.5,3.3,1.4
			c0.9,0.9,1.4,2,1.4,3.3L60.5,25L60.5,25z M54.1,26.8h1.8c0.5,0,0.9-0.2,1.2-0.5c0.3-0.3,0.5-0.7,0.5-1.2V14.8
			c0-0.5-0.2-0.9-0.5-1.2c-0.3-0.3-0.7-0.5-1.2-0.5h-1.8L54.1,26.8L54.1,26.8z"/>
	</g>
	<g class="st0">
		<path class="st1" d="M76.3,9.9c1.3,0,2.4,0.5,3.4,1.4c0.9,0.9,1.4,2,1.4,3.4v10.8c0,1.3-0.5,2.4-1.4,3.4c-0.9,0.9-2,1.4-3.4,1.4
			s-2.4-0.5-3.4-1.4c-0.9-0.9-1.4-2-1.4-3.4V14.6c0-1.3,0.5-2.4,1.4-3.4C73.9,10.3,75,9.9,76.3,9.9z M77.9,14.6
			c0-0.5-0.2-0.9-0.5-1.2c-0.3-0.3-0.7-0.5-1.2-0.5S75.3,13,75,13.3c-0.3,0.3-0.5,0.7-0.5,1.2v10.9c0,0.5,0.2,0.9,0.5,1.2
			c0.3,0.3,0.7,0.5,1.2,0.5s0.9-0.2,1.2-0.5c0.3-0.3,0.5-0.7,0.5-1.2V14.6z"/>
	</g>
	<rect id="Rectangle_17016" x="63.9" y="2.3" class="st2" width="4.1" height="29.2"/>
	<rect id="Rectangle_17018" x="59.4" y="1.8" class="st2" width="13" height="4.7"/>
	<path id="Rectangle_17019" class="st2" d="M58.5,0.4h2.3l0,0v7.8l0,0h-2.3c-0.4,0-0.7-0.3-0.7-0.7V1.1C57.8,0.7,58.1,0.4,58.5,0.4z
		"/>
	<path id="Rectangle_17020" class="st2" d="M71.1,0.4H74c0.4,0,0.7,0.3,0.7,0.7v6.4c0,0.4-0.3,0.7-0.7,0.7h-2.9l0,0V0.4L71.1,0.4z"
		/>
</g>
</svg>
