<?xml version="1.0" standalone="no"?>
<!DOCTYPE svg PUBLIC "-//W3C//DTD SVG 20010904//EN"
 "http://www.w3.org/TR/2001/REC-SVG-20010904/DTD/svg10.dtd">
<svg version="1.0" xmlns="http://www.w3.org/2000/svg"
 width="171.000000pt" height="171.000000pt" viewBox="0 0 171.000000 171.000000"
 preserveAspectRatio="xMidYMid meet">
<metadata>
Created by potrace 1.14, written by Peter Selinger 2001-2017
</metadata>
<g transform="translate(0.000000,171.000000) scale(0.100000,-0.100000)"
fill="#000000" stroke="none">
<path d="M487 1703 c-4 -3 -7 -77 -7 -164 0 -116 3 -158 13 -162 6 -2 36 -4
65 -4 48 0 52 2 53 23 1 13 2 29 3 36 1 15 124 18 129 3 2 -5 3 -326 2 -713 0
-386 2 -707 5 -712 3 -6 44 -9 91 -7 l84 2 1 710 c1 391 2 715 3 721 1 6 24 9
59 8 75 -2 73 -2 71 -16 -7 -54 -2 -58 65 -57 35 1 70 5 77 10 16 10 22 282 7
312 -8 15 -20 17 -81 15 l-72 -3 3 -27 3 -28 -225 0 -226 0 0 30 c0 30 0 30
-58 30 -32 0 -62 -3 -65 -7z"/>
</g>
</svg>
