<svg xmlns="http://www.w3.org/2000/svg" xmlns:xlink="http://www.w3.org/1999/xlink" width="424.488" height="424.488" viewBox="0 0 424.488 424.488"><defs><style>.a,.b,.c,.e{fill:#fff;}.a,.b,.c{fill-rule:evenodd;}.a{opacity:0.15;}.b{opacity:0.4;}.d{fill:#81e1ba;}.f{fill:none;stroke:#2fc3f2;stroke-linecap:round;stroke-linejoin:round;stroke-miterlimit:10;stroke-width:4px;}.g{filter:url(#a);}</style><filter id="a" x="126.181" y="123.01" width="172.127" height="172.127" filterUnits="userSpaceOnUse"><feOffset input="SourceAlpha"/><feGaussianBlur stdDeviation="10" result="b"/><feFlood flood-color="#fff"/><feComposite operator="in" in2="b"/><feComposite in="SourceGraphic"/></filter></defs><g transform="translate(-42.871 -43.332)"><g transform="translate(42.871 43.332)"><path class="a" d="M661.088,449.3A212.244,212.244,0,1,1,448.844,237.06,212.124,212.124,0,0,1,661.088,449.3ZM299.259,299.719A211.669,211.669,0,1,0,448.844,237.81,210.136,210.136,0,0,0,299.259,299.719Z" transform="translate(-236.6 -237.06)"/><path class="b" d="M739.923,587.281a153.1,153.1,0,1,1-153.1-153.1A153.013,153.013,0,0,1,739.923,587.281ZM479.067,479.527a152.475,152.475,0,1,0,107.754-44.6A151.375,151.375,0,0,0,479.067,479.527Z" transform="translate(-374.577 -375.037)"/><path class="c" d="M805.616,702.258A103.818,103.818,0,1,1,701.8,598.44,103.757,103.757,0,0,1,805.616,702.258Zm-206.885,0A103.068,103.068,0,1,0,701.8,599.19,103.184,103.184,0,0,0,598.73,702.258Z" transform="translate(-489.554 -490.014)"/></g><g transform="translate(157.75 104.941)"><rect class="d" width="194.887" height="294.93" transform="translate(0 0)"/><g transform="translate(-74.698 -41.096)"><g class="g" transform="matrix(1, 0, 0, 1, -40.18, -20.51)"><circle class="e" cx="56.064" cy="56.064" r="56.064" transform="translate(156.18 153.01)"/></g><path class="f" d="M58.521,15,29.893,47.207,12,32.893" transform="translate(136.804 157.458)"/></g></g></g></svg>