<?xml version="1.0" encoding="utf-8"?>
<!-- Generator: Adobe Illustrator 24.2.1, SVG Export Plug-In . SVG Version: 6.00 Build 0)  -->
<svg version="1.1" id="Layer_1" xmlns="http://www.w3.org/2000/svg" xmlns:xlink="http://www.w3.org/1999/xlink" x="0px" y="0px"
	 width="801px" height="75px" viewBox="0 0 801 75" style="enable-background:new 0 0 801 75;" xml:space="preserve">
<style type="text/css">
	.st0{fill:#C3C3C3;}
</style>
<g>
	<path class="st0" d="M424.95,21.15c2.5-3.15,5.99-4.85,10.96-4.83c13.04,0.06,26.08,0.03,39.12,0.01c3.99-0.01,7.57,0.89,9.61,3.57
		c2.73,3.6,6.78,6.48,9.52,9.89c2.76,3.42,5.35,3.93,10.12,3.77c17.5-0.58,34.62,1.67,51.34,5.47c17.2,3.91,34.58,5.68,52.32,3.15
		c17.95-2.57,33.25-8.86,44.66-20.11c2.87-2.83,6.22-5.28,10.27-7.14c11.57-5.31,24.36-6.39,37.41-6.01
		c23.53,0.69,46,5.33,67.97,11.5c10.65,2.99,21.58,5.06,32.73,6.52c0,0,0,0,0,0c-0.83,0.6-0.93,1.37-0.88,2.17
		c-14.89-1.91-29.03-5.79-43.31-9.41c-20.67-5.24-41.79-9.08-63.79-8.59c-10.07,0.22-19.87,1.54-28.68,5.66
		c-3.48,1.63-6.54,3.66-9.01,6.14c-12.08,12.13-28.39,18.83-47.63,21.52c-16.7,2.34-33.2,1.01-49.4-2.61
		c-18.82-4.2-37.9-7-57.59-5.93c-4.14,0.22-6.15-0.79-7.45-3.53c-0.46-0.96-1.27-1.88-2.94-2.89c0.98,5.51,1.13,10.56-0.03,15.88
		c1.77-0.72,2.48-1.75,2.97-2.76c1.38-2.83,4.12-3.85,7.84-3.99c10.54-0.4,20.95,0.34,31.38,1.53c12.22,1.4,23.81,4.76,35.9,6.5
		c19.53,2.81,38.78,2.42,57.43-3.43c12.55-3.94,23.41-9.73,31.84-17.98c6.28-6.14,14.75-9.19,24.53-10.43
		c19.39-2.46,38.16,0.45,56.87,3.91c13.07,2.42,25.5,6.34,38.34,9.29c7.43,1.71,14.98,3.1,22.69,3.93c0.01,0.04,0.01,0.09,0.02,0.13
		c-0.12,0.86,0.08,1.65,0.9,2.3v0c-10.33-1.43-20.67-2.96-30.54-5.7c-13.39-3.72-26.9-7.07-40.81-9.42
		c-14.86-2.5-29.81-4.15-45.05-2.56c-9.79,1.02-18.46,3.74-24.82,9.95c-8.88,8.68-20.31,14.81-33.62,18.81
		c-22.94,6.89-46.24,6.31-69.53,1.25c-18.58-4.04-37.31-6.73-56.73-5.85c-1.97,0.09-3.13,0.45-3.74,1.99
		c-0.91,2.29-2.92,4.1-5.39,5.48c-1.57,0.87-2.47,1.93-3.2,3.24c-2.66,4.78-6.84,7.42-14.21,7.22c-12.32-0.32-24.66-0.22-36.99-0.03
		c-5.57,0.09-9.19-1.74-11.82-5.25c-3.31-4.41-4.61-9.25-4.84-14.24C419.41,32.89,420.52,26.73,424.95,21.15z M443.72,56.59
		c10.3,0.02,20.6-0.05,30.89,0.04c4.07,0.03,7.15-1.14,8.94-3.87c6.65-10.15,6.68-20.35-0.08-30.47c-1.74-2.61-4.65-3.83-8.67-3.78
		c-10.19,0.12-20.39,0.04-30.59,0.04c-0.88,0-1.75,0-2.75,0c9.75,12.84,9.62,25.27,0.16,37.86
		C442.11,56.85,442.98,56.59,443.72,56.59z M426.36,51.56c0.81,1.25,1.81,2.41,3.17,3.37c2.89,2.05,6.07,2.22,8.91,0.15
		c4.4-3.21,5.88-7.46,6.78-11.89c0.15-0.75,0.76-6.11,0.36-9.31c-0.55-4.44-1.9-8.72-5.39-12.4c-3.7-3.9-8.46-3.93-12.12,0
		c-4.47,4.81-5.49,10.39-5.58,14.55C422.47,42.47,423.5,47.17,426.36,51.56z"/>
	<path class="st0" d="M800.99,29.23c-0.3-0.04-0.59-0.08-0.88-0.12c-0.05-0.8,0.05-1.57,0.88-2.17c0,0,0,0,0,0c0,0,0,0,0,0
		C800.98,27.7,800.99,28.47,800.99,29.23z"/>
	<path class="st0" d="M800.1,32.05c-0.01-0.04-0.01-0.09-0.02-0.13c0.3,0.03,0.61,0.07,0.91,0.1c0,0,0,0,0,0c0,0.77,0,1.55,0,2.32
		c0,0,0,0,0,0v0C800.18,33.71,799.99,32.92,800.1,32.05z"/>
	<path class="st0" d="M398.18,9.63c-1.05,0.05-1.41-0.58-1.5-1.2c-0.17-1.31-0.21-2.62-0.31-3.94c-0.03,0-0.06,0-0.08,0
		c0-1.08-0.03-2.17,0.01-3.25c0.03-0.66,0.31-1.27,1.38-1.24c0.87,0.03,1.17,0.55,1.22,1.13c0.2,2.39,0.4,4.79,0.56,7.18
		C399.49,8.97,399.22,9.58,398.18,9.63z"/>
	<path class="st0" d="M412.43,58.06c-0.18-0.7,0.1-1.02,0.54-1.23c0.57-0.28,1.24-0.25,1.65,0.14c1.99,1.93,3.97,3.88,5.87,5.87
		c0.44,0.46,0.3,1.04-0.41,1.42c-0.77,0.41-1.39,0.09-1.84-0.33c-1.46-1.38-2.87-2.79-4.27-4.2
		C413.36,59.12,412.81,58.48,412.43,58.06z"/>
	<path class="st0" d="M413.53,8.02c0.33-0.45,0.99-0.46,1.6-0.21c0.78,0.32,0.87,0.87,0.56,1.39c-1.03,1.67-2.13,3.31-3.23,4.95
		c-0.36,0.54-0.98,0.78-1.76,0.51c-0.6-0.2-0.95-0.56-0.77-1.48C410.97,11.67,412.21,9.83,413.53,8.02z"/>
	<path class="st0" d="M393.11,55.34c0.55-0.01,0.93,0.23,1.23,0.56c0.42,0.45,0.28,0.88-0.18,1.24c-1.61,1.25-3.24,2.5-4.86,3.74
		c-0.47,0.36-1.01,0.54-1.58,0.16c-0.36-0.24-0.62-0.57-0.82-0.76C386.86,59.45,392.19,55.35,393.11,55.34z"/>
	<path class="st0" d="M384.95,19.76c-0.94-0.05-6.31-4.54-6.21-5.21c0.14-0.95,1-1.56,2.02-0.84c1.9,1.35,3.64,2.85,5.22,4.42
		C386.73,18.87,386.15,19.58,384.95,19.76z"/>
	<path class="st0" d="M398.29,65.15c0.23-0.68,0.81-1.11,1.75-0.95c1.15,0.19,1.26,0.85,1,1.61c-0.49,1.41-0.96,2.82-1.44,4.22
		c-0.25,0.74-0.7,1.32-1.88,1.07c-1.04-0.22-0.98-0.85-0.89-1.5C397.31,68.12,397.78,66.63,398.29,65.15z"/>
	<path class="st0" d="M412.37,69.3c0.62-0.14,1.29-0.14,1.58,0.35c0.82,1.4,1.61,2.83,1.83,4.37c0.09,0.67-0.64,0.88-1.54,0.98
		c-0.23-0.12-0.68-0.24-0.83-0.48c-0.87-1.39-1.61-2.82-1.84-4.36C411.51,69.76,411.82,69.42,412.37,69.3z"/>
	<path class="st0" d="M394.99,18.43c-2.65-0.35-1.72-2.48-2.8-3.46c-0.11-0.87,0.21-1.62,1.13-1.47c2.54,0.4,1.94,2.41,2.79,3.68
		C396.58,17.85,395.81,18.54,394.99,18.43z"/>
	<path class="st0" d="M425.29,35.66C425.29,35.66,425.29,35.66,425.29,35.66C425.29,35.66,425.29,35.66,425.29,35.66
		c-0.01-1.54,0.36-3.22,2.58-3.35c0.04,0,0.09,0,0.13,0c0.1,0,0.2-0.01,0.3-0.01c0.01,0,0.01,0,0.02,0c0.01,0,0.03,0,0.04,0
		c2.69,0.08,2.78,1.91,2.78,3.49c0,0,0,0,0,0c0,0,0,0,0,0c0,0,0,0,0,0c0.01,1.54-0.36,3.22-2.58,3.35c-0.04,0-0.09,0-0.13,0
		c-0.1,0-0.2,0.01-0.3,0.01c-0.01,0-0.01,0-0.02,0c-0.01,0-0.03,0-0.04,0C425.39,39.07,425.3,37.24,425.29,35.66
		C425.29,35.66,425.29,35.66,425.29,35.66z"/>
	<path class="st0" d="M437.59,38.53C437.59,38.53,437.59,38.53,437.59,38.53c-0.01-1.54,0.36-3.22,2.58-3.35c0.04,0,0.09,0,0.13,0
		c0.1,0,0.19-0.01,0.3-0.01c0.01,0,0.01,0,0.02,0c0.01,0,0.03,0,0.04,0c2.69,0.08,2.78,1.91,2.78,3.49c0,0,0,0,0,0c0,0,0,0,0,0
		c0,0,0,0,0,0c0.01,1.54-0.36,3.22-2.58,3.35c-0.04,0-0.09,0-0.13,0c-0.1,0-0.19,0.01-0.3,0.01c-0.01,0-0.01,0-0.02,0
		c-0.01,0-0.03,0-0.04,0C437.69,41.94,437.6,40.1,437.59,38.53C437.59,38.53,437.59,38.53,437.59,38.53
		C437.59,38.53,437.59,38.53,437.59,38.53z"/>
	<path class="st0" d="M0.9,32.12c0.01-0.04,0.01-0.09,0.02-0.13c7.7-0.83,15.26-2.22,22.69-3.93c12.84-2.95,25.28-6.87,38.34-9.29
		c18.71-3.47,37.48-6.38,56.87-3.91c9.78,1.24,18.26,4.3,24.53,10.43c8.44,8.25,19.29,14.03,31.84,17.98
		c18.65,5.85,37.9,6.24,57.43,3.43c12.09-1.74,23.68-5.1,35.9-6.5c9.79-1.12,19.58-1.84,29.46-1.59c0.22,0,0.44,0,0.66,0.01
		c0.21,0.01,0.41,0.02,0.61,0.03c0.21,0.01,0.43,0.01,0.64,0.02l0.03,0.05c2.11,0.28,3.52,1.12,4.29,3.18
		c1.48,3.94,7.13,6.76,12.44,7.02c2.33,0.11,4-0.5,5.01-2.01c4.12-6.14,4.13-12.37,0.1-18.51c-1.64-2.49-4.12-2.89-8.4-1.72
		c-4.64,1.26-8.1,3.56-9.49,7.25c-0.65,1.71-1.66,2.08-3.58,2.04l0,0c-0.05,0-0.11,0-0.16-0.01c-0.11,0-0.21-0.01-0.32-0.01
		c-19.51-0.99-38.43,1.79-57.1,5.96c-16.19,3.62-32.7,4.95-49.4,2.61c-19.23-2.7-35.55-9.39-47.63-21.52
		c-2.47-2.48-5.52-4.51-9.01-6.14c-8.81-4.13-18.61-5.44-28.68-5.66c-22.01-0.49-43.13,3.35-63.79,8.59
		c-14.28,3.62-28.42,7.5-43.31,9.41c0.05-0.8-0.05-1.57-0.88-2.17c0,0,0,0,0,0c11.15-1.45,22.08-3.53,32.73-6.52
		c21.97-6.17,44.45-10.81,67.97-11.5c13.04-0.38,25.84,0.7,37.41,6.01c4.05,1.86,7.4,4.31,10.27,7.14
		c11.41,11.25,26.71,17.54,44.66,20.11c17.74,2.54,35.12,0.76,52.32-3.15c16.72-3.8,33.85-6.05,51.34-5.47l0.02,0.01
		c0.8,0.01,1.66,0.05,2.61,0.12c1.39,0.11,1.69-0.53,2.08-1.28c1.26-2.45,3.34-4.42,6.12-5.93c1.21-0.66,1.93-1.5,2.49-2.54
		c2.77-5.14,7.24-7.97,15.08-7.75c12.02,0.33,24.06,0.18,36.09,0.05c5.71-0.06,9.7,1.75,12.23,5.55c1.23,1.85,1.61,4.42,3.51,5.52
		c2.06,1.2,5.47,0.2,8.28,0.42c2.59,0.2,4.44,1.67,4.45,3.46c0.01,1.9-1.9,3.39-4.65,3.55c-1.41,0.08-2.84,0.12-4.24,0.03
		c-1.87-0.11-2.93,0.27-2.6,1.9c0.11,0.53,0.1,1.09,0,1.62c-0.31,1.55,0.53,2.02,2.51,1.98c4.55-0.09,9.1-0.06,13.65-0.01
		c3.09,0.03,5,1.35,5.08,3.38c0.09,2.11-1.92,3.61-5.07,3.65c-3.74,0.05-7.52,0.27-11.21-0.04c-4.61-0.38-7.11,0.57-8.7,4.24
		c-2.06,4.76-6.52,7.39-13.82,7.2c-12.62-0.32-25.27-0.16-37.91-0.05c-4.39,0.04-7.8-1.2-9.95-3.97c-2.52-3.25-5.01-6.41-8.86-8.9
		c-1.23-0.79-1.97-2.17-2.53-3.39c-0.52-1.14-1.22-1.58-2.79-1.63c-0.21-0.01-0.41-0.02-0.62-0.03c-18.3-0.47-36.03,2.13-53.6,5.95
		c-23.29,5.06-46.59,5.64-69.53-1.25c-13.31-4-24.74-10.12-33.62-18.81c-6.35-6.21-15.02-8.93-24.82-9.95
		c-15.24-1.59-30.19,0.06-45.05,2.56c-13.92,2.34-27.42,5.7-40.81,9.42c-9.87,2.74-20.21,4.27-30.54,5.7v0
		C0.82,33.77,1.01,32.98,0.9,32.12z M379.75,32.81c0.7-0.04,1.41-0.01,2.38-0.01c1.49-0.3,4.52,0.76,4.46-1.6
		c-0.06-2.12-2.92-1.2-4.63-1.4c-0.69-0.08-1.41-0.04-2.11-0.01c-1.03,0.05-2.34-0.27-2.3,1.15
		C377.57,32.12,377.94,32.92,379.75,32.81z M379.51,45.34c2.42,0.01,4.83,0,7.25,0c0-0.02,0-0.04,0-0.05c2.52,0,5.03,0.03,7.55-0.01
		c1.2-0.02,2.24-0.37,2.23-1.47c-0.01-1.1-1.06-1.44-2.26-1.44c-4.93-0.03-9.86,0-14.8-0.03c-1.75-0.01-1.85,0.85-1.94,1.84
		C377.42,45.38,378.48,45.34,379.51,45.34z M330.62,56.58c10.3,0.02,20.6-0.09,30.89,0.06c4.42,0.06,7.28-1.42,9.34-4.17
		c2.19-2.92,3.53-6.07,4.02-9.4c0.93-6.37,0.69-12.66-2.8-18.67c-2.31-3.97-5.69-6.17-11.89-5.95c-9.57,0.34-19.18,0.09-28.77,0.09
		c-0.97,0-1.95,0-2.92,0c9.77,12.72,9.76,25.22,0.09,37.91C329.02,56.89,329.89,56.58,330.62,56.58z M313.46,51.65
		c1.83,2.37,3.77,4.85,7.85,4.81c3.95-0.03,6.04-2.37,7.48-4.8c5.57-9.39,5.52-18.84,0.04-28.27c-0.04-0.07-0.11-0.13-0.16-0.2
		c-1.75-2.35-3.72-4.72-7.7-4.55c-4.29,0.18-6.08,2.88-8.08,5.54c3.15,0.1,6.12-0.83,8.67,0.79c2.96,1.88,4.33,4.41,5.08,7.19
		c1.19,4.4,1.18,8.78-0.83,13.03c-2.48,5.25-5.26,6.45-12.71,5.62C313.28,51.22,313.32,51.46,313.46,51.65z"/>
</g>
</svg>
