<svg xmlns="http://www.w3.org/2000/svg" width="17.081" height="20.291" viewBox="0 0 17.081 20.291"><defs><style>.a{fill:#81e1ba;}</style></defs><path class="a" d="M10.74,20.291H3.17A3.174,3.174,0,0,1,0,17.12V6.38A3.174,3.174,0,0,1,3.17,3.21H10.74a3.174,3.174,0,0,1,3.17,3.17V17.12A3.174,3.174,0,0,1,10.74,20.291ZM3.17,4.8A1.587,1.587,0,0,0,1.585,6.38V17.12A1.587,1.587,0,0,0,3.17,18.705H10.74a1.587,1.587,0,0,0,1.585-1.585V6.38A1.587,1.587,0,0,0,10.74,4.8Zm13.91,10.343V3.17A3.174,3.174,0,0,0,13.91,0h-8.8a.793.793,0,0,0,0,1.585h8.8A1.587,1.587,0,0,1,15.5,3.17V15.139a.793.793,0,0,0,1.585,0Zm0,0"/></svg>