<svg xmlns="http://www.w3.org/2000/svg" width="21.77" height="13.279" viewBox="0 0 21.77 13.279"><defs><style>.a{fill:#fff;stroke:#81e1ba;}</style></defs><g transform="translate(0.501 0.582)"><path class="a" d="M.683,8.742a.9.9,0,0,0,.1,1.27l4.444,3.81a.894.894,0,0,0,.585.217c.026,0,.053,0,.08,0a.9.9,0,0,0,.617-.325l7.6-9.251a.9.9,0,0,0-.124-1.268L12.593,2.046a.9.9,0,0,0-1.267.124l-5.85,7.12L3.125,7.277a.9.9,0,0,0-1.27.1Z" transform="translate(6.455 -1.842)"/><path class="a" d="M.683,8.742a.9.9,0,0,0,.1,1.27l4.444,3.81a.894.894,0,0,0,.585.217c.026,0,.053,0,.08,0a.9.9,0,0,0,.617-.325l7.6-9.251a.9.9,0,0,0-.124-1.268L12.593,2.046a.9.9,0,0,0-1.267.124l-5.85,7.12L3.125,7.277a.9.9,0,0,0-1.27.1Z" transform="translate(-0.466 -1.842)"/></g></svg>