<?xml version="1.0" encoding="utf-8"?>
<!-- Generator: Adobe Illustrator 25.4.1, SVG Export Plug-In . SVG Version: 6.00 Build 0)  -->
<svg version="1.1" id="Layer_1" xmlns="http://www.w3.org/2000/svg" xmlns:xlink="http://www.w3.org/1999/xlink" x="0px" y="0px"
	 width="9.5px" height="8.8px" viewBox="0 0 9.5 8.8" style="enable-background:new 0 0 9.5 8.8;" xml:space="preserve">
<style type="text/css">
	.st0{fill:#81E1BA;}
</style>
<g transform="translate(-250.595 -47.6)">
	<g transform="translate(255.361 47.6)">
		<g transform="translate(0 0)">
			<path class="st0" d="M-4.7,4.2C-4.7,4.2-4.7,4.2-4.7,4.2c-0.1,0.1-0.1,0.4,0,0.5l4.1,4.1c0.1,0.1,0.3,0.1,0.5,0
				C0,8.6,0,8.4-0.1,8.2l-3.8-3.8l3.8-3.8c0,0,0,0,0,0C0,0.4,0,0.2-0.1,0.1s-0.4-0.1-0.5,0L-4.7,4.2L-4.7,4.2z"/>
		</g>
	</g>
	<g transform="translate(250.595 47.6)">
		<g transform="translate(0 0)">
			<path class="st0" d="M4.9,4.2C4.9,4.2,4.9,4.2,4.9,4.2c-0.1,0.1-0.1,0.4,0,0.5l4.1,4.1c0.1,0.1,0.3,0.1,0.5,0
				c0.1-0.1,0.1-0.3,0-0.5L5.6,4.4l3.8-3.8c0,0,0,0,0,0c0.1-0.1,0.1-0.4,0-0.5S9.1,0,8.9,0.1L4.9,4.2L4.9,4.2z"/>
		</g>
	</g>
</g>
</svg>
