<svg xmlns="http://www.w3.org/2000/svg" width="31.896" height="30.494" viewBox="0 0 31.896 30.494"><defs><style>.a{fill:#ffc850;}.b{fill:#ffaa4d;}.c{fill:#e9ebf2;}.d{fill:#dfe2ea;}.e{fill:#c7cad3;}.f{fill:#ffdc64;}</style></defs><path class="a" d="M51.436,30.494H25.667a2.887,2.887,0,0,1-3.064-2.67V12.776L37.036.5A2.244,2.244,0,0,1,39.853.493L54.5,12.776V27.824A2.887,2.887,0,0,1,51.436,30.494Z" transform="translate(-22.603 0)"/><path class="b" d="M75.647,51.719V48.371L64.881,39.342H57.692L47.1,48.351v3.368l14.149,7.907Z" transform="translate(-45.424 -36.999)"/><path class="c" d="M96.27,72.581l-12.753,7-12.531-7V63.136a1.64,1.64,0,0,1,1.74-1.517h21.8a1.64,1.64,0,0,1,1.74,1.517v9.445Z" transform="translate(-67.68 -57.949)"/><path class="d" d="M70.986,206.058v2.359l12.531,7,12.753-7v-2.359L85.447,212a4.041,4.041,0,0,1-3.851-.013Z" transform="translate(-67.68 -193.786)"/><g transform="translate(6.086 5.955)"><path class="e" d="M130.852,100.991H112.24a.505.505,0,1,1,0-1h18.612a.505.505,0,1,1,0,1Z" transform="translate(-111.665 -99.989)"/><path class="e" d="M123.328,217.587H112.24a.505.505,0,1,1,0-1h11.088a.505.505,0,1,1,0,1Z" transform="translate(-111.665 -209.641)"/><path class="e" d="M119.932,139.857H112.24a.506.506,0,1,1,0-1h7.692a.506.506,0,1,1,0,1Z" transform="translate(-111.665 -136.54)"/><path class="e" d="M117.075,178.722H112.24a.506.506,0,1,1,0-1h4.835a.506.506,0,1,1,0,1Z" transform="translate(-111.665 -173.09)"/><path class="e" d="M216.419,178.722h-6.171a.506.506,0,1,1,0-1h6.171a.506.506,0,1,1,0,1Z" transform="translate(-202.977 -173.09)"/><path class="e" d="M334.27,178.722h-3.826a.506.506,0,1,1,0-1h3.826a.506.506,0,1,1,0,1Z" transform="translate(-314.959 -173.09)"/><path class="e" d="M308.739,217.587h-5.7a.505.505,0,1,1,0-1h5.7a.505.505,0,1,1,0,1Z" transform="translate(-289.429 -209.641)"/><path class="e" d="M264.627,139.857h-8.8a.506.506,0,1,1,0-1h8.8a.506.506,0,1,1,0,1Z" transform="translate(-245.441 -136.54)"/></g><path class="f" d="M25.667,232.23H51.436a2.887,2.887,0,0,0,3.064-2.67V214.512L38.44,223.371,22.6,214.512V229.56A2.887,2.887,0,0,0,25.667,232.23Z" transform="translate(-22.603 -201.736)"/><path class="a" d="M33.058,372.115H58.827a3.328,3.328,0,0,0,1.986-.638l-14.981-8.221-15.295,7.7A3.207,3.207,0,0,0,33.058,372.115Z" transform="translate(-29.994 -341.621)"/></svg>