<svg xmlns="http://www.w3.org/2000/svg" width="20.576" height="36.253" viewBox="0 0 20.576 36.253"><defs><style>.a{fill:#6aa9ff;}.b{fill:#2682ff;}</style></defs><path class="a" d="M14.968,10.051v2.22h4.126a1.787,1.787,0,0,1,.87.221,1.765,1.765,0,0,1,.9,1.538l0,5.611A1.761,1.761,0,0,1,19.108,21.4h-4.14V34.494a1.76,1.76,0,0,1-1.758,1.758H7.4a1.761,1.761,0,0,1-1.759-1.758V21.4H2.258A1.761,1.761,0,0,1,.5,19.641V14.029a1.76,1.76,0,0,1,1.758-1.758H5.645V9.462a9.567,9.567,0,0,1,2.53-6.854A8.205,8.205,0,0,1,10.5.937,10.06,10.06,0,0,1,14.894,0l4.427.007a1.76,1.76,0,0,1,1.755,1.758v5.21a1.76,1.76,0,0,1-1.758,1.758h-2.98c-.909,0-1.141.182-1.19.238-.082.093-.179.355-.179,1.078Zm0,0" transform="translate(-0.5 0)"/><path class="b" d="M146.224,10.051v2.22h4.126a1.787,1.787,0,0,1,.87.221,1.765,1.765,0,0,1,.9,1.538l0,5.611a1.761,1.761,0,0,1-1.758,1.759h-4.14V34.494a1.76,1.76,0,0,1-1.758,1.758h-2.708V.937A10.06,10.06,0,0,1,146.149,0l4.427.007a1.76,1.76,0,0,1,1.756,1.758v5.21a1.76,1.76,0,0,1-1.758,1.758h-2.98c-.909,0-1.141.182-1.19.238-.082.093-.179.355-.179,1.078Zm0,0" transform="translate(-131.756 0.001)"/></svg>