<svg xmlns="http://www.w3.org/2000/svg" width="19.973" height="19.973" viewBox="0 0 19.973 19.973"><defs><style>.a{fill:#81e1ba;}</style></defs><g transform="translate(0 -0.001)"><g transform="translate(0 0.001)"><path class="a" d="M251.021,188.15a.478.478,0,0,1,.514.43.39.39,0,0,0,.78,0,1.224,1.224,0,0,0-.9-1.154v-.054a.39.39,0,0,0-.78,0v.054a1.224,1.224,0,0,0-.9,1.154,1.256,1.256,0,0,0,1.294,1.21.437.437,0,1,1-.514.43.39.39,0,0,0-.78,0,1.224,1.224,0,0,0,.9,1.154v.054a.39.39,0,0,0,.78,0v-.054a1.224,1.224,0,0,0,.9-1.154,1.256,1.256,0,0,0-1.294-1.21.437.437,0,1,1,0-.86Z" transform="translate(-239.985 -179.688)"/><path class="a" d="M19.914,13.033a1.491,1.491,0,0,0-2.136-.9A6.874,6.874,0,0,0,17.5,8.814a.39.39,0,1,0-.738.253,6.09,6.09,0,0,1,.012,3.9L13.662,15.73a3.135,3.135,0,0,1-.626.432,1.5,1.5,0,0,0-.807-1.711L9.476,13.132a5.006,5.006,0,0,0-3.866-.183l-.28.1A6.025,6.025,0,0,1,6.757,6.758L9.511,4H12.56l2.333,2.333a.39.39,0,1,0,.552-.552l-2.23-2.229.806-2.319A.7.7,0,0,0,12.863.51l0,0a.414.414,0,0,1-.585,0,1.758,1.758,0,0,0-2.483,0,.414.414,0,0,1-.585,0,.7.7,0,0,0-1.159.728l.81,2.313-2.65,2.65A6.833,6.833,0,0,0,4.6,13.32l-.615.226a1.117,1.117,0,0,0-.887-.438H1.118A1.12,1.12,0,0,0,0,14.226v4.629a1.12,1.12,0,0,0,1.118,1.118H11.4a6.138,6.138,0,0,0,4.3-1.745l3.82-3.712A1.489,1.489,0,0,0,19.914,13.033ZM9.5,1.416a1.186,1.186,0,0,0,.844-.35.977.977,0,0,1,1.38,0,1.2,1.2,0,0,0,1.475.17l-.69,1.987H9.566L8.871,1.239A1.186,1.186,0,0,0,9.5,1.416ZM.78,18.856V14.226a.338.338,0,0,1,.338-.338H3.095a.338.338,0,0,1,.338.338v4.629a.338.338,0,0,1-.338.338H1.118A.338.338,0,0,1,.78,18.856Zm18.2-4.9-3.82,3.712A5.362,5.362,0,0,1,11.4,19.194H4.161a1.114,1.114,0,0,0,.052-.338V14.292l1.665-.611a4.222,4.222,0,0,1,3.26.155l2.754,1.319a.718.718,0,0,1,.3,1.023.717.717,0,0,1-.829.309L7.707,15.323a.39.39,0,1,0-.236.744l3.659,1.163a1.5,1.5,0,0,0,.456.071l.055,0a3.907,3.907,0,0,0,2.541-.986l3.827-3.4a.715.715,0,0,1,.621-.164.712.712,0,0,1,.348,1.207Z" transform="translate(0 -0.001)"/><path class="a" d="M409.129,179.77a.39.39,0,1,0-.276-.114A.391.391,0,0,0,409.129,179.77Z" transform="translate(-392.794 -172.008)"/></g></g></svg>