<?xml version="1.0" encoding="utf-8"?>
<!-- Generator: Adobe Illustrator 25.4.1, SVG Export Plug-In . SVG Version: 6.00 Build 0)  -->
<svg version="1.1" id="Layer_1" xmlns="http://www.w3.org/2000/svg" xmlns:xlink="http://www.w3.org/1999/xlink" x="0px" y="0px"
	 width="17.8px" height="21.4px" viewBox="0 0 17.8 21.4" style="enable-background:new 0 0 17.8 21.4;" xml:space="preserve">
<style type="text/css">
	.st0{fill:#FFFFFF;stroke:#FFFFFF;stroke-width:0.3;}
</style>
<g transform="translate(0.15 0.15)">
	<path class="st0" d="M0.7,0C0.3,0,0,0.3,0,0.7l0,19.8c0,0,0,0,0,0c0,0.4,0.3,0.7,0.7,0.7h14.5l0,0c0.4,0,0.7-0.3,0.7-0.7v-2h-1.3
		v1.3H1.3V1.3h13.2v1.3h1.3v-2c0,0,0,0,0,0c0-0.4-0.3-0.7-0.7-0.7L0.7,0C0.7,0,0.7,0,0.7,0z"/>
	<path class="st0" d="M8.1,11.2h9.4V9.9H8.1L11,7.1L10,6.1l-4.4,4.4L10,15l0.9-0.9L8.1,11.2z"/>
</g>
</svg>
