<svg xmlns="http://www.w3.org/2000/svg" width="82.236" height="50.986" viewBox="0 0 82.236 50.986"><defs><style>.a{fill:#717379;font-size:31px;font-family:Bebas;letter-spacing:0.1em;}.b{fill:#62d2a4;}</style></defs><g transform="translate(-3.83 -31.541)"><g transform="translate(4.83 31.541)"><text class="a" transform="translate(23 40.973)"><tspan x="-23.025" y="0">BID</tspan></text><text class="a" transform="translate(64.236 40.973)"><tspan x="0" y="0">O</tspan></text><g transform="translate(43.39 0)"><rect class="b" width="6.216" height="48.085" transform="translate(9.117 2.901)"/><rect class="b" width="19.478" height="7.045" transform="translate(2.487 2.072)"/><path class="b" d="M3,0H4.559a0,0,0,0,1,0,0V11.6a0,0,0,0,1,0,0H3a3,3,0,0,1-3-3V3A3,3,0,0,1,3,0Z" transform="translate(0 0)"/><path class="b" d="M0,0H2.388a3,3,0,0,1,3,3V8.6a3,3,0,0,1-3,3H0a0,0,0,0,1,0,0V0A0,0,0,0,1,0,0Z" transform="translate(19.892 0)"/></g></g></g></svg>