<svg xmlns="http://www.w3.org/2000/svg" width="20.045" height="20.024" viewBox="0 0 20.045 20.024"><defs><style>.a{opacity:0.39;}</style></defs><g class="a"><path d="M12.378,82.473,1.349,93.5a.44.44,0,0,0-.115.2L.012,98.611a.434.434,0,0,0,.421.539.431.431,0,0,0,.105-.013l4.907-1.223a.434.434,0,0,0,.2-.114l11.03-11.029Zm0,0" transform="translate(0 -79.126)"/><path d="M340.13,2.089,338.9.862a2.223,2.223,0,0,0-3.07,0l-1.5,1.5,4.3,4.3,1.5-1.5a2.172,2.172,0,0,0,0-3.07Zm0,0" transform="translate(-320.721 -0.246)"/></g></svg>