<svg xmlns="http://www.w3.org/2000/svg" width="17.086" height="17.787" viewBox="0 0 17.086 17.787"><defs><style>.a{fill:#fff;}</style></defs><g transform="translate(0 0)"><path class="a" d="M17.655,15.86c-.043.04-.132.108-.194.153a7.567,7.567,0,0,1-4.483,1.77c-2.77-.128-6.452-3.866-7.514-5.009S.941,7.687,1.017,4.917a4.669,4.669,0,0,1,.289-1.454A9.5,9.5,0,0,1,3.1.59s.122-.143.181-.2a1.648,1.648,0,0,1,.67-.337A1.579,1.579,0,0,1,4.37,0a1.712,1.712,0,0,1,.568.092,1.653,1.653,0,0,1,.64.383c.1.11,2.059,2.607,2.07,2.623l.012.019a1.73,1.73,0,0,1,.241.42,1.674,1.674,0,0,1,.017,1.174,1.59,1.59,0,0,1-.412.628L6.589,6.2A.832.832,0,0,0,6.4,6.48a.761.761,0,0,0-.014.119l5.352,5.759a.1.1,0,0,0,.035.025l.021-.008a1.989,1.989,0,0,0,.314-.245l.919-.849a1.661,1.661,0,0,1,1.82-.275,1.973,1.973,0,0,1,.439.306l.041.033c.019.017,2.326,2.119,2.413,2.213a1.734,1.734,0,0,1,.359,1.125,1.684,1.684,0,0,1-.2.867A1.536,1.536,0,0,1,17.655,15.86Zm-.664-1.586c-.119-.118-2.215-2.031-2.325-2.131l-.085-.07a.906.906,0,0,0-.188-.135.606.606,0,0,0-.662.1l-.92.85a2.55,2.55,0,0,1-.611.437,1.1,1.1,0,0,1-.44.094,1.114,1.114,0,0,1-.777-.356L5.576,7.249a1.06,1.06,0,0,1-.195-.957,1.76,1.76,0,0,1,.5-.853l.92-.859a.558.558,0,0,0,.142-.219.646.646,0,0,0-.007-.447.713.713,0,0,0-.1-.173A.647.647,0,0,1,6.8,3.688C6.61,3.448,4.923,1.3,4.825,1.185a.89.89,0,0,0-.249-.123.709.709,0,0,0-.205-.026.538.538,0,0,0-.135.013,1.045,1.045,0,0,0-.251.1c-.033.033-.091.1-.1.115a8.5,8.5,0,0,0-1.6,2.55,3.634,3.634,0,0,0-.228,1.131C2,6.836,4.267,9.965,6.223,12.069s4.911,4.593,6.8,4.68a6.52,6.52,0,0,0,3.8-1.554l.037-.028c.022-.016.064-.046.081-.061a.65.65,0,0,0,.068-.1.75.75,0,0,0,.052-.278A1.554,1.554,0,0,0,16.991,14.274Z" transform="translate(-1.015 0)"/></g></svg>