<svg xmlns="http://www.w3.org/2000/svg" width="22.448" height="24.99" viewBox="0 0 22.448 24.99"><defs><style>.a{fill:#955ba5;}.b{fill:#894b9d;}.c{fill:#bdc3c7;}.d{fill:#f29c1f;}.e{fill:#c03a2b;}.f{fill:#e64c3c;}.g{fill:#b49aca;}.h{fill:#f0c419;}.i{fill:#f3d55b;}</style></defs><ellipse class="a" cx="5.785" cy="5.785" rx="5.785" ry="5.785" transform="translate(1.052)"/><path class="b" d="M22.93,5.93A5.93,5.93,0,0,1,17,11.859V0a5.93,5.93,0,0,1,5.93,5.93Z" transform="translate(-9.8)"/><path class="c" d="M42.424,55.541A.424.424,0,0,1,42,55.118V53.424a.424.424,0,1,1,.847,0v1.694A.424.424,0,0,1,42.424,55.541Z" transform="translate(-24.211 -30.552)"/><path class="c" d="M42.694,5.93V2.541a.847.847,0,0,1,1.694,0v.424a.847.847,0,0,0,1.694,0V2.541a2.541,2.541,0,0,0-5.083,0V5.93Z" transform="translate(-23.634)"/><path class="d" d="M10.506,35.659a.424.424,0,0,1-.424-.424V33.965a2.118,2.118,0,0,0-4.236,0v1.271a.424.424,0,0,1-.847,0V33.965a2.965,2.965,0,0,1,5.93,0v1.271A.424.424,0,0,1,10.506,35.659Z" transform="translate(-2.882 -17.87)"/><path class="e" d="M41.471,13.377A.974.974,0,0,0,40.712,13H36.053a.974.974,0,0,0-.758.377,1.457,1.457,0,0,0-.271,1.2l.076.407,2.867,15.455a.424.424,0,0,0,.83,0l2.867-15.464.072-.394a1.449,1.449,0,0,0-.267-1.207Z" transform="translate(-20.17 -7.494)"/><path class="f" d="M41.62,16.377A.974.974,0,0,0,40.862,16H36.2a.974.974,0,0,0-.758.377,1.283,1.283,0,0,0-.195.339l2.867,15.455a.424.424,0,0,0,.83,0l2.867-15.464A1.283,1.283,0,0,0,41.62,16.377Z" transform="translate(-20.32 -9.223)"/><path class="g" d="M13.568,11.186a.424.424,0,0,1-.424-.424,3.8,3.8,0,0,1,.482-2.1c.6-1.023,1.612-1.072,1.61-2.281A1.7,1.7,0,0,0,12.583,5.1a1.528,1.528,0,0,0-.736,1.276v.161a.424.424,0,1,1-.847,0V6.377a2.372,2.372,0,0,1,1.127-1.991,2.538,2.538,0,0,1,3.956,1.987,2.369,2.369,0,0,1-.821,1.809,3.971,3.971,0,0,0-.908.9,3.05,3.05,0,0,0-.363,1.676A.424.424,0,0,1,13.568,11.186Z" transform="translate(-6.341 -2.291)"/><ellipse class="g" cx="0.526" cy="0.526" rx="0.526" ry="0.526" transform="translate(6.311 9.466)"/><path class="h" d="M9.318,41.076A1.174,1.174,0,0,0,8.895,41H1.271A1.271,1.271,0,0,0,0,42.271V46.93A1.271,1.271,0,0,0,1.271,48.2H8.895Z" transform="translate(0 -23.634)"/><path class="d" d="M26.506,38.659a.424.424,0,0,1-.424-.424V36.965a2.118,2.118,0,0,0-4.236,0v1.271a.424.424,0,1,1-.847,0V36.965a2.965,2.965,0,0,1,5.93,0v1.271A.424.424,0,0,1,26.506,38.659Z" transform="translate(-12.105 -19.599)"/><path class="i" d="M25.693,49.93h-6.93a.827.827,0,0,1-.757-1l.482-4.236A.793.793,0,0,1,19.244,44h5.968a.793.793,0,0,1,.756.691l.482,4.236a.827.827,0,0,1-.757,1Z" transform="translate(-10.368 -25.364)"/></svg>