<?xml version="1.0" encoding="utf-8"?>
<!-- Generator: Adobe Illustrator 24.2.1, SVG Export Plug-In . SVG Version: 6.00 Build 0)  -->
<svg version="1.1" id="Layer_1" xmlns="http://www.w3.org/2000/svg" xmlns:xlink="http://www.w3.org/1999/xlink" x="0px" y="0px"
	 width="16.4px" height="16.4px" viewBox="0 0 16.4 16.4" style="enable-background:new 0 0 16.4 16.4;" xml:space="preserve">
<style type="text/css">
	.st0{fill-rule:evenodd;clip-rule:evenodd;fill:#3c3c3c;}
</style>
<path id="popup_close" class="st0" d="M16.1,14c-1.4-1.4-2.8-2.8-4.1-4.1l-1.3-1.3c-0.2-0.1-0.3-0.4-0.1-0.6c0-0.1,0.1-0.1,0.2-0.1
	l1.4-1.4c1.3-1.3,2.7-2.7,4-4c0.2-0.2,0.3-0.5,0.2-0.8c-0.2-0.7-0.8-1.3-1.5-1.5c-0.3-0.1-0.6,0-0.8,0.2c-1.3,1.3-2.6,2.6-3.9,3.9
	L8.2,6.1L6.4,4.3C5.1,3,3.7,1.6,2.4,0.3C2.2,0,1.9,0,1.6,0C0.8,0.2,0.2,0.8,0,1.6c-0.1,0.3,0,0.6,0.2,0.8C1.6,3.7,3,5.1,4.3,6.4
	l1.8,1.8L4.3,10c-1.3,1.3-2.7,2.7-4,4c-0.2,0.2-0.3,0.6-0.2,0.9c0.2,0.7,0.8,1.3,1.5,1.5c0.3,0.1,0.6,0,0.8-0.2
	C3.2,15.4,4,14.5,5,13.5c0.5-0.5,0.9-0.9,1.4-1.4l1.8-1.8l1.7,1.7c1.3,1.3,2.7,2.7,4.1,4.1c0.2,0.2,0.5,0.3,0.7,0.2
	c0.4-0.1,0.8-0.3,1-0.6c0.3-0.3,0.5-0.6,0.6-1C16.5,14.5,16.4,14.2,16.1,14z"/>
</svg>
