<?xml version="1.0" encoding="utf-8"?>
<!-- Generator: Adobe Illustrator 25.4.1, SVG Export Plug-In . SVG Version: 6.00 Build 0)  -->
<svg version="1.1" id="Layer_1" xmlns="http://www.w3.org/2000/svg" xmlns:xlink="http://www.w3.org/1999/xlink" x="0px" y="0px"
	 width="18.8px" height="16.8px" viewBox="0 0 18.8 16.8" style="enable-background:new 0 0 18.8 16.8;" xml:space="preserve">
<style type="text/css">
	.st0{fill:#FFFFFF;stroke:#81E1BA;}
</style>
<g transform="translate(18.34 0.5) rotate(90)">
	<g transform="translate(0)">
		<path class="st0" d="M0.5,10.7l7.1,7.1c0.1,0.1,0.4,0.1,0.5,0l7.1-7.1c0.8-0.8,0.8-2,0-2.8c-0.8-0.8-2-0.8-2.8,0l0,0l-2.7,2.7V1.9
			c0-1-0.8-1.9-1.9-1.9S6,0.8,6,1.9v8.8L3.3,7.9c-0.8-0.7-2-0.7-2.8,0C-0.2,8.7-0.2,9.9,0.5,10.7z"/>
	</g>
</g>
</svg>
