<svg xmlns="http://www.w3.org/2000/svg" width="14.903" height="26.064" viewBox="0 0 14.903 26.064"><defs><style>.a{fill:#dbdbdb;stroke:#fdfdfd;}</style></defs><path class="a" d="M90.574,17.178a5.356,5.356,0,0,0-2.333-4.659,13.965,13.965,0,0,0-4.09-1.725c-2.953-.9-3.809-1.367-3.809-2.779,0-1.573,2.044-2.132,3.794-2.132a7.316,7.316,0,0,1,3.651.983l1.805-2.8a10.345,10.345,0,0,0-4.427-1.461V0h-3.33V2.794c-2.96.651-4.825,2.586-4.825,5.222a5,5,0,0,0,2.276,4.344,13.969,13.969,0,0,0,3.9,1.622c2.9.875,4.072,1.409,4.059,3.175v.013c0,1.483-1.965,2.01-3.648,2.01a6.243,6.243,0,0,1-4.3-1.733l-2.419,2.288a9.285,9.285,0,0,0,4.957,2.6v2.724h3.33V22.4C88.454,21.928,90.57,19.948,90.574,17.178Z" transform="translate(-76.171 0.5)"/></svg>