<svg xmlns="http://www.w3.org/2000/svg" width="20.185" height="23.789" viewBox="0 0 20.185 23.789"><defs><style>.a{fill:#dbdbdb;stroke:#dbdbdb;stroke-width:0.4px;}</style></defs><g transform="translate(-39.251 0.2)"><g transform="translate(39.451)"><g transform="translate(0)"><path class="a" d="M56.338,2.9A9.892,9.892,0,0,0,39.451,9.892c0,5.345,5.054,9.791,7.769,12.18.377.332.7.619.963.861a1.7,1.7,0,0,0,2.32,0c.26-.243.585-.529.963-.861,2.715-2.389,7.769-6.834,7.769-12.18A9.828,9.828,0,0,0,56.338,2.9ZM50.561,21.043c-.386.339-.719.632-.993.889a.331.331,0,0,1-.45,0c-.275-.257-.608-.549-.993-.889-2.553-2.245-7.3-6.425-7.3-11.151a8.522,8.522,0,0,1,17.045,0C57.866,14.618,53.114,18.8,50.561,21.043Z" transform="translate(-39.451 0)"/></g></g><g transform="translate(44.984 5.159)"><g transform="translate(0)"><path class="a" d="M164.929,112.938a4.359,4.359,0,1,0,4.359,4.359A4.364,4.364,0,0,0,164.929,112.938Zm0,7.349a2.989,2.989,0,1,1,2.989-2.989A2.993,2.993,0,0,1,164.929,120.287Z" transform="translate(-160.57 -112.938)"/></g></g></g></svg>