<svg xmlns="http://www.w3.org/2000/svg" xmlns:xlink="http://www.w3.org/1999/xlink" width="424.488" height="424.488" viewBox="0 0 424.488 424.488"><defs><style>.a,.b,.c{fill:#fff;fill-rule:evenodd;}.a{opacity:0.15;}.b{opacity:0.4;}.d{fill:#81e1ba;}.e{filter:url(#a);}</style><filter id="a" x="131.07" y="94.142" width="162.348" height="210.228" filterUnits="userSpaceOnUse"><feOffset input="SourceAlpha"/><feGaussianBlur stdDeviation="10" result="b"/><feFlood flood-color="#fff" flood-opacity="0.58"/><feComposite operator="in" in2="b"/><feComposite in="SourceGraphic"/></filter></defs><g transform="translate(-42.871 -43.332)"><g transform="translate(42.871 43.332)"><path class="a" d="M661.088,449.3A212.244,212.244,0,1,1,448.844,237.06,212.124,212.124,0,0,1,661.088,449.3ZM299.259,299.719A211.669,211.669,0,1,0,448.844,237.81,210.136,210.136,0,0,0,299.259,299.719Z" transform="translate(-236.6 -237.06)"/><path class="b" d="M739.923,587.281a153.1,153.1,0,1,1-153.1-153.1A153.013,153.013,0,0,1,739.923,587.281ZM479.067,479.527a152.475,152.475,0,1,0,107.754-44.6A151.375,151.375,0,0,0,479.067,479.527Z" transform="translate(-374.577 -375.037)"/><path class="c" d="M805.616,702.258A103.818,103.818,0,1,1,701.8,598.44,103.757,103.757,0,0,1,805.616,702.258Zm-206.885,0A103.068,103.068,0,1,0,701.8,599.19,103.184,103.184,0,0,0,598.73,702.258Z" transform="translate(-489.554 -490.014)"/></g><g transform="translate(157.75 104.941)"><rect class="d" width="194.887" height="294.93" transform="translate(0 0)"/><g class="e" transform="matrix(1, 0, 0, 1, -114.88, -61.61)"><path class="c" d="M838.528,653.438v83.493a9.427,9.427,0,0,1-9.428,9.426H745.609a9.427,9.427,0,0,1-9.429-9.426V653.438a9.427,9.427,0,0,1,9.429-9.426h9.535V628.341a32.211,32.211,0,1,1,64.422,0v15.671H829.1A9.427,9.427,0,0,1,838.528,653.438Zm-44.205,46.806a13.876,13.876,0,1,0-13.937,0l-3.474,33.218H797.8Zm13.524-71.9a20.492,20.492,0,0,0-40.985,0v15.671h40.985Z" transform="translate(-575.11 -471.99)"/></g></g></g></svg>