<?xml version="1.0" encoding="utf-8"?>
<!-- Generator: Adobe Illustrator 25.4.1, SVG Export Plug-In . SVG Version: 6.00 Build 0)  -->
<svg version="1.1" id="rating_star_yellow" xmlns="http://www.w3.org/2000/svg" xmlns:xlink="http://www.w3.org/1999/xlink" x="0px"
	 y="0px" width="124.4px" height="124.4px" viewBox="0 0 124.4 124.4" style="enable-background:new 0 0 124.4 124.4;"
	 xml:space="preserve">
<style type="text/css">
	.st0{fill-rule:evenodd;clip-rule:evenodd;fill:#F3CC30;}
	.st1{fill-rule:evenodd;clip-rule:evenodd;fill:#F7DB5E;}
	.st2{fill-rule:evenodd;clip-rule:evenodd;fill:#EDBD31;}
</style>
<path id="path16" class="st0" d="M64,4l17.7,35.8c0.3,0.6,0.8,1,1.5,1.1l39.5,5.8c1.1,0.2,1.8,1.2,1.7,2.3c-0.1,0.4-0.3,0.8-0.6,1.1
	L95.2,78c-0.5,0.5-0.7,1.1-0.6,1.8l6.8,39.4c0.2,1.1-0.5,2.1-1.6,2.3c-0.4,0.1-0.9,0-1.3-0.2l-35.4-18.6c-0.6-0.3-1.3-0.3-1.9,0
	l-35.4,18.6c-1,0.5-2.2,0.1-2.7-0.8c-0.2-0.4-0.3-0.8-0.2-1.3l6.8-39.4c0.1-0.6-0.1-1.3-0.6-1.8L0.6,50.1c-0.8-0.8-0.8-2,0-2.8
	c0.3-0.3,0.7-0.5,1.1-0.6L41.2,41c0.6-0.1,1.2-0.5,1.5-1.1L60.4,4c0.5-1,1.7-1.4,2.7-0.9C63.5,3.3,63.8,3.6,64,4z"/>
<path id="path18" class="st1" d="M62.2,12.3L46.5,42.8c-0.8,1.6-2.4,2.7-4.2,2.8L8,48.8l36.2,1.7c2.3,0.1,4.4-1.3,5.2-3.4L62.2,12.3
	z"/>
<path id="path20" class="st2" d="M23.8,114.6l-0.8,4.5c-0.2,1.1,0.5,2.1,1.6,2.3c0.4,0.1,0.9,0,1.3-0.2l35.4-18.6
	c0.6-0.3,1.3-0.3,1.9,0l35.4,18.6c1,0.5,2.2,0.1,2.7-0.8c0.2-0.4,0.3-0.8,0.2-1.3l-6.8-39.4c-0.1-0.6,0.1-1.3,0.6-1.8l28.6-27.9
	c0.8-0.8,0.8-2,0-2.8c-0.3-0.3-0.7-0.5-1.1-0.6l-13.2-1.9C88.1,83.2,55.3,103.5,23.8,114.6z"/>
</svg>
