<svg xmlns="http://www.w3.org/2000/svg" xmlns:xlink="http://www.w3.org/1999/xlink" width="239.883" height="239.883" viewBox="0 0 239.883 239.883"><defs><style>.a{fill:#fff;}.b{fill:#f3cc30;}.c{fill:#f7db5e;}.d{fill:#edbd31;}.e{filter:url(#a);}</style><filter id="a" x="0" y="0" width="239.883" height="239.883" filterUnits="userSpaceOnUse"><feOffset dx="10" dy="30" input="SourceAlpha"/><feGaussianBlur stdDeviation="17.5" result="b"/><feFlood flood-color="#919191" flood-opacity="0.09"/><feComposite operator="in" in2="b"/><feComposite in="SourceGraphic"/></filter></defs><g transform="translate(-89.75 -126.488)"><g transform="translate(132.249 148.988)"><g class="e" transform="matrix(1, 0, 0, 1, -42.5, -22.5)"><circle class="a" cx="67.441" cy="67.441" r="67.441" transform="translate(42.5 22.5)"/></g></g><g transform="translate(124.887 140.205)"><g transform="translate(0)"><path class="b" d="M385.575-1165.805,407-1122.391a2.42,2.42,0,0,0,1.822,1.324l47.912,6.962a2.42,2.42,0,0,1,1.341,4.128l-34.669,33.8a2.417,2.417,0,0,0-.7,2.141l8.184,47.718a2.42,2.42,0,0,1-3.511,2.551L384.53-1046.3a2.419,2.419,0,0,0-2.252,0l-42.853,22.529a2.42,2.42,0,0,1-3.511-2.551l8.184-47.718a2.418,2.418,0,0,0-.7-2.141l-34.669-33.8a2.42,2.42,0,0,1,1.341-4.128l47.911-6.962a2.42,2.42,0,0,0,1.822-1.324l21.427-43.415a2.42,2.42,0,0,1,4.34,0" transform="translate(-307.999 1167.155)"/><path class="c" d="M430.572-1100.767l-19.094,36.984a6.392,6.392,0,0,1-5.1,3.434l-41.457,3.784,43.8,2.048a6.392,6.392,0,0,0,6.294-4.168l15.555-42.082" transform="translate(-355.167 1112.144)"/><path class="d" d="M471.647-786.585l-.942,5.491a2.42,2.42,0,0,0,3.511,2.551l42.853-22.529a2.421,2.421,0,0,1,2.252,0l42.853,22.529a2.42,2.42,0,0,0,3.512-2.551L557.5-828.811a2.419,2.419,0,0,1,.7-2.142l34.669-33.794a2.42,2.42,0,0,0-1.341-4.128l-16.048-2.331c-25.955,46.58-65.7,71.1-103.831,84.623" transform="translate(-442.791 921.925)"/></g></g></g></svg>