<svg xmlns="http://www.w3.org/2000/svg" width="9.798" height="10.277" viewBox="0 0 9.798 10.277"><defs><style>.a{fill:#fff;}</style></defs><path class="a" d="M10.153,6.284l0,0-.659-.605a4.313,4.313,0,0,0,0-1.078l.66-.607a.65.65,0,0,0,.12-.794L9.546,1.942a.645.645,0,0,0-.752-.292l-.855.27a3.917,3.917,0,0,0-.931-.541L6.811.5A.644.644,0,0,0,6.186,0H4.73a.644.644,0,0,0-.624.5l-.2.878a3.917,3.917,0,0,0-.931.541l-.856-.27a.644.644,0,0,0-.749.289L.643,3.2a.65.65,0,0,0,.123.793l.659.605a4.377,4.377,0,0,0-.034.539,4.461,4.461,0,0,0,.034.539l-.66.607a.65.65,0,0,0-.12.794l.727,1.256a.645.645,0,0,0,.752.292l.855-.27a3.917,3.917,0,0,0,.931.541l.2.877a.644.644,0,0,0,.624.5H6.186a.644.644,0,0,0,.624-.5l.2-.878a3.9,3.9,0,0,0,.931-.541l.856.27a.643.643,0,0,0,.75-.29l.73-1.262a.649.649,0,0,0-.122-.791Zm-4.694,1A2.141,2.141,0,1,1,7.6,5.139,2.143,2.143,0,0,1,5.458,7.28Z" transform="translate(-0.559)"/></svg>