<svg xmlns="http://www.w3.org/2000/svg" xmlns:xlink="http://www.w3.org/1999/xlink" width="85" height="83" viewBox="0 0 85 83"><defs><style>.a{fill:url(#a);}.b,.c{fill:#fff;}.c{fill-rule:evenodd;}</style><linearGradient id="a" x1="0.018" x2="1" y2="1" gradientUnits="objectBoundingBox"><stop offset="0" stop-color="#4edaad"/><stop offset="1" stop-color="#24b263"/></linearGradient></defs><g transform="translate(0.064 0.47)"><rect class="a" width="85" height="83" rx="12" transform="translate(-0.064 -0.47)"/><g transform="translate(22.227 20.58)"><path class="b" d="M137.583-75.194l.691.411a16.3,16.3,0,0,0,8.34,2.31A16.356,16.356,0,0,0,162.952-88.81a16.356,16.356,0,0,0-16.337-16.337A16.356,16.356,0,0,0,130.277-88.81a16.292,16.292,0,0,0,2.389,8.47l.424.7-1.632,6.092Zm-11.512,7.026L129-79.078a20.077,20.077,0,0,1-2.527-9.732,20.168,20.168,0,0,1,20.145-20.145A20.167,20.167,0,0,1,166.758-88.81a20.166,20.166,0,0,1-20.144,20.144,20.116,20.116,0,0,1-9.576-2.44l-10.967,2.938" transform="translate(-126.072 108.955)"/><path class="c" d="M149.31-90.867a3.392,3.392,0,0,0-2.886-.65c-.748.306-1.228,1.48-1.713,2.079a.718.718,0,0,1-.928.2,13.065,13.065,0,0,1-6.522-5.586.8.8,0,0,1,.1-1.093,4.4,4.4,0,0,0,1.185-1.923,4.212,4.212,0,0,0-.53-2.277,5.407,5.407,0,0,0-1.679-2.533,2.3,2.3,0,0,0-2.5.372,5.078,5.078,0,0,0-1.761,4.022,5.8,5.8,0,0,0,.158,1.277,10.6,10.6,0,0,0,1.225,2.821,22,22,0,0,0,1.279,1.944,19.716,19.716,0,0,0,5.543,5.148,16.765,16.765,0,0,0,3.457,1.645,7.694,7.694,0,0,0,4.025.635,4.866,4.866,0,0,0,3.648-2.714,2.361,2.361,0,0,0,.17-1.386c-.209-.954-1.5-1.521-2.272-1.983" transform="translate(-121.274 113.814)"/></g></g></svg>