<svg xmlns="http://www.w3.org/2000/svg" width="32.56" height="29.175" viewBox="0 0 32.56 29.175"><defs><style>.a{fill:#ffdc64;}.b{fill:#ffd16c;}.c{fill:#fff;}</style></defs><path class="a" d="M51.222,26.137H26.779a4.115,4.115,0,0,0-4.059,4.168V44.541a4.115,4.115,0,0,0,4.059,4.168,2.528,2.528,0,0,1,2.493,2.561v3.121a.891.891,0,0,0,1.652.49l1.885-3.072a6.426,6.426,0,0,1,5.469-3.1H51.222a4.115,4.115,0,0,0,4.059-4.168V30.305A4.115,4.115,0,0,0,51.222,26.137Z" transform="translate(-22.72 -26.137)"/><path class="b" d="M31.222,48.709a4.115,4.115,0,0,1-4.059-4.168V30.305a4.115,4.115,0,0,1,4.059-4.168H26.779a4.115,4.115,0,0,0-4.059,4.168V44.541a4.115,4.115,0,0,0,4.059,4.168,2.528,2.528,0,0,1,2.493,2.561v3.121a.891.891,0,0,0,1.652.49l1.885-3.072a6.6,6.6,0,0,1,.845-1.1A2.509,2.509,0,0,0,31.222,48.709Z" transform="translate(-22.72 -26.137)"/><g transform="translate(9.168 7.248)"><path class="c" d="M143.267,143.341a2,2,0,0,1,1.635.811,2.189,2.189,0,0,1,.435,1.869,2.155,2.155,0,0,1-2.11,1.746h-.005a2.022,2.022,0,0,1-1.28-.447,2.163,2.163,0,0,1-.755-1.125.494.494,0,0,1,.07-.442.44.44,0,0,1,.38-.2.426.426,0,0,1,.45.344,1.213,1.213,0,0,0,.42.632,1.115,1.115,0,0,0,.715.252h.02a1.157,1.157,0,0,0,.725-.247,1.181,1.181,0,0,0,.43-.647,1.226,1.226,0,0,0-.2-1.079,1.119,1.119,0,0,0-.91-.483,1.982,1.982,0,0,1-1.945-1.993v-.144a1.96,1.96,0,0,1,.565-1.412,1.814,1.814,0,0,1,1.355-.58h.03a1.813,1.813,0,0,1,1.125.38,1.951,1.951,0,0,1,.69.971.478.478,0,0,1-.07.442.44.44,0,0,1-.38.2h-.005a.425.425,0,0,1-.44-.324,1,1,0,0,0-.35-.493.915.915,0,0,0-.57-.2h-.03a.9.9,0,0,0-.685.3.985.985,0,0,0-.285.714v.159a.953.953,0,0,0,.29.7A.936.936,0,0,0,143.267,143.341Z" transform="translate(-141.164 -140.198)"/><path class="c" d="M219.8,140.555a.452.452,0,0,1,.335.144.468.468,0,0,1,.135.339v6.579a.485.485,0,0,1-.135.344.459.459,0,0,1-.335.139.453.453,0,0,1-.33-.139.485.485,0,0,1-.135-.344v-4.591l-1.37,2.748a.345.345,0,0,1-.055.077.416.416,0,0,1-.145.134.455.455,0,0,1-.36.026.442.442,0,0,1-.27-.236l-1.36-2.737v4.581a.485.485,0,0,1-.135.344.454.454,0,0,1-.33.139.459.459,0,0,1-.335-.139.485.485,0,0,1-.135-.344v-6.579a.467.467,0,0,1,.135-.339.451.451,0,0,1,.335-.144.435.435,0,0,1,.405.247.014.014,0,0,0,.005.01l.005.005,1.825,3.677,1.835-3.677s.007-.009.02-.036.013-.019.01-.015a.5.5,0,0,1,.035-.041l.14-.169Z" transform="translate(-209.708 -140.529)"/><path class="c" d="M306.319,143.341a2,2,0,0,1,1.635.811,2.189,2.189,0,0,1,.435,1.869,2.106,2.106,0,0,1-.75,1.258,2.085,2.085,0,0,1-1.36.488h-.005a2.023,2.023,0,0,1-1.28-.447,2.163,2.163,0,0,1-.755-1.125.494.494,0,0,1,.07-.442.44.44,0,0,1,.38-.2.426.426,0,0,1,.45.344,1.213,1.213,0,0,0,.42.632,1.115,1.115,0,0,0,.715.252h.02a1.157,1.157,0,0,0,.725-.247,1.181,1.181,0,0,0,.43-.647,1.225,1.225,0,0,0-.2-1.079,1.119,1.119,0,0,0-.91-.483,1.982,1.982,0,0,1-1.945-1.993v-.144a1.96,1.96,0,0,1,.565-1.412,1.814,1.814,0,0,1,1.355-.58h.03a1.813,1.813,0,0,1,1.125.38,1.951,1.951,0,0,1,.69.971.478.478,0,0,1-.07.442.44.44,0,0,1-.38.2H307.7a.425.425,0,0,1-.44-.324,1,1,0,0,0-.35-.493.916.916,0,0,0-.57-.2h-.03a.9.9,0,0,0-.685.3.985.985,0,0,0-.285.714v.159a.953.953,0,0,0,.29.7A.937.937,0,0,0,306.319,143.341Z" transform="translate(-292.853 -140.198)"/></g><ellipse class="a" cx="1.533" cy="1.574" rx="1.533" ry="1.574" transform="translate(28.238 2.068)"/><ellipse class="a" cx="1.115" cy="1.145" rx="1.115" ry="1.145" transform="translate(25.996 5.23)"/></svg>