<svg xmlns="http://www.w3.org/2000/svg" width="26.744" height="25.476" viewBox="0 0 26.744 25.476"><defs><style>.a{fill:none;stroke:#fff;stroke-width:1.5px;}</style></defs><g transform="translate(-3.123 -1.047)"><path class="a" d="M24.11,11.327l-6.941-.656a1.2,1.2,0,0,1-.994-.736L13.688,3.908a1.19,1.19,0,0,0-2.208,0L9.013,9.935a1.175,1.175,0,0,1-.994.736l-6.942.656A1.2,1.2,0,0,0,.4,13.415L5.632,18.01a1.189,1.189,0,0,1,.378,1.174L4.439,25.627a1.2,1.2,0,0,0,1.77,1.313L12,23.539a1.2,1.2,0,0,1,1.213,0L19,26.94a1.2,1.2,0,0,0,1.77-1.313l-1.551-6.444a1.189,1.189,0,0,1,.378-1.174l5.231-4.595A1.215,1.215,0,0,0,24.11,11.327Z" transform="translate(3.891 -1.365)"/></g></svg>