<svg xmlns="http://www.w3.org/2000/svg" width="44.081" height="35.815" viewBox="0 0 44.081 35.815"><defs><style>.a{fill:#03a9f4;}</style></defs><path class="a" d="M44.081,52.24a18.842,18.842,0,0,1-5.207,1.427,8.986,8.986,0,0,0,3.976-4.995,18.059,18.059,0,0,1-5.73,2.188,9.036,9.036,0,0,0-15.632,6.18A9.305,9.305,0,0,0,21.7,59.1,25.579,25.579,0,0,1,3.069,49.648,9.039,9.039,0,0,0,5.846,61.726a8.925,8.925,0,0,1-4.083-1.113v.1A9.078,9.078,0,0,0,9,69.591a9.02,9.02,0,0,1-2.369.3,7.992,7.992,0,0,1-1.711-.154,9.123,9.123,0,0,0,8.444,6.3,18.158,18.158,0,0,1-11.2,3.854A16.924,16.924,0,0,1,0,79.76a25.441,25.441,0,0,0,13.863,4.055c16.629,0,25.721-13.775,25.721-25.715,0-.4-.014-.785-.033-1.168A18.028,18.028,0,0,0,44.081,52.24Z" transform="translate(0 -48)"/></svg>