<svg xmlns="http://www.w3.org/2000/svg" viewBox="0 0 142.41 90.48"><defs><style>.cls-1{fill:none;}.cls-2{fill:#62d2a4;}.cls-3{fill:#ed1c24;}.cls-4{fill:#9b9b9b;}.cls-5{fill:#fff;}.cls-6{fill:#717379;}</style></defs><g id="Layer_2" data-name="Layer 2"><g id="Layer_1-2" data-name="Layer 1"><path class="cls-1" d="M62.34,59.46a16,16,0,0,0,9.44,4.62A16.23,16.23,0,0,1,57.7,49.52h0A16.12,16.12,0,0,0,62.34,59.46Z"/><path class="cls-2" d="M56.71,46.41l-2.52-.1a1,1,0,0,0-.69.24L27.38,69.09a1,1,0,0,0-.34.69,1,1,0,0,0,.24.73l.7.81a1,1,0,0,0,1.41.1l25.5-22,1.81.07c0-.49-.07-1-.07-1.47S56.66,46.94,56.71,46.41Z"/><path class="cls-3" d="M57.63,48c0,.51,0,1,.07,1.51h0c0-.5-.07-1-.07-1.51Z"/><path class="cls-4" d="M70.1,41.64v1.07a1,1,0,0,0,1,1h15l1.8-1.5a15.21,15.21,0,0,0-.77-1.57h-16A1,1,0,0,0,70.1,41.64Z"/><path class="cls-2" d="M112.5,24.37l-.68-.82a1.06,1.06,0,0,0-.68-.36,1,1,0,0,0-.73.23L89.49,40.86l-.1.08c.19.42.35.85.51,1.28a16.8,16.8,0,0,1,.53,1.84l21.94-18.28A1,1,0,0,0,112.5,24.37Z"/><path class="cls-2" d="M88.39,43.71a15.69,15.69,0,0,0-.53-1.5l-1.8,1.5-4.4,3.67-22.95-.89c-.05.5-.08,1-.08,1.52s0,1,.08,1.55l23.62.92a1,1,0,0,0,.68-.23l5.77-4.81A16.11,16.11,0,0,0,88.39,43.71Z"/><path class="cls-2" d="M110.88,12.78l-.66-.84a1,1,0,0,0-.69-.38,1,1,0,0,0-.75.24L83.16,33.89A1,1,0,0,0,83,35.27l.66.84a1,1,0,0,0,.69.38h.09a1,1,0,0,0,.66-.24l25.62-22.1A1,1,0,0,0,110.88,12.78Z"/><path class="cls-4" d="M73.81,54.43H55.23a1.07,1.07,0,0,0-.66.24L33.88,72.37a1,1,0,0,0-.11,1.41l.69.82a1,1,0,0,0,1.41.11L56,57.5H73.81a1,1,0,0,0,1-1V55.43A1,1,0,0,0,73.81,54.43Z"/><path class="cls-5" d="M109.83,11a1.68,1.68,0,1,0,1.68,1.68A1.69,1.69,0,0,0,109.83,11Z"/><path class="cls-2" d="M109.83,9a3.68,3.68,0,1,0,3.68,3.68A3.68,3.68,0,0,0,109.83,9Zm0,5.36a1.68,1.68,0,1,1,1.68-1.68A1.68,1.68,0,0,1,109.83,14.36Z"/><path class="cls-5" d="M111.73,22.51a1.68,1.68,0,1,0,1.68,1.68A1.68,1.68,0,0,0,111.73,22.51Z"/><path class="cls-2" d="M111.73,20.51a3.68,3.68,0,1,0,3.68,3.68A3.68,3.68,0,0,0,111.73,20.51Zm0,5.36a1.68,1.68,0,1,1,1.68-1.68A1.68,1.68,0,0,1,111.73,25.87Z"/><circle class="cls-5" cx="73.77" cy="55.43" r="1.68"/><path class="cls-4" d="M73.77,51.75a3.68,3.68,0,1,0,3.68,3.68A3.68,3.68,0,0,0,73.77,51.75Zm0,5.36a1.68,1.68,0,1,1,1.68-1.68A1.68,1.68,0,0,1,73.77,57.11Z"/><path class="cls-5" d="M73.93,42.18a1.68,1.68,0,1,0-1.68,1.68A1.68,1.68,0,0,0,73.93,42.18Z"/><path class="cls-4" d="M72.25,38.5a3.68,3.68,0,1,0,3.68,3.68A3.68,3.68,0,0,0,72.25,38.5Zm0,5.36a1.68,1.68,0,1,1,1.68-1.68A1.68,1.68,0,0,1,72.25,43.86Z"/><circle class="cls-5" cx="28.03" cy="69.65" r="1.68"/><path class="cls-2" d="M28,66a3.68,3.68,0,1,0,3.68,3.68A3.68,3.68,0,0,0,28,66Zm0,5.36a1.68,1.68,0,1,1,1.68-1.68A1.68,1.68,0,0,1,28,71.33Z"/><path class="cls-5" d="M35.86,70.65a1.68,1.68,0,1,0,1.68,1.68A1.68,1.68,0,0,0,35.86,70.65Z"/><path class="cls-4" d="M35.86,68.65a3.68,3.68,0,1,0,3.68,3.68A3.68,3.68,0,0,0,35.86,68.65Zm0,5.36a1.68,1.68,0,1,1,1.68-1.68A1.68,1.68,0,0,1,35.86,74Z"/><path class="cls-6" d="M115.69,41.33a2.21,2.21,0,0,0-2.44-2.09c-1.6,0-3.2,0-4.79,0-.32,0-.31,0-.37-.23a33,33,0,0,0-3.7-8.93c-.13-.23-.15-.25.1-.48.94-.91,1.86-1.83,2.79-2.75l.61-.62a2.23,2.23,0,0,0,.27-3.2,41.85,41.85,0,0,0-9.43-9.4,2.2,2.2,0,0,0-3.2.28l-.18.19c-1.09,1.08-2.19,2.17-3.25,3.27a1,1,0,0,1-.17.15.8.8,0,0,1-.18-.08,33.54,33.54,0,0,0-9-3.7.46.46,0,0,1-.19-.08.59.59,0,0,1,0-.21c0-1.62,0-3.25,0-4.87A2.27,2.27,0,0,0,80.37,6.1a43,43,0,0,0-12.87,0,2.28,2.28,0,0,0-2.18,2.55c0,.54,0,1.09,0,1.63,0,1,0,2.05,0,3.07,0,.31,0,.34-.36.43a33.54,33.54,0,0,0-8.78,3.61c-.27.16-.3.17-.55-.09-.85-.91-1.73-1.78-2.61-2.66l-.57-.57c-1.24-1.23-2.18-1.3-3.61-.25a43.59,43.59,0,0,0-8.94,8.9c-1.16,1.55-1.09,2.41.3,3.8.84.83,1.66,1.66,2.49,2.5l.85.86A36.17,36.17,0,0,0,39.69,39a.58.58,0,0,1-.29.15c-1.06,0-2.13,0-3.2,0H34.64a2.18,2.18,0,0,0-2.49,2.1,43.17,43.17,0,0,0-.1,12.7c.29,2.17.94,2.73,3.15,2.73h4.5a35.07,35.07,0,0,0,4,9.55l-.9.87c-.91.88-1.82,1.75-2.71,2.64a2.21,2.21,0,0,0-.25,3.27,42.93,42.93,0,0,0,9.23,9.22,2.26,2.26,0,0,0,3.34-.26l.7-.7c.88-.88,1.75-1.75,2.6-2.65.19-.2.2-.22.49,0a34.67,34.67,0,0,0,8.08,3.47l.94.26.15,0v1.28c0,1.29,0,2.58,0,3.86A2.2,2.2,0,0,0,67.48,90a43.49,43.49,0,0,0,6.59.5A41,41,0,0,0,80.36,90a2.26,2.26,0,0,0,2.19-2.52c0-1.28,0-2.56,0-3.76v-1l9.67-4,.74.75c.8.81,1.65,1.69,2.51,2.55,1.2,1.2,2.16,1.28,3.54.26a42.2,42.2,0,0,0,8.95-8.9c1.1-1.48,1-2.42-.3-3.74l-3.36-3.33a36.45,36.45,0,0,0,3.93-9.35.58.58,0,0,1,.26-.13c1.1,0,2.2,0,3.3,0h1.29c1.79,0,2.52-.63,2.8-2.4A41.94,41.94,0,0,0,115.69,41.33Zm-11.53,12.9a31.28,31.28,0,0,1-4.55,10.9,2.29,2.29,0,0,0,.42,3.19l3.39,3.47a37.85,37.85,0,0,1-6,6l-3.13-3.15c-1.42-1.42-2.23-1.51-3.94-.42a30.4,30.4,0,0,1-10,4.07c-1.71.36-2.29,1.06-2.31,2.8V85.7a38.71,38.71,0,0,1-8.34,0V81.29c0-2-.54-2.64-2.44-3.05a29.85,29.85,0,0,1-10-4.1c-1.58-1-2.47-.92-3.81.45l-3.1,3.21a37.65,37.65,0,0,1-6.11-6.06L45,71c.77-.78,1.54-1.56,2.32-2.33,1.45-1.42,1.56-2.27.48-3.94a30.46,30.46,0,0,1-4.21-10.13c-.38-1.76-1-2.27-2.78-2.27H36.12a36.42,36.42,0,0,1,0-8.67H37l1.21,0c.82,0,1.63,0,2.45,0,1.89,0,2.52-.52,2.92-2.36a31.22,31.22,0,0,1,4.18-10c.93-1.46.84-2.41-.35-3.62-.81-.82-1.64-1.63-2.49-2.46l-.8-.78a36.92,36.92,0,0,1,6.18-6.19l.51.5c.75.76,1.49,1.5,2.24,2.24a11.93,11.93,0,0,0,1.16,1,2.22,2.22,0,0,0,2.68.09,31.18,31.18,0,0,1,10.92-4.5A2.28,2.28,0,0,0,69.65,15c0-.91,0-1.81,0-2.72V10.68c0-.16,0-.32,0-.51H78c0,.2,0,.37,0,.55v1.53c0,1,0,2,0,3a2.17,2.17,0,0,0,1.88,2.33A31.41,31.41,0,0,1,90.79,22a2.43,2.43,0,0,0,3.28-.48c1.05-1,2.08-2.07,3-3a2,2,0,0,0,.31-.43,37.14,37.14,0,0,1,6.22,6.18l-.76.75-2.16,2.14c-1.67,1.67-1.74,2.31-.51,4.28a31.08,31.08,0,0,1,4,9.85,2.44,2.44,0,0,0,2.81,2.27h4.61c0,.12,0,.24,0,.36a12.07,12.07,0,0,1,.13,1.66c0,1.29,0,2.58-.07,3.87,0,.85,0,1.69-.06,2.54a.5.5,0,0,1,0,.25.6.6,0,0,1-.3,0c-1.44,0-2.9,0-4.32,0h-.38A2.19,2.19,0,0,0,104.16,54.23Z"/><path class="cls-6" d="M73.87,24.19H73.8a23.81,23.81,0,0,0-.06,47.61h0a23.81,23.81,0,0,0,.11-47.61Zm0,42.91h0a19.14,19.14,0,1,1,.09-38.27h.05a19.14,19.14,0,0,1-.1,38.27Z"/><path class="cls-2" d="M90.43,44.06a16.8,16.8,0,0,0-.53-1.84c-.16-.43-.32-.86-.51-1.28,0-.08-.07-.15-.1-.22a16.92,16.92,0,0,0-15.45-9.83h0A17.21,17.21,0,0,0,56.71,46.41c-.05.53-.08,1.06-.08,1.6s0,1,.07,1.47A17.14,17.14,0,0,0,90.91,48.1,17.94,17.94,0,0,0,90.43,44.06ZM62.34,59.46a16.12,16.12,0,0,1-4.64-9.94c-.05-.5-.07-1-.07-1.51h0c0,.51,0,1,.07,1.51A16.23,16.23,0,0,0,71.78,64.08,16,16,0,0,1,62.34,59.46Zm22.21-.68h0a15.19,15.19,0,0,1-25.84-9.22c-.05-.51-.08-1-.08-1.55s0-1,.08-1.52a15.21,15.21,0,0,1,29.15-4.28,15.69,15.69,0,0,1,.53,1.5,16.11,16.11,0,0,1,.39,1.73A14.54,14.54,0,0,1,89,48,15.14,15.14,0,0,1,84.55,58.78Z"/><path class="cls-4" d="M127.07,7.87c-1,0-1.86,0-2.66,0-.58,0-.76-.16-.73-.73,0-.79,0-1.58,0-2.37h-.39a4.26,4.26,0,0,0-.11,2.07c.06.81-.21,1-1,1s-1.53-.3-2.28.43a5.41,5.41,0,0,0,2.41.13c.72,0,.89.22.85.87s0,1.49,0,2.23h.43a4.58,4.58,0,0,0,.08-1.95c-.08-.86.19-1.13,1.06-1.13C125.42,8.45,126.25,8.79,127.07,7.87Z"/><path class="cls-4" d="M130.26,20.41c-.82,0-1.64.05-2.46.09,1.17-1,.35-2.19.31-3.3a1.58,1.58,0,0,0-.3,1.52c.11.83,0,1.42-.58,1.65a3.81,3.81,0,0,0-.82.09h0c-.58,0-1.6-.3-1.6.25,0,.75,1,.24,1.48.37a1.14,1.14,0,0,0,.52,0c.86-.16,1,.26,1,1a3.42,3.42,0,0,0,.24,2.05,1.94,1.94,0,0,0,.26-1.65c-.19-1.19.31-1.5,1.43-1.44.56,0,1.3.34,1.76-.39C131.12,20.22,130.66,20.41,130.26,20.41Z"/><path class="cls-2" d="M134.55,10c-1.73,0-3.46.06-5.19.1a.39.39,0,0,0-.43.39c0,.29.27.29.48.3h2.34v-.13h2.72a.41.41,0,0,0,.44-.38C134.91,10.1,134.73,10,134.55,10Z"/><path class="cls-2" d="M142.05,10l-5.09.1c-.22,0-.47.1-.48.35s.31.35.56.35h2.35v-.13H142c.23,0,.43-.13.42-.4S142.23,10,142.05,10Z"/><path class="cls-2" d="M135.75,9.66a14.55,14.55,0,0,0-.13-5.93A15.28,15.28,0,0,0,135.75,9.66Z"/><path class="cls-2" d="M135.59,17.14l.27,0V11.21h-.27Z"/><path class="cls-4" d="M19.88,61.07l-1.39.27a9,9,0,0,1-7.63-2.12c-.66-.54-.86-1-.32-1.81A8.11,8.11,0,0,0,12,52.75a2.73,2.73,0,0,0-2.31-2.86C8.47,49.83,7.53,51,7.42,52.6a8,8,0,0,0,1.37,5,1.15,1.15,0,0,1-.22,1.73A12.49,12.49,0,0,1,.9,63.12c-.35,0-.83-.15-.9.54a5.66,5.66,0,0,0,2.05-.1,12.28,12.28,0,0,0,6.87-3.93c.53-.59.79-.69,1.38-.08A8.32,8.32,0,0,0,15.09,62a7.51,7.51,0,0,0,5.13-.66C19.94,61.12,19.9,61.07,19.88,61.07Zm-12-8c-.11-1.44.52-2.41,1.51-2.46a2.21,2.21,0,0,1,2.13,2.31,8.38,8.38,0,0,1-1.76,5A8.41,8.41,0,0,1,7.84,53.05Z"/><path class="cls-2" d="M26.12,32a3,3,0,0,1-2.48-1.17A4.93,4.93,0,0,1,22.86,29c-.15,2.31-1.59,3.27-3.72,3.64,2.29-.06,4.19.19,4.07,3.11a1.28,1.28,0,0,0,.11-.24c.4-2.36.47-2.45,2.85-3,.16,0,.34-.09.34-.24S26.3,32,26.12,32Zm-2.84,2a2.37,2.37,0,0,0-1.92-1.65,4.81,4.81,0,0,0,1.47-1.93,3.82,3.82,0,0,0,2,1.89A3.85,3.85,0,0,0,23.28,34Z"/><path class="cls-4" d="M21,27.57c-1.35,0-1.95-.85-2.31-2.07-.17,1.36-.78,2.21-2.19,2.28a.24.24,0,0,0-.21.33c0,.16.18.16.29.14,1.54-.29,2.2.47,2.29,1.91,0,0,.06,0,.16.07C19.09,29,19.56,28,21,28c.07,0,.2-.15.21-.24S21.11,27.57,21,27.57Zm-1.5.59c-.79,1.14-.92-.58-1.68-.26l1-1.25C18.7,27.44,20.06,27.3,19.48,28.16Z"/><path class="cls-4" d="M26.75,26.08a2.47,2.47,0,0,1-2.17-1.89c0,1.35-.93,1.78-2,2.07.58.27,1.14.1,1.64.38s.26,1,.76,1.63C24.83,26.79,25.58,26.29,26.75,26.08Zm-1.93.57c-.11-.34-.69-.32-.63-.75,0-.19.26-.57.44-.48a1.83,1.83,0,0,1,.71.77C25.39,26.3,25.09,26.57,24.82,26.65Z"/><path class="cls-2" d="M131.22,57.44a2.7,2.7,0,0,1-1.29-2.53,7.24,7.24,0,0,0-7.54-7.25c-.43,0-1-.15-1.21.67.54,0,1,0,1.44,0a7,7,0,0,1,6.84,6.74c0,.78,0,1.34-1.09,1a3.34,3.34,0,0,0-3.14.49,2.34,2.34,0,0,0-.72,3.05,2.38,2.38,0,0,0,3.09.55,3.44,3.44,0,0,0,1.67-1.93c.35-1.08.81-.8,1.46-.33a6.52,6.52,0,0,1,1.41,9.26c-.2.27-.6.44-.47,1A7.06,7.06,0,0,0,131.22,57.44Zm-4.74,2.38c-.92-.07-1.74-.4-1.75-1.53,0-1,1-1.69,2.56-1.69.54.26,1.61-.21,1.81.8S127.55,59.89,126.48,59.82Z"/><path class="cls-4" d="M44.61,4.4a1.53,1.53,0,0,0-1.76.26c-.5.38-.93.84-1.42,1.29A4.71,4.71,0,0,1,41,0a4.47,4.47,0,0,0-.27,5.75,1.07,1.07,0,0,1,.06,1.45,13.71,13.71,0,0,0-2.18,6.19,1.5,1.5,0,0,0,.39-1A16.12,16.12,0,0,1,41,7.29c.27-.44.49-.62,1-.3A2.18,2.18,0,0,0,44,7.23a1.65,1.65,0,0,0,1.19-1.45A1.21,1.21,0,0,0,44.61,4.4ZM44.79,6a1.27,1.27,0,0,1-1.39.85c-.55,0-1.25-.1-1.4-.53s.48-.86.88-1.16A1.29,1.29,0,0,1,44.52,5,.79.79,0,0,1,44.79,6Z"/></g></g></svg>