<svg xmlns="http://www.w3.org/2000/svg" width="21.483" height="19.046" viewBox="0 0 21.483 19.046"><defs><style>.a{fill:#fff;stroke:#fff;stroke-width:0.2px;}</style></defs><g transform="translate(0.1 -23.9)"><g transform="translate(0 24)"><g transform="translate(0 0)"><circle class="a" cx="1.462" cy="1.462" r="1.462" transform="translate(6.56 4.651)"/><path class="a" d="M20.024,35.495a4.5,4.5,0,0,0-2.518-1.2V26.863a2.924,2.924,0,0,0-.833-2.031A2.838,2.838,0,0,0,14.642,24H2.863a2.924,2.924,0,0,0-2.031.833A2.838,2.838,0,0,0,0,26.863V38.988a2.924,2.924,0,0,0,.833,2.031,2.838,2.838,0,0,0,2.031.833H14.256a4.3,4.3,0,0,0,5.768-6.357ZM1.076,26.863A1.7,1.7,0,0,1,1.6,25.625,1.782,1.782,0,0,1,2.863,25.1H14.642a1.8,1.8,0,0,1,1.787,1.787V33.22l-3.006-3.006a.545.545,0,0,0-.772,0L8.123,34.763,5.057,31.677a.545.545,0,0,0-.772,0L1.076,34.926ZM2.843,40.815v-.041a1.782,1.782,0,0,1-1.259-.528,1.853,1.853,0,0,1-.508-1.259V36.469l3.595-3.615,3.067,3.067a.565.565,0,0,0,.772,0l4.529-4.549L16,34.357l-.183.061a1.886,1.886,0,0,0-.264.081c-.081.02-.162.061-.244.081a.608.608,0,0,0-.162.081,1.888,1.888,0,0,0-.2.1l-.3.183c-.061.041-.1.061-.162.1-.041.02-.061.041-.1.061a2.45,2.45,0,0,0-.487.426,4.3,4.3,0,0,0-1.259,3.046,4.465,4.465,0,0,0,.1.894c.02.081.041.142.061.223.061.2.122.406.2.609v.02a3.725,3.725,0,0,0,.264.487Zm16.389,0a3.213,3.213,0,0,1-4.488.041c-.081-.081-.162-.183-.244-.264-.061-.061-.122-.142-.183-.2a1.929,1.929,0,0,1-.2-.345c-.041-.081-.081-.142-.122-.223a1.716,1.716,0,0,1-.1-.345c-.02-.081-.061-.183-.081-.264a3.361,3.361,0,0,1-.061-.65,3.26,3.26,0,0,1,.934-2.275,3.14,3.14,0,0,1,2.275-.934,3.26,3.26,0,0,1,2.275.934,3.174,3.174,0,0,1,.934,2.275A3.248,3.248,0,0,1,19.232,40.815Z" transform="translate(0 -24)"/><path class="a" d="M300.289,264.526a.548.548,0,0,0-.141-.094.459.459,0,0,0-.141-.031h-.031a.458.458,0,0,0-.141.031.371.371,0,0,0-.141.094l-.974.974a.422.422,0,1,0,.6.6l.251-.251v1.728a.424.424,0,0,0,.848,0v-1.728l.251.251a.422.422,0,1,0,.6-.6Z" transform="translate(-283.033 -251.668)"/></g></g></g></svg>