<svg xmlns="http://www.w3.org/2000/svg" width="43.002" height="31.904" viewBox="0 0 43.002 31.904"><defs><style>.a{fill:#f2f6fd;}.b{fill:#e1e7f4;}.c{fill:#81e1ba;}.d{fill:#fff;}.e{fill:#62d2a4;}</style></defs><path class="a" d="M36.414,75.775a6.655,6.655,0,0,0-.711.04A7.963,7.963,0,0,0,25.57,70.639,9.7,9.7,0,0,0,8.037,73c-.02,0-.04,0-.06,0a7.976,7.976,0,0,0,0,15.952H36.414a6.589,6.589,0,1,0,0-13.178Z" transform="translate(-0.001 -66.065)"/><path class="b" d="M36.739,161.324H31.211a.694.694,0,0,1-.694-.694v-2.2a2.774,2.774,0,0,0-.813-1.962l-4.042-4.042a2.774,2.774,0,0,0-1.962-.813H14.565a2.081,2.081,0,0,0-2.081,2.081v6.443a.7.7,0,0,1-.929.657,7.9,7.9,0,0,1-3.928-11.938A7.969,7.969,0,0,0,0,157.086a8.143,8.143,0,0,0,8.225,7.706H36.412q.268,0,.531-.021A1.729,1.729,0,0,0,36.739,161.324Z" transform="translate(0 -141.904)"/><path class="c" d="M179.727,219H165.856a.694.694,0,0,1-.694-.694V198.89a.694.694,0,0,1,.694-.694h9.136a1.387,1.387,0,0,1,.981.406l4.042,4.042a1.387,1.387,0,0,1,.406.981V218.31A.694.694,0,0,1,179.727,219Z" transform="translate(-151.29 -187.099)"/><g transform="translate(17.86 2.045)"><path class="d" d="M219.738,299.209l-2.774-3.468a.9.9,0,0,0-1.355,0l-2.774,3.468a.867.867,0,1,0,1.355,1.084l1.23-1.538v5.158a.867.867,0,0,0,1.734,0v-5.158l1.23,1.538a.867.867,0,1,0,1.355-1.084Z" transform="translate(-212.645 -278.215)"/><path class="d" d="M217.676,94.785a.866.866,0,0,1-.694-.346,6.058,6.058,0,0,0-3.641-2.308.867.867,0,0,1,.344-1.7,7.791,7.791,0,0,1,4.684,2.965.867.867,0,0,1-.693,1.388Z" transform="translate(-212.646 -90.414)"/><path class="d" d="M348.5,146.053a.868.868,0,0,1-.767-.462,4.327,4.327,0,0,0-2.39-2.066.867.867,0,0,1,.577-1.635,6.059,6.059,0,0,1,3.347,2.891.867.867,0,0,1-.766,1.272Z" transform="translate(-333.669 -137.521)"/></g><path class="e" d="M273.9,198.324a1.383,1.383,0,0,0-.575-.129h-.813v4.855a1.389,1.389,0,0,0,1.387,1.387h4.855v-.813a1.382,1.382,0,0,0-.129-.575H273.9v-4.726Z" transform="translate(-249.629 -187.098)"/></svg>